<svg width="308" height="132" viewBox="0 0 308 132" fill="none" xmlns="http://www.w3.org/2000/svg">
<path d="M0 77V1.48H11.52V77H0ZM15.36 77V1.48H19.2V77H15.36ZM23.04 77V1.48H26.88V77H23.04ZM38.4 77V1.48H42.24V77H38.4ZM46.08 77V1.48H57.6V77H46.08ZM61.5 77V1.48H65.34V77H61.5ZM69.18 77V1.48H80.7V77H69.18ZM84.54 77V1.48H88.38V77H84.54ZM99.9 77V1.48H103.74V77H99.9ZM107.58 77V1.48H119.1V77H107.58ZM123 77V1.48H134.52V77H123ZM138.36 77V1.48H142.2V77H138.36ZM146.04 77V1.48H157.56V77H146.04ZM161.4 77V1.48H165.24V77H161.4ZM176.76 77V1.48H180.6V77H176.76ZM184.5 77V1.48H196.02V77H184.5ZM207.54 77V1.48H211.38V77H207.54ZM215.22 77V1.48H219.06V77H215.22ZM222.9 77V1.48H226.74V77H222.9ZM230.58 77V1.48H242.1V77H230.58ZM246 77V1.48H249.84V77H246ZM253.68 77V1.48H257.52V77H253.68ZM261.36 77V1.48H272.88V77H261.36ZM276.72 77V1.48H288.24V77H276.72ZM299.76 77V1.48H303.6V77H299.76Z" fill="white"/>
<path d="M28.8456 86.976H32.3496C32.3816 86.976 32.3976 86.976 32.3976 86.976C32.3976 86.976 32.3976 86.992 32.3976 87.024V90.528C32.3976 90.56 32.3976 90.576 32.3976 90.576C32.3976 90.576 32.3816 90.576 32.3496 90.576H28.8456C28.8136 90.576 28.7976 90.576 28.7976 90.576C28.7976 90.576 28.7976 90.56 28.7976 90.528V87.024C28.7976 86.992 28.7976 86.976 28.7976 86.976C28.7976 86.976 28.8136 86.976 28.8456 86.976ZM24.0456 91.776H27.5496C27.5816 91.776 27.5976 91.776 27.5976 91.776C27.5976 91.776 27.5976 91.792 27.5976 91.824V95.328C27.5976 95.36 27.5976 95.376 27.5976 95.376C27.5976 95.376 27.5816 95.376 27.5496 95.376H24.0456C24.0136 95.376 23.9976 95.376 23.9976 95.376C23.9976 95.376 23.9976 95.36 23.9976 95.328V91.824C23.9976 91.792 23.9976 91.776 23.9976 91.776C23.9976 91.776 24.0136 91.776 24.0456 91.776ZM33.6456 91.776H37.1496C37.1816 91.776 37.1976 91.776 37.1976 91.776C37.1976 91.776 37.1976 91.792 37.1976 91.824V95.328C37.1976 95.36 37.1976 95.376 37.1976 95.376C37.1976 95.376 37.1816 95.376 37.1496 95.376H33.6456C33.6136 95.376 33.5976 95.376 33.5976 95.376C33.5976 95.376 33.5976 95.36 33.5976 95.328V91.824C33.5976 91.792 33.5976 91.776 33.5976 91.776C33.5976 91.776 33.6136 91.776 33.6456 91.776ZM19.2456 96.576H22.7496C22.7816 96.576 22.7976 96.576 22.7976 96.576C22.7976 96.576 22.7976 96.592 22.7976 96.624V100.128C22.7976 100.16 22.7976 100.176 22.7976 100.176C22.7976 100.176 22.7816 100.176 22.7496 100.176H19.2456C19.2136 100.176 19.1976 100.176 19.1976 100.176C19.1976 100.176 19.1976 100.16 19.1976 100.128V96.624C19.1976 96.592 19.1976 96.576 19.1976 96.576C19.1976 96.576 19.2136 96.576 19.2456 96.576ZM38.4456 96.576H41.9496C41.9816 96.576 41.9976 96.576 41.9976 96.576C41.9976 96.576 41.9976 96.592 41.9976 96.624V100.128C41.9976 100.16 41.9976 100.176 41.9976 100.176C41.9976 100.176 41.9816 100.176 41.9496 100.176H38.4456C38.4136 100.176 38.3976 100.176 38.3976 100.176C38.3976 100.176 38.3976 100.16 38.3976 100.128V96.624C38.3976 96.592 38.3976 96.576 38.3976 96.576C38.3976 96.576 38.4136 96.576 38.4456 96.576ZM19.2456 101.376H22.7496C22.7816 101.376 22.7976 101.376 22.7976 101.376C22.7976 101.376 22.7976 101.392 22.7976 101.424V104.928C22.7976 104.96 22.7976 104.976 22.7976 104.976C22.7976 104.976 22.7816 104.976 22.7496 104.976H19.2456C19.2136 104.976 19.1976 104.976 19.1976 104.976C19.1976 104.976 19.1976 104.96 19.1976 104.928V101.424C19.1976 101.392 19.1976 101.376 19.1976 101.376C19.1976 101.376 19.2136 101.376 19.2456 101.376ZM38.4456 101.376H41.9496C41.9816 101.376 41.9976 101.376 41.9976 101.376C41.9976 101.376 41.9976 101.392 41.9976 101.424V104.928C41.9976 104.96 41.9976 104.976 41.9976 104.976C41.9976 104.976 41.9816 104.976 41.9496 104.976H38.4456C38.4136 104.976 38.3976 104.976 38.3976 104.976C38.3976 104.976 38.3976 104.96 38.3976 104.928V101.424C38.3976 101.392 38.3976 101.376 38.3976 101.376C38.3976 101.376 38.4136 101.376 38.4456 101.376ZM19.2456 106.176H22.7496C22.7816 106.176 22.7976 106.176 22.7976 106.176C22.7976 106.176 22.7976 106.192 22.7976 106.224V109.728C22.7976 109.76 22.7976 109.776 22.7976 109.776C22.7976 109.776 22.7816 109.776 22.7496 109.776H19.2456C19.2136 109.776 19.1976 109.776 19.1976 109.776C19.1976 109.776 19.1976 109.76 19.1976 109.728V106.224C19.1976 106.192 19.1976 106.176 19.1976 106.176C19.1976 106.176 19.2136 106.176 19.2456 106.176ZM24.0456 106.176H27.5496C27.5816 106.176 27.5976 106.176 27.5976 106.176C27.5976 106.176 27.5976 106.192 27.5976 106.224V109.728C27.5976 109.76 27.5976 109.776 27.5976 109.776C27.5976 109.776 27.5816 109.776 27.5496 109.776H24.0456C24.0136 109.776 23.9976 109.776 23.9976 109.776C23.9976 109.776 23.9976 109.76 23.9976 109.728V106.224C23.9976 106.192 23.9976 106.176 23.9976 106.176C23.9976 106.176 24.0136 106.176 24.0456 106.176ZM28.8456 106.176H32.3496C32.3816 106.176 32.3976 106.176 32.3976 106.176C32.3976 106.176 32.3976 106.192 32.3976 106.224V109.728C32.3976 109.76 32.3976 109.776 32.3976 109.776C32.3976 109.776 32.3816 109.776 32.3496 109.776H28.8456C28.8136 109.776 28.7976 109.776 28.7976 109.776C28.7976 109.776 28.7976 109.76 28.7976 109.728V106.224C28.7976 106.192 28.7976 106.176 28.7976 106.176C28.7976 106.176 28.8136 106.176 28.8456 106.176ZM33.6456 106.176H37.1496C37.1816 106.176 37.1976 106.176 37.1976 106.176C37.1976 106.176 37.1976 106.192 37.1976 106.224V109.728C37.1976 109.76 37.1976 109.776 37.1976 109.776C37.1976 109.776 37.1816 109.776 37.1496 109.776H33.6456C33.6136 109.776 33.5976 109.776 33.5976 109.776C33.5976 109.776 33.5976 109.76 33.5976 109.728V106.224C33.5976 106.192 33.5976 106.176 33.5976 106.176C33.5976 106.176 33.6136 106.176 33.6456 106.176ZM38.4456 106.176H41.9496C41.9816 106.176 41.9976 106.176 41.9976 106.176C41.9976 106.176 41.9976 106.192 41.9976 106.224V109.728C41.9976 109.76 41.9976 109.776 41.9976 109.776C41.9976 109.776 41.9816 109.776 41.9496 109.776H38.4456C38.4136 109.776 38.3976 109.776 38.3976 109.776C38.3976 109.776 38.3976 109.76 38.3976 109.728V106.224C38.3976 106.192 38.3976 106.176 38.3976 106.176C38.3976 106.176 38.4136 106.176 38.4456 106.176ZM19.2456 110.976H22.7496C22.7816 110.976 22.7976 110.976 22.7976 110.976C22.7976 110.976 22.7976 110.992 22.7976 111.024V114.528C22.7976 114.56 22.7976 114.576 22.7976 114.576C22.7976 114.576 22.7816 114.576 22.7496 114.576H19.2456C19.2136 114.576 19.1976 114.576 19.1976 114.576C19.1976 114.576 19.1976 114.56 19.1976 114.528V111.024C19.1976 110.992 19.1976 110.976 19.1976 110.976C19.1976 110.976 19.2136 110.976 19.2456 110.976ZM38.4456 110.976H41.9496C41.9816 110.976 41.9976 110.976 41.9976 110.976C41.9976 110.976 41.9976 110.992 41.9976 111.024V114.528C41.9976 114.56 41.9976 114.576 41.9976 114.576C41.9976 114.576 41.9816 114.576 41.9496 114.576H38.4456C38.4136 114.576 38.3976 114.576 38.3976 114.576C38.3976 114.576 38.3976 114.56 38.3976 114.528V111.024C38.3976 110.992 38.3976 110.976 38.3976 110.976C38.3976 110.976 38.4136 110.976 38.4456 110.976ZM19.2456 115.776H22.7496C22.7816 115.776 22.7976 115.776 22.7976 115.776C22.7976 115.776 22.7976 115.792 22.7976 115.824V119.328C22.7976 119.36 22.7976 119.376 22.7976 119.376C22.7976 119.376 22.7816 119.376 22.7496 119.376H19.2456C19.2136 119.376 19.1976 119.376 19.1976 119.376C19.1976 119.376 19.1976 119.36 19.1976 119.328V115.824C19.1976 115.792 19.1976 115.776 19.1976 115.776C19.1976 115.776 19.2136 115.776 19.2456 115.776ZM38.4456 115.776H41.9496C41.9816 115.776 41.9976 115.776 41.9976 115.776C41.9976 115.776 41.9976 115.792 41.9976 115.824V119.328C41.9976 119.36 41.9976 119.376 41.9976 119.376C41.9976 119.376 41.9816 119.376 41.9496 119.376H38.4456C38.4136 119.376 38.3976 119.376 38.3976 119.376C38.3976 119.376 38.3976 119.36 38.3976 119.328V115.824C38.3976 115.792 38.3976 115.776 38.3976 115.776C38.3976 115.776 38.4136 115.776 38.4456 115.776ZM80.6669 86.976H84.1709C84.2029 86.976 84.2189 86.976 84.2189 86.976C84.2189 86.976 84.2189 86.992 84.2189 87.024V90.528C84.2189 90.56 84.2189 90.576 84.2189 90.576C84.2189 90.576 84.2029 90.576 84.1709 90.576H80.6669C80.6349 90.576 80.6189 90.576 80.6189 90.576C80.6189 90.576 80.6189 90.56 80.6189 90.528V87.024C80.6189 86.992 80.6189 86.976 80.6189 86.976C80.6189 86.976 80.6349 86.976 80.6669 86.976ZM85.4669 86.976H88.9709C89.0029 86.976 89.0189 86.976 89.0189 86.976C89.0189 86.976 89.0189 86.992 89.0189 87.024V90.528C89.0189 90.56 89.0189 90.576 89.0189 90.576C89.0189 90.576 89.0029 90.576 88.9709 90.576H85.4669C85.4349 90.576 85.4189 90.576 85.4189 90.576C85.4189 90.576 85.4189 90.56 85.4189 90.528V87.024C85.4189 86.992 85.4189 86.976 85.4189 86.976C85.4189 86.976 85.4349 86.976 85.4669 86.976ZM90.2669 86.976H93.7709C93.8029 86.976 93.8189 86.976 93.8189 86.976C93.8189 86.976 93.8189 86.992 93.8189 87.024V90.528C93.8189 90.56 93.8189 90.576 93.8189 90.576C93.8189 90.576 93.8029 90.576 93.7709 90.576H90.2669C90.2349 90.576 90.2189 90.576 90.2189 90.576C90.2189 90.576 90.2189 90.56 90.2189 90.528V87.024C90.2189 86.992 90.2189 86.976 90.2189 86.976C90.2189 86.976 90.2349 86.976 90.2669 86.976ZM95.0669 86.976H98.5709C98.6029 86.976 98.6189 86.976 98.6189 86.976C98.6189 86.976 98.6189 86.992 98.6189 87.024V90.528C98.6189 90.56 98.6189 90.576 98.6189 90.576C98.6189 90.576 98.6029 90.576 98.5709 90.576H95.0669C95.0349 90.576 95.0189 90.576 95.0189 90.576C95.0189 90.576 95.0189 90.56 95.0189 90.528V87.024C95.0189 86.992 95.0189 86.976 95.0189 86.976C95.0189 86.976 95.0349 86.976 95.0669 86.976ZM85.4669 91.776H88.9709C89.0029 91.776 89.0189 91.776 89.0189 91.776C89.0189 91.776 89.0189 91.792 89.0189 91.824V95.328C89.0189 95.36 89.0189 95.376 89.0189 95.376C89.0189 95.376 89.0029 95.376 88.9709 95.376H85.4669C85.4349 95.376 85.4189 95.376 85.4189 95.376C85.4189 95.376 85.4189 95.36 85.4189 95.328V91.824C85.4189 91.792 85.4189 91.776 85.4189 91.776C85.4189 91.776 85.4349 91.776 85.4669 91.776ZM99.8669 91.776H103.371C103.403 91.776 103.419 91.776 103.419 91.776C103.419 91.776 103.419 91.792 103.419 91.824V95.328C103.419 95.36 103.419 95.376 103.419 95.376C103.419 95.376 103.403 95.376 103.371 95.376H99.8669C99.8349 95.376 99.8189 95.376 99.8189 95.376C99.8189 95.376 99.8189 95.36 99.8189 95.328V91.824C99.8189 91.792 99.8189 91.776 99.8189 91.776C99.8189 91.776 99.8349 91.776 99.8669 91.776ZM85.4669 96.576H88.9709C89.0029 96.576 89.0189 96.576 89.0189 96.576C89.0189 96.576 89.0189 96.592 89.0189 96.624V100.128C89.0189 100.16 89.0189 100.176 89.0189 100.176C89.0189 100.176 89.0029 100.176 88.9709 100.176H85.4669C85.4349 100.176 85.4189 100.176 85.4189 100.176C85.4189 100.176 85.4189 100.16 85.4189 100.128V96.624C85.4189 96.592 85.4189 96.576 85.4189 96.576C85.4189 96.576 85.4349 96.576 85.4669 96.576ZM99.8669 96.576H103.371C103.403 96.576 103.419 96.576 103.419 96.576C103.419 96.576 103.419 96.592 103.419 96.624V100.128C103.419 100.16 103.419 100.176 103.419 100.176C103.419 100.176 103.403 100.176 103.371 100.176H99.8669C99.8349 100.176 99.8189 100.176 99.8189 100.176C99.8189 100.176 99.8189 100.16 99.8189 100.128V96.624C99.8189 96.592 99.8189 96.576 99.8189 96.576C99.8189 96.576 99.8349 96.576 99.8669 96.576ZM85.4669 101.376H88.9709C89.0029 101.376 89.0189 101.376 89.0189 101.376C89.0189 101.376 89.0189 101.392 89.0189 101.424V104.928C89.0189 104.96 89.0189 104.976 89.0189 104.976C89.0189 104.976 89.0029 104.976 88.9709 104.976H85.4669C85.4349 104.976 85.4189 104.976 85.4189 104.976C85.4189 104.976 85.4189 104.96 85.4189 104.928V101.424C85.4189 101.392 85.4189 101.376 85.4189 101.376C85.4189 101.376 85.4349 101.376 85.4669 101.376ZM90.2669 101.376H93.7709C93.8029 101.376 93.8189 101.376 93.8189 101.376C93.8189 101.376 93.8189 101.392 93.8189 101.424V104.928C93.8189 104.96 93.8189 104.976 93.8189 104.976C93.8189 104.976 93.8029 104.976 93.7709 104.976H90.2669C90.2349 104.976 90.2189 104.976 90.2189 104.976C90.2189 104.976 90.2189 104.96 90.2189 104.928V101.424C90.2189 101.392 90.2189 101.376 90.2189 101.376C90.2189 101.376 90.2349 101.376 90.2669 101.376ZM95.0669 101.376H98.5709C98.6029 101.376 98.6189 101.376 98.6189 101.376C98.6189 101.376 98.6189 101.392 98.6189 101.424V104.928C98.6189 104.96 98.6189 104.976 98.6189 104.976C98.6189 104.976 98.6029 104.976 98.5709 104.976H95.0669C95.0349 104.976 95.0189 104.976 95.0189 104.976C95.0189 104.976 95.0189 104.96 95.0189 104.928V101.424C95.0189 101.392 95.0189 101.376 95.0189 101.376C95.0189 101.376 95.0349 101.376 95.0669 101.376ZM85.4669 106.176H88.9709C89.0029 106.176 89.0189 106.176 89.0189 106.176C89.0189 106.176 89.0189 106.192 89.0189 106.224V109.728C89.0189 109.76 89.0189 109.776 89.0189 109.776C89.0189 109.776 89.0029 109.776 88.9709 109.776H85.4669C85.4349 109.776 85.4189 109.776 85.4189 109.776C85.4189 109.776 85.4189 109.76 85.4189 109.728V106.224C85.4189 106.192 85.4189 106.176 85.4189 106.176C85.4189 106.176 85.4349 106.176 85.4669 106.176ZM99.8669 106.176H103.371C103.403 106.176 103.419 106.176 103.419 106.176C103.419 106.176 103.419 106.192 103.419 106.224V109.728C103.419 109.76 103.419 109.776 103.419 109.776C103.419 109.776 103.403 109.776 103.371 109.776H99.8669C99.8349 109.776 99.8189 109.776 99.8189 109.776C99.8189 109.776 99.8189 109.76 99.8189 109.728V106.224C99.8189 106.192 99.8189 106.176 99.8189 106.176C99.8189 106.176 99.8349 106.176 99.8669 106.176ZM85.4669 110.976H88.9709C89.0029 110.976 89.0189 110.976 89.0189 110.976C89.0189 110.976 89.0189 110.992 89.0189 111.024V114.528C89.0189 114.56 89.0189 114.576 89.0189 114.576C89.0189 114.576 89.0029 114.576 88.9709 114.576H85.4669C85.4349 114.576 85.4189 114.576 85.4189 114.576C85.4189 114.576 85.4189 114.56 85.4189 114.528V111.024C85.4189 110.992 85.4189 110.976 85.4189 110.976C85.4189 110.976 85.4349 110.976 85.4669 110.976ZM99.8669 110.976H103.371C103.403 110.976 103.419 110.976 103.419 110.976C103.419 110.976 103.419 110.992 103.419 111.024V114.528C103.419 114.56 103.419 114.576 103.419 114.576C103.419 114.576 103.403 114.576 103.371 114.576H99.8669C99.8349 114.576 99.8189 114.576 99.8189 114.576C99.8189 114.576 99.8189 114.56 99.8189 114.528V111.024C99.8189 110.992 99.8189 110.976 99.8189 110.976C99.8189 110.976 99.8349 110.976 99.8669 110.976ZM80.6669 115.776H84.1709C84.2029 115.776 84.2189 115.776 84.2189 115.776C84.2189 115.776 84.2189 115.792 84.2189 115.824V119.328C84.2189 119.36 84.2189 119.376 84.2189 119.376C84.2189 119.376 84.2029 119.376 84.1709 119.376H80.6669C80.6349 119.376 80.6189 119.376 80.6189 119.376C80.6189 119.376 80.6189 119.36 80.6189 119.328V115.824C80.6189 115.792 80.6189 115.776 80.6189 115.776C80.6189 115.776 80.6349 115.776 80.6669 115.776ZM85.4669 115.776H88.9709C89.0029 115.776 89.0189 115.776 89.0189 115.776C89.0189 115.776 89.0189 115.792 89.0189 115.824V119.328C89.0189 119.36 89.0189 119.376 89.0189 119.376C89.0189 119.376 89.0029 119.376 88.9709 119.376H85.4669C85.4349 119.376 85.4189 119.376 85.4189 119.376C85.4189 119.376 85.4189 119.36 85.4189 119.328V115.824C85.4189 115.792 85.4189 115.776 85.4189 115.776C85.4189 115.776 85.4349 115.776 85.4669 115.776ZM90.2669 115.776H93.7709C93.8029 115.776 93.8189 115.776 93.8189 115.776C93.8189 115.776 93.8189 115.792 93.8189 115.824V119.328C93.8189 119.36 93.8189 119.376 93.8189 119.376C93.8189 119.376 93.8029 119.376 93.7709 119.376H90.2669C90.2349 119.376 90.2189 119.376 90.2189 119.376C90.2189 119.376 90.2189 119.36 90.2189 119.328V115.824C90.2189 115.792 90.2189 115.776 90.2189 115.776C90.2189 115.776 90.2349 115.776 90.2669 115.776ZM95.0669 115.776H98.5709C98.6029 115.776 98.6189 115.776 98.6189 115.776C98.6189 115.776 98.6189 115.792 98.6189 115.824V119.328C98.6189 119.36 98.6189 119.376 98.6189 119.376C98.6189 119.376 98.6029 119.376 98.5709 119.376H95.0669C95.0349 119.376 95.0189 119.376 95.0189 119.376C95.0189 119.376 95.0189 119.36 95.0189 119.328V115.824C95.0189 115.792 95.0189 115.776 95.0189 115.776C95.0189 115.776 95.0349 115.776 95.0669 115.776ZM146.888 86.976H150.392C150.424 86.976 150.44 86.976 150.44 86.976C150.44 86.976 150.44 86.992 150.44 87.024V90.528C150.44 90.56 150.44 90.576 150.44 90.576C150.44 90.576 150.424 90.576 150.392 90.576H146.888C146.856 90.576 146.84 90.576 146.84 90.576C146.84 90.576 146.84 90.56 146.84 90.528V87.024C146.84 86.992 146.84 86.976 146.84 86.976C146.84 86.976 146.856 86.976 146.888 86.976ZM151.688 86.976H155.192C155.224 86.976 155.24 86.976 155.24 86.976C155.24 86.976 155.24 86.992 155.24 87.024V90.528C155.24 90.56 155.24 90.576 155.24 90.576C155.24 90.576 155.224 90.576 155.192 90.576H151.688C151.656 90.576 151.64 90.576 151.64 90.576C151.64 90.576 151.64 90.56 151.64 90.528V87.024C151.64 86.992 151.64 86.976 151.64 86.976C151.64 86.976 151.656 86.976 151.688 86.976ZM156.488 86.976H159.992C160.024 86.976 160.04 86.976 160.04 86.976C160.04 86.976 160.04 86.992 160.04 87.024V90.528C160.04 90.56 160.04 90.576 160.04 90.576C160.04 90.576 160.024 90.576 159.992 90.576H156.488C156.456 90.576 156.44 90.576 156.44 90.576C156.44 90.576 156.44 90.56 156.44 90.528V87.024C156.44 86.992 156.44 86.976 156.44 86.976C156.44 86.976 156.456 86.976 156.488 86.976ZM142.088 91.776H145.592C145.624 91.776 145.64 91.776 145.64 91.776C145.64 91.776 145.64 91.792 145.64 91.824V95.328C145.64 95.36 145.64 95.376 145.64 95.376C145.64 95.376 145.624 95.376 145.592 95.376H142.088C142.056 95.376 142.04 95.376 142.04 95.376C142.04 95.376 142.04 95.36 142.04 95.328V91.824C142.04 91.792 142.04 91.776 142.04 91.776C142.04 91.776 142.056 91.776 142.088 91.776ZM161.288 91.776H164.792C164.824 91.776 164.84 91.776 164.84 91.776C164.84 91.776 164.84 91.792 164.84 91.824V95.328C164.84 95.36 164.84 95.376 164.84 95.376C164.84 95.376 164.824 95.376 164.792 95.376H161.288C161.256 95.376 161.24 95.376 161.24 95.376C161.24 95.376 161.24 95.36 161.24 95.328V91.824C161.24 91.792 161.24 91.776 161.24 91.776C161.24 91.776 161.256 91.776 161.288 91.776ZM142.088 96.576H145.592C145.624 96.576 145.64 96.576 145.64 96.576C145.64 96.576 145.64 96.592 145.64 96.624V100.128C145.64 100.16 145.64 100.176 145.64 100.176C145.64 100.176 145.624 100.176 145.592 100.176H142.088C142.056 100.176 142.04 100.176 142.04 100.176C142.04 100.176 142.04 100.16 142.04 100.128V96.624C142.04 96.592 142.04 96.576 142.04 96.576C142.04 96.576 142.056 96.576 142.088 96.576ZM161.288 96.576H164.792C164.824 96.576 164.84 96.576 164.84 96.576C164.84 96.576 164.84 96.592 164.84 96.624V100.128C164.84 100.16 164.84 100.176 164.84 100.176C164.84 100.176 164.824 100.176 164.792 100.176H161.288C161.256 100.176 161.24 100.176 161.24 100.176C161.24 100.176 161.24 100.16 161.24 100.128V96.624C161.24 96.592 161.24 96.576 161.24 96.576C161.24 96.576 161.256 96.576 161.288 96.576ZM142.088 101.376H145.592C145.624 101.376 145.64 101.376 145.64 101.376C145.64 101.376 145.64 101.392 145.64 101.424V104.928C145.64 104.96 145.64 104.976 145.64 104.976C145.64 104.976 145.624 104.976 145.592 104.976H142.088C142.056 104.976 142.04 104.976 142.04 104.976C142.04 104.976 142.04 104.96 142.04 104.928V101.424C142.04 101.392 142.04 101.376 142.04 101.376C142.04 101.376 142.056 101.376 142.088 101.376ZM161.288 101.376H164.792C164.824 101.376 164.84 101.376 164.84 101.376C164.84 101.376 164.84 101.392 164.84 101.424V104.928C164.84 104.96 164.84 104.976 164.84 104.976C164.84 104.976 164.824 104.976 164.792 104.976H161.288C161.256 104.976 161.24 104.976 161.24 104.976C161.24 104.976 161.24 104.96 161.24 104.928V101.424C161.24 101.392 161.24 101.376 161.24 101.376C161.24 101.376 161.256 101.376 161.288 101.376ZM142.088 106.176H145.592C145.624 106.176 145.64 106.176 145.64 106.176C145.64 106.176 145.64 106.192 145.64 106.224V109.728C145.64 109.76 145.64 109.776 145.64 109.776C145.64 109.776 145.624 109.776 145.592 109.776H142.088C142.056 109.776 142.04 109.776 142.04 109.776C142.04 109.776 142.04 109.76 142.04 109.728V106.224C142.04 106.192 142.04 106.176 142.04 106.176C142.04 106.176 142.056 106.176 142.088 106.176ZM161.288 106.176H164.792C164.824 106.176 164.84 106.176 164.84 106.176C164.84 106.176 164.84 106.192 164.84 106.224V109.728C164.84 109.76 164.84 109.776 164.84 109.776C164.84 109.776 164.824 109.776 164.792 109.776H161.288C161.256 109.776 161.24 109.776 161.24 109.776C161.24 109.776 161.24 109.76 161.24 109.728V106.224C161.24 106.192 161.24 106.176 161.24 106.176C161.24 106.176 161.256 106.176 161.288 106.176ZM142.088 110.976H145.592C145.624 110.976 145.64 110.976 145.64 110.976C145.64 110.976 145.64 110.992 145.64 111.024V114.528C145.64 114.56 145.64 114.576 145.64 114.576C145.64 114.576 145.624 114.576 145.592 114.576H142.088C142.056 114.576 142.04 114.576 142.04 114.576C142.04 114.576 142.04 114.56 142.04 114.528V111.024C142.04 110.992 142.04 110.976 142.04 110.976C142.04 110.976 142.056 110.976 142.088 110.976ZM161.288 110.976H164.792C164.824 110.976 164.84 110.976 164.84 110.976C164.84 110.976 164.84 110.992 164.84 111.024V114.528C164.84 114.56 164.84 114.576 164.84 114.576C164.84 114.576 164.824 114.576 164.792 114.576H161.288C161.256 114.576 161.24 114.576 161.24 114.576C161.24 114.576 161.24 114.56 161.24 114.528V111.024C161.24 110.992 161.24 110.976 161.24 110.976C161.24 110.976 161.256 110.976 161.288 110.976ZM146.888 115.776H150.392C150.424 115.776 150.44 115.776 150.44 115.776C150.44 115.776 150.44 115.792 150.44 115.824V119.328C150.44 119.36 150.44 119.376 150.44 119.376C150.44 119.376 150.424 119.376 150.392 119.376H146.888C146.856 119.376 146.84 119.376 146.84 119.376C146.84 119.376 146.84 119.36 146.84 119.328V115.824C146.84 115.792 146.84 115.776 146.84 115.776C146.84 115.776 146.856 115.776 146.888 115.776ZM151.688 115.776H155.192C155.224 115.776 155.24 115.776 155.24 115.776C155.24 115.776 155.24 115.792 155.24 115.824V119.328C155.24 119.36 155.24 119.376 155.24 119.376C155.24 119.376 155.224 119.376 155.192 119.376H151.688C151.656 119.376 151.64 119.376 151.64 119.376C151.64 119.376 151.64 119.36 151.64 119.328V115.824C151.64 115.792 151.64 115.776 151.64 115.776C151.64 115.776 151.656 115.776 151.688 115.776ZM156.488 115.776H159.992C160.024 115.776 160.04 115.776 160.04 115.776C160.04 115.776 160.04 115.792 160.04 115.824V119.328C160.04 119.36 160.04 119.376 160.04 119.376C160.04 119.376 160.024 119.376 159.992 119.376H156.488C156.456 119.376 156.44 119.376 156.44 119.376C156.44 119.376 156.44 119.36 156.44 119.328V115.824C156.44 115.792 156.44 115.776 156.44 115.776C156.44 115.776 156.456 115.776 156.488 115.776ZM203.509 86.976H207.013C207.045 86.976 207.061 86.976 207.061 86.976C207.061 86.976 207.061 86.992 207.061 87.024V90.528C207.061 90.56 207.061 90.576 207.061 90.576C207.061 90.576 207.045 90.576 207.013 90.576H203.509C203.477 90.576 203.461 90.576 203.461 90.576C203.461 90.576 203.461 90.56 203.461 90.528V87.024C203.461 86.992 203.461 86.976 203.461 86.976C203.461 86.976 203.477 86.976 203.509 86.976ZM222.709 86.976H226.213C226.245 86.976 226.261 86.976 226.261 86.976C226.261 86.976 226.261 86.992 226.261 87.024V90.528C226.261 90.56 226.261 90.576 226.261 90.576C226.261 90.576 226.245 90.576 226.213 90.576H222.709C222.677 90.576 222.661 90.576 222.661 90.576C222.661 90.576 222.661 90.56 222.661 90.528V87.024C222.661 86.992 222.661 86.976 222.661 86.976C222.661 86.976 222.677 86.976 222.709 86.976ZM203.509 91.776H207.013C207.045 91.776 207.061 91.776 207.061 91.776C207.061 91.776 207.061 91.792 207.061 91.824V95.328C207.061 95.36 207.061 95.376 207.061 95.376C207.061 95.376 207.045 95.376 207.013 95.376H203.509C203.477 95.376 203.461 95.376 203.461 95.376C203.461 95.376 203.461 95.36 203.461 95.328V91.824C203.461 91.792 203.461 91.776 203.461 91.776C203.461 91.776 203.477 91.776 203.509 91.776ZM222.709 91.776H226.213C226.245 91.776 226.261 91.776 226.261 91.776C226.261 91.776 226.261 91.792 226.261 91.824V95.328C226.261 95.36 226.261 95.376 226.261 95.376C226.261 95.376 226.245 95.376 226.213 95.376H222.709C222.677 95.376 222.661 95.376 222.661 95.376C222.661 95.376 222.661 95.36 222.661 95.328V91.824C222.661 91.792 222.661 91.776 222.661 91.776C222.661 91.776 222.677 91.776 222.709 91.776ZM203.509 96.576H207.013C207.045 96.576 207.061 96.576 207.061 96.576C207.061 96.576 207.061 96.592 207.061 96.624V100.128C207.061 100.16 207.061 100.176 207.061 100.176C207.061 100.176 207.045 100.176 207.013 100.176H203.509C203.477 100.176 203.461 100.176 203.461 100.176C203.461 100.176 203.461 100.16 203.461 100.128V96.624C203.461 96.592 203.461 96.576 203.461 96.576C203.461 96.576 203.477 96.576 203.509 96.576ZM222.709 96.576H226.213C226.245 96.576 226.261 96.576 226.261 96.576C226.261 96.576 226.261 96.592 226.261 96.624V100.128C226.261 100.16 226.261 100.176 226.261 100.176C226.261 100.176 226.245 100.176 226.213 100.176H222.709C222.677 100.176 222.661 100.176 222.661 100.176C222.661 100.176 222.661 100.16 222.661 100.128V96.624C222.661 96.592 222.661 96.576 222.661 96.576C222.661 96.576 222.677 96.576 222.709 96.576ZM203.509 101.376H207.013C207.045 101.376 207.061 101.376 207.061 101.376C207.061 101.376 207.061 101.392 207.061 101.424V104.928C207.061 104.96 207.061 104.976 207.061 104.976C207.061 104.976 207.045 104.976 207.013 104.976H203.509C203.477 104.976 203.461 104.976 203.461 104.976C203.461 104.976 203.461 104.96 203.461 104.928V101.424C203.461 101.392 203.461 101.376 203.461 101.376C203.461 101.376 203.477 101.376 203.509 101.376ZM222.709 101.376H226.213C226.245 101.376 226.261 101.376 226.261 101.376C226.261 101.376 226.261 101.392 226.261 101.424V104.928C226.261 104.96 226.261 104.976 226.261 104.976C226.261 104.976 226.245 104.976 226.213 104.976H222.709C222.677 104.976 222.661 104.976 222.661 104.976C222.661 104.976 222.661 104.96 222.661 104.928V101.424C222.661 101.392 222.661 101.376 222.661 101.376C222.661 101.376 222.677 101.376 222.709 101.376ZM203.509 106.176H207.013C207.045 106.176 207.061 106.176 207.061 106.176C207.061 106.176 207.061 106.192 207.061 106.224V109.728C207.061 109.76 207.061 109.776 207.061 109.776C207.061 109.776 207.045 109.776 207.013 109.776H203.509C203.477 109.776 203.461 109.776 203.461 109.776C203.461 109.776 203.461 109.76 203.461 109.728V106.224C203.461 106.192 203.461 106.176 203.461 106.176C203.461 106.176 203.477 106.176 203.509 106.176ZM222.709 106.176H226.213C226.245 106.176 226.261 106.176 226.261 106.176C226.261 106.176 226.261 106.192 226.261 106.224V109.728C226.261 109.76 226.261 109.776 226.261 109.776C226.261 109.776 226.245 109.776 226.213 109.776H222.709C222.677 109.776 222.661 109.776 222.661 109.776C222.661 109.776 222.661 109.76 222.661 109.728V106.224C222.661 106.192 222.661 106.176 222.661 106.176C222.661 106.176 222.677 106.176 222.709 106.176ZM203.509 110.976H207.013C207.045 110.976 207.061 110.976 207.061 110.976C207.061 110.976 207.061 110.992 207.061 111.024V114.528C207.061 114.56 207.061 114.576 207.061 114.576C207.061 114.576 207.045 114.576 207.013 114.576H203.509C203.477 114.576 203.461 114.576 203.461 114.576C203.461 114.576 203.461 114.56 203.461 114.528V111.024C203.461 110.992 203.461 110.976 203.461 110.976C203.461 110.976 203.477 110.976 203.509 110.976ZM222.709 110.976H226.213C226.245 110.976 226.261 110.976 226.261 110.976C226.261 110.976 226.261 110.992 226.261 111.024V114.528C226.261 114.56 226.261 114.576 226.261 114.576C226.261 114.576 226.245 114.576 226.213 114.576H222.709C222.677 114.576 222.661 114.576 222.661 114.576C222.661 114.576 222.661 114.56 222.661 114.528V111.024C222.661 110.992 222.661 110.976 222.661 110.976C222.661 110.976 222.677 110.976 222.709 110.976ZM208.309 115.776H211.813C211.845 115.776 211.861 115.776 211.861 115.776C211.861 115.776 211.861 115.792 211.861 115.824V119.328C211.861 119.36 211.861 119.376 211.861 119.376C211.861 119.376 211.845 119.376 211.813 119.376H208.309C208.277 119.376 208.261 119.376 208.261 119.376C208.261 119.376 208.261 119.36 208.261 119.328V115.824C208.261 115.792 208.261 115.776 208.261 115.776C208.261 115.776 208.277 115.776 208.309 115.776ZM213.109 115.776H216.613C216.645 115.776 216.661 115.776 216.661 115.776C216.661 115.776 216.661 115.792 216.661 115.824V119.328C216.661 119.36 216.661 119.376 216.661 119.376C216.661 119.376 216.645 119.376 216.613 119.376H213.109C213.077 119.376 213.061 119.376 213.061 119.376C213.061 119.376 213.061 119.36 213.061 119.328V115.824C213.061 115.792 213.061 115.776 213.061 115.776C213.061 115.776 213.077 115.776 213.109 115.776ZM217.909 115.776H221.413C221.445 115.776 221.461 115.776 221.461 115.776C221.461 115.776 221.461 115.792 221.461 115.824V119.328C221.461 119.36 221.461 119.376 221.461 119.376C221.461 119.376 221.445 119.376 221.413 119.376H217.909C217.877 119.376 217.861 119.376 217.861 119.376C217.861 119.376 217.861 119.36 217.861 119.328V115.824C217.861 115.792 217.861 115.776 217.861 115.776C217.861 115.776 217.877 115.776 217.909 115.776ZM264.931 86.976H268.435C268.467 86.976 268.483 86.976 268.483 86.976C268.483 86.976 268.483 86.992 268.483 87.024V90.528C268.483 90.56 268.483 90.576 268.483 90.576C268.483 90.576 268.467 90.576 268.435 90.576H264.931C264.899 90.576 264.883 90.576 264.883 90.576C264.883 90.576 264.883 90.56 264.883 90.528V87.024C264.883 86.992 264.883 86.976 264.883 86.976C264.883 86.976 264.899 86.976 264.931 86.976ZM269.731 86.976H273.235C273.267 86.976 273.283 86.976 273.283 86.976C273.283 86.976 273.283 86.992 273.283 87.024V90.528C273.283 90.56 273.283 90.576 273.283 90.576C273.283 90.576 273.267 90.576 273.235 90.576H269.731C269.699 90.576 269.683 90.576 269.683 90.576C269.683 90.576 269.683 90.56 269.683 90.528V87.024C269.683 86.992 269.683 86.976 269.683 86.976C269.683 86.976 269.699 86.976 269.731 86.976ZM274.531 86.976H278.035C278.067 86.976 278.083 86.976 278.083 86.976C278.083 86.976 278.083 86.992 278.083 87.024V90.528C278.083 90.56 278.083 90.576 278.083 90.576C278.083 90.576 278.067 90.576 278.035 90.576H274.531C274.499 90.576 274.483 90.576 274.483 90.576C274.483 90.576 274.483 90.56 274.483 90.528V87.024C274.483 86.992 274.483 86.976 274.483 86.976C274.483 86.976 274.499 86.976 274.531 86.976ZM279.331 86.976H282.835C282.867 86.976 282.883 86.976 282.883 86.976C282.883 86.976 282.883 86.992 282.883 87.024V90.528C282.883 90.56 282.883 90.576 282.883 90.576C282.883 90.576 282.867 90.576 282.835 90.576H279.331C279.299 90.576 279.283 90.576 279.283 90.576C279.283 90.576 279.283 90.56 279.283 90.528V87.024C279.283 86.992 279.283 86.976 279.283 86.976C279.283 86.976 279.299 86.976 279.331 86.976ZM284.131 86.976H287.635C287.667 86.976 287.683 86.976 287.683 86.976C287.683 86.976 287.683 86.992 287.683 87.024V90.528C287.683 90.56 287.683 90.576 287.683 90.576C287.683 90.576 287.667 90.576 287.635 90.576H284.131C284.099 90.576 284.083 90.576 284.083 90.576C284.083 90.576 284.083 90.56 284.083 90.528V87.024C284.083 86.992 284.083 86.976 284.083 86.976C284.083 86.976 284.099 86.976 284.131 86.976ZM274.531 91.776H278.035C278.067 91.776 278.083 91.776 278.083 91.776C278.083 91.776 278.083 91.792 278.083 91.824V95.328C278.083 95.36 278.083 95.376 278.083 95.376C278.083 95.376 278.067 95.376 278.035 95.376H274.531C274.499 95.376 274.483 95.376 274.483 95.376C274.483 95.376 274.483 95.36 274.483 95.328V91.824C274.483 91.792 274.483 91.776 274.483 91.776C274.483 91.776 274.499 91.776 274.531 91.776ZM274.531 96.576H278.035C278.067 96.576 278.083 96.576 278.083 96.576C278.083 96.576 278.083 96.592 278.083 96.624V100.128C278.083 100.16 278.083 100.176 278.083 100.176C278.083 100.176 278.067 100.176 278.035 100.176H274.531C274.499 100.176 274.483 100.176 274.483 100.176C274.483 100.176 274.483 100.16 274.483 100.128V96.624C274.483 96.592 274.483 96.576 274.483 96.576C274.483 96.576 274.499 96.576 274.531 96.576ZM274.531 101.376H278.035C278.067 101.376 278.083 101.376 278.083 101.376C278.083 101.376 278.083 101.392 278.083 101.424V104.928C278.083 104.96 278.083 104.976 278.083 104.976C278.083 104.976 278.067 104.976 278.035 104.976H274.531C274.499 104.976 274.483 104.976 274.483 104.976C274.483 104.976 274.483 104.96 274.483 104.928V101.424C274.483 101.392 274.483 101.376 274.483 101.376C274.483 101.376 274.499 101.376 274.531 101.376ZM274.531 106.176H278.035C278.067 106.176 278.083 106.176 278.083 106.176C278.083 106.176 278.083 106.192 278.083 106.224V109.728C278.083 109.76 278.083 109.776 278.083 109.776C278.083 109.776 278.067 109.776 278.035 109.776H274.531C274.499 109.776 274.483 109.776 274.483 109.776C274.483 109.776 274.483 109.76 274.483 109.728V106.224C274.483 106.192 274.483 106.176 274.483 106.176C274.483 106.176 274.499 106.176 274.531 106.176ZM274.531 110.976H278.035C278.067 110.976 278.083 110.976 278.083 110.976C278.083 110.976 278.083 110.992 278.083 111.024V114.528C278.083 114.56 278.083 114.576 278.083 114.576C278.083 114.576 278.067 114.576 278.035 114.576H274.531C274.499 114.576 274.483 114.576 274.483 114.576C274.483 114.576 274.483 114.56 274.483 114.528V111.024C274.483 110.992 274.483 110.976 274.483 110.976C274.483 110.976 274.499 110.976 274.531 110.976ZM274.531 115.776H278.035C278.067 115.776 278.083 115.776 278.083 115.776C278.083 115.776 278.083 115.792 278.083 115.824V119.328C278.083 119.36 278.083 119.376 278.083 119.376C278.083 119.376 278.067 119.376 278.035 119.376H274.531C274.499 119.376 274.483 119.376 274.483 119.376C274.483 119.376 274.483 119.36 274.483 119.328V115.824C274.483 115.792 274.483 115.776 274.483 115.776C274.483 115.776 274.499 115.776 274.531 115.776Z" fill="white"/>
</svg>
