<svg width="909" height="132" viewBox="0 0 909 132" fill="none" xmlns="http://www.w3.org/2000/svg">
<path d="M0 77V1.48H11.52V77H0ZM15.36 77V1.48H26.88V77H15.36ZM30.72 77V1.48H34.56V77H30.72ZM38.4 77V1.48H42.24V77H38.4ZM53.76 77V1.48H57.6V77H53.76ZM61.5 77V1.48H73.02V77H61.5ZM76.86 77V1.48H80.7V77H76.86ZM84.54 77V1.48H88.38V77H84.54ZM99.9 77V1.48H103.74V77H99.9ZM107.58 77V1.48H119.1V77H107.58ZM123 77V1.48H126.84V77H123ZM130.68 77V1.48H134.52V77H130.68ZM138.36 77V1.48H149.88V77H138.36ZM153.72 77V1.48H165.24V77H153.72ZM176.76 77V1.48H180.6V77H176.76ZM184.5 77V1.48H188.34V77H184.5ZM192.18 77V1.48H196.02V77H192.18ZM199.86 77V1.48H211.38V77H199.86ZM215.22 77V1.48H226.74V77H215.22ZM238.26 77V1.48H242.1V77H238.26ZM246 77V1.48H249.84V77H246ZM253.68 77V1.48H265.2V77H253.68ZM269.04 77V1.48H272.88V77H269.04ZM284.4 77V1.48H295.92V77H284.4ZM299.76 77V1.48H303.6V77H299.76ZM307.5 77V1.48H319.02V77H307.5ZM322.86 77V1.48H326.7V77H322.86ZM330.54 77V1.48H334.38V77H330.54ZM345.9 77V1.48H349.74V77H345.9ZM353.58 77V1.48H365.1V77H353.58ZM369 77V1.48H372.84V77H369ZM376.68 77V1.48H388.2V77H376.68ZM392.04 77V1.48H395.88V77H392.04ZM399.72 77V1.48H411.24V77H399.72ZM422.76 77V1.48H426.6V77H422.76ZM430.5 77V1.48H434.34V77H430.5ZM438.18 77V1.48H449.7V77H438.18ZM453.54 77V1.48H465.06V77H453.54ZM468.9 77V1.48H472.74V77H468.9ZM484.26 77V1.48H488.1V77H484.26ZM492 77V1.48H503.52V77H492ZM507.36 77V1.48H511.2V77H507.36ZM515.04 77V1.48H518.88V77H515.04ZM530.4 77V1.48H534.24V77H530.4ZM538.08 77V1.48H549.6V77H538.08ZM553.5 77V1.48H557.34V77H553.5ZM561.18 77V1.48H572.7V77H561.18ZM576.54 77V1.48H580.38V77H576.54ZM584.22 77V1.48H595.74V77H584.22ZM607.26 77V1.48H611.1V77H607.26ZM615 77V1.48H618.84V77H615ZM622.68 77V1.48H634.2V77H622.68ZM638.04 77V1.48H641.88V77H638.04ZM653.4 77V1.48H664.92V77H653.4ZM668.76 77V1.48H672.6V77H668.76ZM676.5 77V1.48H688.02V77H676.5ZM691.86 77V1.48H695.7V77H691.86ZM699.54 77V1.48H703.38V77H699.54ZM714.9 77V1.48H718.74V77H714.9ZM722.58 77V1.48H734.1V77H722.58ZM738 77V1.48H741.84V77H738ZM745.68 77V1.48H749.52V77H745.68ZM753.36 77V1.48H764.88V77H753.36ZM768.72 77V1.48H772.56V77H768.72ZM784.08 77V1.48H795.6V77H784.08ZM799.5 77V1.48H811.02V77H799.5ZM814.86 77V1.48H818.7V77H814.86ZM822.54 77V1.48H834.06V77H822.54ZM837.9 77V1.48H841.74V77H837.9ZM853.26 77V1.48H857.1V77H853.26Z" fill="white"/>
<path d="M19.2455 86.976H22.7495C22.7815 86.976 22.7975 86.976 22.7975 86.976C22.7975 86.976 22.7975 86.992 22.7975 87.024V90.528C22.7975 90.56 22.7975 90.576 22.7975 90.576C22.7975 90.576 22.7815 90.576 22.7495 90.576H19.2455C19.2135 90.576 19.1975 90.576 19.1975 90.576C19.1975 90.576 19.1975 90.56 19.1975 90.528V87.024C19.1975 86.992 19.1975 86.976 19.1975 86.976C19.1975 86.976 19.2135 86.976 19.2455 86.976ZM38.4455 86.976H41.9495C41.9815 86.976 41.9975 86.976 41.9975 86.976C41.9975 86.976 41.9975 86.992 41.9975 87.024V90.528C41.9975 90.56 41.9975 90.576 41.9975 90.576C41.9975 90.576 41.9815 90.576 41.9495 90.576H38.4455C38.4135 90.576 38.3975 90.576 38.3975 90.576C38.3975 90.576 38.3975 90.56 38.3975 90.528V87.024C38.3975 86.992 38.3975 86.976 38.3975 86.976C38.3975 86.976 38.4135 86.976 38.4455 86.976ZM19.2455 91.776H22.7495C22.7815 91.776 22.7975 91.776 22.7975 91.776C22.7975 91.776 22.7975 91.792 22.7975 91.824V95.328C22.7975 95.36 22.7975 95.376 22.7975 95.376C22.7975 95.376 22.7815 95.376 22.7495 95.376H19.2455C19.2135 95.376 19.1975 95.376 19.1975 95.376C19.1975 95.376 19.1975 95.36 19.1975 95.328V91.824C19.1975 91.792 19.1975 91.776 19.1975 91.776C19.1975 91.776 19.2135 91.776 19.2455 91.776ZM38.4455 91.776H41.9495C41.9815 91.776 41.9975 91.776 41.9975 91.776C41.9975 91.776 41.9975 91.792 41.9975 91.824V95.328C41.9975 95.36 41.9975 95.376 41.9975 95.376C41.9975 95.376 41.9815 95.376 41.9495 95.376H38.4455C38.4135 95.376 38.3975 95.376 38.3975 95.376C38.3975 95.376 38.3975 95.36 38.3975 95.328V91.824C38.3975 91.792 38.3975 91.776 38.3975 91.776C38.3975 91.776 38.4135 91.776 38.4455 91.776ZM19.2455 96.576H22.7495C22.7815 96.576 22.7975 96.576 22.7975 96.576C22.7975 96.576 22.7975 96.592 22.7975 96.624V100.128C22.7975 100.16 22.7975 100.176 22.7975 100.176C22.7975 100.176 22.7815 100.176 22.7495 100.176H19.2455C19.2135 100.176 19.1975 100.176 19.1975 100.176C19.1975 100.176 19.1975 100.16 19.1975 100.128V96.624C19.1975 96.592 19.1975 96.576 19.1975 96.576C19.1975 96.576 19.2135 96.576 19.2455 96.576ZM24.0455 96.576H27.5495C27.5815 96.576 27.5975 96.576 27.5975 96.576C27.5975 96.576 27.5975 96.592 27.5975 96.624V100.128C27.5975 100.16 27.5975 100.176 27.5975 100.176C27.5975 100.176 27.5815 100.176 27.5495 100.176H24.0455C24.0135 100.176 23.9975 100.176 23.9975 100.176C23.9975 100.176 23.9975 100.16 23.9975 100.128V96.624C23.9975 96.592 23.9975 96.576 23.9975 96.576C23.9975 96.576 24.0135 96.576 24.0455 96.576ZM33.6455 96.576H37.1495C37.1815 96.576 37.1975 96.576 37.1975 96.576C37.1975 96.576 37.1975 96.592 37.1975 96.624V100.128C37.1975 100.16 37.1975 100.176 37.1975 100.176C37.1975 100.176 37.1815 100.176 37.1495 100.176H33.6455C33.6135 100.176 33.5975 100.176 33.5975 100.176C33.5975 100.176 33.5975 100.16 33.5975 100.128V96.624C33.5975 96.592 33.5975 96.576 33.5975 96.576C33.5975 96.576 33.6135 96.576 33.6455 96.576ZM38.4455 96.576H41.9495C41.9815 96.576 41.9975 96.576 41.9975 96.576C41.9975 96.576 41.9975 96.592 41.9975 96.624V100.128C41.9975 100.16 41.9975 100.176 41.9975 100.176C41.9975 100.176 41.9815 100.176 41.9495 100.176H38.4455C38.4135 100.176 38.3975 100.176 38.3975 100.176C38.3975 100.176 38.3975 100.16 38.3975 100.128V96.624C38.3975 96.592 38.3975 96.576 38.3975 96.576C38.3975 96.576 38.4135 96.576 38.4455 96.576ZM19.2455 101.376H22.7495C22.7815 101.376 22.7975 101.376 22.7975 101.376C22.7975 101.376 22.7975 101.392 22.7975 101.424V104.928C22.7975 104.96 22.7975 104.976 22.7975 104.976C22.7975 104.976 22.7815 104.976 22.7495 104.976H19.2455C19.2135 104.976 19.1975 104.976 19.1975 104.976C19.1975 104.976 19.1975 104.96 19.1975 104.928V101.424C19.1975 101.392 19.1975 101.376 19.1975 101.376C19.1975 101.376 19.2135 101.376 19.2455 101.376ZM28.8455 101.376H32.3495C32.3815 101.376 32.3975 101.376 32.3975 101.376C32.3975 101.376 32.3975 101.392 32.3975 101.424V104.928C32.3975 104.96 32.3975 104.976 32.3975 104.976C32.3975 104.976 32.3815 104.976 32.3495 104.976H28.8455C28.8135 104.976 28.7975 104.976 28.7975 104.976C28.7975 104.976 28.7975 104.96 28.7975 104.928V101.424C28.7975 101.392 28.7975 101.376 28.7975 101.376C28.7975 101.376 28.8135 101.376 28.8455 101.376ZM38.4455 101.376H41.9495C41.9815 101.376 41.9975 101.376 41.9975 101.376C41.9975 101.376 41.9975 101.392 41.9975 101.424V104.928C41.9975 104.96 41.9975 104.976 41.9975 104.976C41.9975 104.976 41.9815 104.976 41.9495 104.976H38.4455C38.4135 104.976 38.3975 104.976 38.3975 104.976C38.3975 104.976 38.3975 104.96 38.3975 104.928V101.424C38.3975 101.392 38.3975 101.376 38.3975 101.376C38.3975 101.376 38.4135 101.376 38.4455 101.376ZM19.2455 106.176H22.7495C22.7815 106.176 22.7975 106.176 22.7975 106.176C22.7975 106.176 22.7975 106.192 22.7975 106.224V109.728C22.7975 109.76 22.7975 109.776 22.7975 109.776C22.7975 109.776 22.7815 109.776 22.7495 109.776H19.2455C19.2135 109.776 19.1975 109.776 19.1975 109.776C19.1975 109.776 19.1975 109.76 19.1975 109.728V106.224C19.1975 106.192 19.1975 106.176 19.1975 106.176C19.1975 106.176 19.2135 106.176 19.2455 106.176ZM38.4455 106.176H41.9495C41.9815 106.176 41.9975 106.176 41.9975 106.176C41.9975 106.176 41.9975 106.192 41.9975 106.224V109.728C41.9975 109.76 41.9975 109.776 41.9975 109.776C41.9975 109.776 41.9815 109.776 41.9495 109.776H38.4455C38.4135 109.776 38.3975 109.776 38.3975 109.776C38.3975 109.776 38.3975 109.76 38.3975 109.728V106.224C38.3975 106.192 38.3975 106.176 38.3975 106.176C38.3975 106.176 38.4135 106.176 38.4455 106.176ZM19.2455 110.976H22.7495C22.7815 110.976 22.7975 110.976 22.7975 110.976C22.7975 110.976 22.7975 110.992 22.7975 111.024V114.528C22.7975 114.56 22.7975 114.576 22.7975 114.576C22.7975 114.576 22.7815 114.576 22.7495 114.576H19.2455C19.2135 114.576 19.1975 114.576 19.1975 114.576C19.1975 114.576 19.1975 114.56 19.1975 114.528V111.024C19.1975 110.992 19.1975 110.976 19.1975 110.976C19.1975 110.976 19.2135 110.976 19.2455 110.976ZM38.4455 110.976H41.9495C41.9815 110.976 41.9975 110.976 41.9975 110.976C41.9975 110.976 41.9975 110.992 41.9975 111.024V114.528C41.9975 114.56 41.9975 114.576 41.9975 114.576C41.9975 114.576 41.9815 114.576 41.9495 114.576H38.4455C38.4135 114.576 38.3975 114.576 38.3975 114.576C38.3975 114.576 38.3975 114.56 38.3975 114.528V111.024C38.3975 110.992 38.3975 110.976 38.3975 110.976C38.3975 110.976 38.4135 110.976 38.4455 110.976ZM19.2455 115.776H22.7495C22.7815 115.776 22.7975 115.776 22.7975 115.776C22.7975 115.776 22.7975 115.792 22.7975 115.824V119.328C22.7975 119.36 22.7975 119.376 22.7975 119.376C22.7975 119.376 22.7815 119.376 22.7495 119.376H19.2455C19.2135 119.376 19.1975 119.376 19.1975 119.376C19.1975 119.376 19.1975 119.36 19.1975 119.328V115.824C19.1975 115.792 19.1975 115.776 19.1975 115.776C19.1975 115.776 19.2135 115.776 19.2455 115.776ZM38.4455 115.776H41.9495C41.9815 115.776 41.9975 115.776 41.9975 115.776C41.9975 115.776 41.9975 115.792 41.9975 115.824V119.328C41.9975 119.36 41.9975 119.376 41.9975 119.376C41.9975 119.376 41.9815 119.376 41.9495 119.376H38.4455C38.4135 119.376 38.3975 119.376 38.3975 119.376C38.3975 119.376 38.3975 119.36 38.3975 119.328V115.824C38.3975 115.792 38.3975 115.776 38.3975 115.776C38.3975 115.776 38.4135 115.776 38.4455 115.776ZM90.2668 86.976H93.7708C93.8028 86.976 93.8188 86.976 93.8188 86.976C93.8188 86.976 93.8188 86.992 93.8188 87.024V90.528C93.8188 90.56 93.8188 90.576 93.8188 90.576C93.8188 90.576 93.8028 90.576 93.7708 90.576H90.2668C90.2348 90.576 90.2188 90.576 90.2188 90.576C90.2188 90.576 90.2188 90.56 90.2188 90.528V87.024C90.2188 86.992 90.2188 86.976 90.2188 86.976C90.2188 86.976 90.2348 86.976 90.2668 86.976ZM85.4668 91.776H88.9708C89.0028 91.776 89.0188 91.776 89.0188 91.776C89.0188 91.776 89.0188 91.792 89.0188 91.824V95.328C89.0188 95.36 89.0188 95.376 89.0188 95.376C89.0188 95.376 89.0028 95.376 88.9708 95.376H85.4668C85.4348 95.376 85.4188 95.376 85.4188 95.376C85.4188 95.376 85.4188 95.36 85.4188 95.328V91.824C85.4188 91.792 85.4188 91.776 85.4188 91.776C85.4188 91.776 85.4348 91.776 85.4668 91.776ZM95.0668 91.776H98.5708C98.6028 91.776 98.6188 91.776 98.6188 91.776C98.6188 91.776 98.6188 91.792 98.6188 91.824V95.328C98.6188 95.36 98.6188 95.376 98.6188 95.376C98.6188 95.376 98.6028 95.376 98.5708 95.376H95.0668C95.0348 95.376 95.0188 95.376 95.0188 95.376C95.0188 95.376 95.0188 95.36 95.0188 95.328V91.824C95.0188 91.792 95.0188 91.776 95.0188 91.776C95.0188 91.776 95.0348 91.776 95.0668 91.776ZM80.6668 96.576H84.1708C84.2028 96.576 84.2188 96.576 84.2188 96.576C84.2188 96.576 84.2188 96.592 84.2188 96.624V100.128C84.2188 100.16 84.2188 100.176 84.2188 100.176C84.2188 100.176 84.2028 100.176 84.1708 100.176H80.6668C80.6348 100.176 80.6188 100.176 80.6188 100.176C80.6188 100.176 80.6188 100.16 80.6188 100.128V96.624C80.6188 96.592 80.6188 96.576 80.6188 96.576C80.6188 96.576 80.6348 96.576 80.6668 96.576ZM99.8668 96.576H103.371C103.403 96.576 103.419 96.576 103.419 96.576C103.419 96.576 103.419 96.592 103.419 96.624V100.128C103.419 100.16 103.419 100.176 103.419 100.176C103.419 100.176 103.403 100.176 103.371 100.176H99.8668C99.8348 100.176 99.8188 100.176 99.8188 100.176C99.8188 100.176 99.8188 100.16 99.8188 100.128V96.624C99.8188 96.592 99.8188 96.576 99.8188 96.576C99.8188 96.576 99.8348 96.576 99.8668 96.576ZM80.6668 101.376H84.1708C84.2028 101.376 84.2188 101.376 84.2188 101.376C84.2188 101.376 84.2188 101.392 84.2188 101.424V104.928C84.2188 104.96 84.2188 104.976 84.2188 104.976C84.2188 104.976 84.2028 104.976 84.1708 104.976H80.6668C80.6348 104.976 80.6188 104.976 80.6188 104.976C80.6188 104.976 80.6188 104.96 80.6188 104.928V101.424C80.6188 101.392 80.6188 101.376 80.6188 101.376C80.6188 101.376 80.6348 101.376 80.6668 101.376ZM99.8668 101.376H103.371C103.403 101.376 103.419 101.376 103.419 101.376C103.419 101.376 103.419 101.392 103.419 101.424V104.928C103.419 104.96 103.419 104.976 103.419 104.976C103.419 104.976 103.403 104.976 103.371 104.976H99.8668C99.8348 104.976 99.8188 104.976 99.8188 104.976C99.8188 104.976 99.8188 104.96 99.8188 104.928V101.424C99.8188 101.392 99.8188 101.376 99.8188 101.376C99.8188 101.376 99.8348 101.376 99.8668 101.376ZM80.6668 106.176H84.1708C84.2028 106.176 84.2188 106.176 84.2188 106.176C84.2188 106.176 84.2188 106.192 84.2188 106.224V109.728C84.2188 109.76 84.2188 109.776 84.2188 109.776C84.2188 109.776 84.2028 109.776 84.1708 109.776H80.6668C80.6348 109.776 80.6188 109.776 80.6188 109.776C80.6188 109.776 80.6188 109.76 80.6188 109.728V106.224C80.6188 106.192 80.6188 106.176 80.6188 106.176C80.6188 106.176 80.6348 106.176 80.6668 106.176ZM85.4668 106.176H88.9708C89.0028 106.176 89.0188 106.176 89.0188 106.176C89.0188 106.176 89.0188 106.192 89.0188 106.224V109.728C89.0188 109.76 89.0188 109.776 89.0188 109.776C89.0188 109.776 89.0028 109.776 88.9708 109.776H85.4668C85.4348 109.776 85.4188 109.776 85.4188 109.776C85.4188 109.776 85.4188 109.76 85.4188 109.728V106.224C85.4188 106.192 85.4188 106.176 85.4188 106.176C85.4188 106.176 85.4348 106.176 85.4668 106.176ZM90.2668 106.176H93.7708C93.8028 106.176 93.8188 106.176 93.8188 106.176C93.8188 106.176 93.8188 106.192 93.8188 106.224V109.728C93.8188 109.76 93.8188 109.776 93.8188 109.776C93.8188 109.776 93.8028 109.776 93.7708 109.776H90.2668C90.2348 109.776 90.2188 109.776 90.2188 109.776C90.2188 109.776 90.2188 109.76 90.2188 109.728V106.224C90.2188 106.192 90.2188 106.176 90.2188 106.176C90.2188 106.176 90.2348 106.176 90.2668 106.176ZM95.0668 106.176H98.5708C98.6028 106.176 98.6188 106.176 98.6188 106.176C98.6188 106.176 98.6188 106.192 98.6188 106.224V109.728C98.6188 109.76 98.6188 109.776 98.6188 109.776C98.6188 109.776 98.6028 109.776 98.5708 109.776H95.0668C95.0348 109.776 95.0188 109.776 95.0188 109.776C95.0188 109.776 95.0188 109.76 95.0188 109.728V106.224C95.0188 106.192 95.0188 106.176 95.0188 106.176C95.0188 106.176 95.0348 106.176 95.0668 106.176ZM99.8668 106.176H103.371C103.403 106.176 103.419 106.176 103.419 106.176C103.419 106.176 103.419 106.192 103.419 106.224V109.728C103.419 109.76 103.419 109.776 103.419 109.776C103.419 109.776 103.403 109.776 103.371 109.776H99.8668C99.8348 109.776 99.8188 109.776 99.8188 109.776C99.8188 109.776 99.8188 109.76 99.8188 109.728V106.224C99.8188 106.192 99.8188 106.176 99.8188 106.176C99.8188 106.176 99.8348 106.176 99.8668 106.176ZM80.6668 110.976H84.1708C84.2028 110.976 84.2188 110.976 84.2188 110.976C84.2188 110.976 84.2188 110.992 84.2188 111.024V114.528C84.2188 114.56 84.2188 114.576 84.2188 114.576C84.2188 114.576 84.2028 114.576 84.1708 114.576H80.6668C80.6348 114.576 80.6188 114.576 80.6188 114.576C80.6188 114.576 80.6188 114.56 80.6188 114.528V111.024C80.6188 110.992 80.6188 110.976 80.6188 110.976C80.6188 110.976 80.6348 110.976 80.6668 110.976ZM99.8668 110.976H103.371C103.403 110.976 103.419 110.976 103.419 110.976C103.419 110.976 103.419 110.992 103.419 111.024V114.528C103.419 114.56 103.419 114.576 103.419 114.576C103.419 114.576 103.403 114.576 103.371 114.576H99.8668C99.8348 114.576 99.8188 114.576 99.8188 114.576C99.8188 114.576 99.8188 114.56 99.8188 114.528V111.024C99.8188 110.992 99.8188 110.976 99.8188 110.976C99.8188 110.976 99.8348 110.976 99.8668 110.976ZM80.6668 115.776H84.1708C84.2028 115.776 84.2188 115.776 84.2188 115.776C84.2188 115.776 84.2188 115.792 84.2188 115.824V119.328C84.2188 119.36 84.2188 119.376 84.2188 119.376C84.2188 119.376 84.2028 119.376 84.1708 119.376H80.6668C80.6348 119.376 80.6188 119.376 80.6188 119.376C80.6188 119.376 80.6188 119.36 80.6188 119.328V115.824C80.6188 115.792 80.6188 115.776 80.6188 115.776C80.6188 115.776 80.6348 115.776 80.6668 115.776ZM99.8668 115.776H103.371C103.403 115.776 103.419 115.776 103.419 115.776C103.419 115.776 103.419 115.792 103.419 115.824V119.328C103.419 119.36 103.419 119.376 103.419 119.376C103.419 119.376 103.403 119.376 103.371 119.376H99.8668C99.8348 119.376 99.8188 119.376 99.8188 119.376C99.8188 119.376 99.8188 119.36 99.8188 119.328V115.824C99.8188 115.792 99.8188 115.776 99.8188 115.776C99.8188 115.776 99.8348 115.776 99.8668 115.776ZM142.088 86.976H145.592C145.624 86.976 145.64 86.976 145.64 86.976C145.64 86.976 145.64 86.992 145.64 87.024V90.528C145.64 90.56 145.64 90.576 145.64 90.576C145.64 90.576 145.624 90.576 145.592 90.576H142.088C142.056 90.576 142.04 90.576 142.04 90.576C142.04 90.576 142.04 90.56 142.04 90.528V87.024C142.04 86.992 142.04 86.976 142.04 86.976C142.04 86.976 142.056 86.976 142.088 86.976ZM146.888 86.976H150.392C150.424 86.976 150.44 86.976 150.44 86.976C150.44 86.976 150.44 86.992 150.44 87.024V90.528C150.44 90.56 150.44 90.576 150.44 90.576C150.44 90.576 150.424 90.576 150.392 90.576H146.888C146.856 90.576 146.84 90.576 146.84 90.576C146.84 90.576 146.84 90.56 146.84 90.528V87.024C146.84 86.992 146.84 86.976 146.84 86.976C146.84 86.976 146.856 86.976 146.888 86.976ZM151.688 86.976H155.192C155.224 86.976 155.24 86.976 155.24 86.976C155.24 86.976 155.24 86.992 155.24 87.024V90.528C155.24 90.56 155.24 90.576 155.24 90.576C155.24 90.576 155.224 90.576 155.192 90.576H151.688C151.656 90.576 151.64 90.576 151.64 90.576C151.64 90.576 151.64 90.56 151.64 90.528V87.024C151.64 86.992 151.64 86.976 151.64 86.976C151.64 86.976 151.656 86.976 151.688 86.976ZM156.488 86.976H159.992C160.024 86.976 160.04 86.976 160.04 86.976C160.04 86.976 160.04 86.992 160.04 87.024V90.528C160.04 90.56 160.04 90.576 160.04 90.576C160.04 90.576 160.024 90.576 159.992 90.576H156.488C156.456 90.576 156.44 90.576 156.44 90.576C156.44 90.576 156.44 90.56 156.44 90.528V87.024C156.44 86.992 156.44 86.976 156.44 86.976C156.44 86.976 156.456 86.976 156.488 86.976ZM161.288 86.976H164.792C164.824 86.976 164.84 86.976 164.84 86.976C164.84 86.976 164.84 86.992 164.84 87.024V90.528C164.84 90.56 164.84 90.576 164.84 90.576C164.84 90.576 164.824 90.576 164.792 90.576H161.288C161.256 90.576 161.24 90.576 161.24 90.576C161.24 90.576 161.24 90.56 161.24 90.528V87.024C161.24 86.992 161.24 86.976 161.24 86.976C161.24 86.976 161.256 86.976 161.288 86.976ZM151.688 91.776H155.192C155.224 91.776 155.24 91.776 155.24 91.776C155.24 91.776 155.24 91.792 155.24 91.824V95.328C155.24 95.36 155.24 95.376 155.24 95.376C155.24 95.376 155.224 95.376 155.192 95.376H151.688C151.656 95.376 151.64 95.376 151.64 95.376C151.64 95.376 151.64 95.36 151.64 95.328V91.824C151.64 91.792 151.64 91.776 151.64 91.776C151.64 91.776 151.656 91.776 151.688 91.776ZM151.688 96.576H155.192C155.224 96.576 155.24 96.576 155.24 96.576C155.24 96.576 155.24 96.592 155.24 96.624V100.128C155.24 100.16 155.24 100.176 155.24 100.176C155.24 100.176 155.224 100.176 155.192 100.176H151.688C151.656 100.176 151.64 100.176 151.64 100.176C151.64 100.176 151.64 100.16 151.64 100.128V96.624C151.64 96.592 151.64 96.576 151.64 96.576C151.64 96.576 151.656 96.576 151.688 96.576ZM151.688 101.376H155.192C155.224 101.376 155.24 101.376 155.24 101.376C155.24 101.376 155.24 101.392 155.24 101.424V104.928C155.24 104.96 155.24 104.976 155.24 104.976C155.24 104.976 155.224 104.976 155.192 104.976H151.688C151.656 104.976 151.64 104.976 151.64 104.976C151.64 104.976 151.64 104.96 151.64 104.928V101.424C151.64 101.392 151.64 101.376 151.64 101.376C151.64 101.376 151.656 101.376 151.688 101.376ZM151.688 106.176H155.192C155.224 106.176 155.24 106.176 155.24 106.176C155.24 106.176 155.24 106.192 155.24 106.224V109.728C155.24 109.76 155.24 109.776 155.24 109.776C155.24 109.776 155.224 109.776 155.192 109.776H151.688C151.656 109.776 151.64 109.776 151.64 109.776C151.64 109.776 151.64 109.76 151.64 109.728V106.224C151.64 106.192 151.64 106.176 151.64 106.176C151.64 106.176 151.656 106.176 151.688 106.176ZM151.688 110.976H155.192C155.224 110.976 155.24 110.976 155.24 110.976C155.24 110.976 155.24 110.992 155.24 111.024V114.528C155.24 114.56 155.24 114.576 155.24 114.576C155.24 114.576 155.224 114.576 155.192 114.576H151.688C151.656 114.576 151.64 114.576 151.64 114.576C151.64 114.576 151.64 114.56 151.64 114.528V111.024C151.64 110.992 151.64 110.976 151.64 110.976C151.64 110.976 151.656 110.976 151.688 110.976ZM151.688 115.776H155.192C155.224 115.776 155.24 115.776 155.24 115.776C155.24 115.776 155.24 115.792 155.24 115.824V119.328C155.24 119.36 155.24 119.376 155.24 119.376C155.24 119.376 155.224 119.376 155.192 119.376H151.688C151.656 119.376 151.64 119.376 151.64 119.376C151.64 119.376 151.64 119.36 151.64 119.328V115.824C151.64 115.792 151.64 115.776 151.64 115.776C151.64 115.776 151.656 115.776 151.688 115.776ZM203.509 86.976H207.013C207.045 86.976 207.061 86.976 207.061 86.976C207.061 86.976 207.061 86.992 207.061 87.024V90.528C207.061 90.56 207.061 90.576 207.061 90.576C207.061 90.576 207.045 90.576 207.013 90.576H203.509C203.477 90.576 203.461 90.576 203.461 90.576C203.461 90.576 203.461 90.56 203.461 90.528V87.024C203.461 86.992 203.461 86.976 203.461 86.976C203.461 86.976 203.477 86.976 203.509 86.976ZM208.309 86.976H211.813C211.845 86.976 211.861 86.976 211.861 86.976C211.861 86.976 211.861 86.992 211.861 87.024V90.528C211.861 90.56 211.861 90.576 211.861 90.576C211.861 90.576 211.845 90.576 211.813 90.576H208.309C208.277 90.576 208.261 90.576 208.261 90.576C208.261 90.576 208.261 90.56 208.261 90.528V87.024C208.261 86.992 208.261 86.976 208.261 86.976C208.261 86.976 208.277 86.976 208.309 86.976ZM213.109 86.976H216.613C216.645 86.976 216.661 86.976 216.661 86.976C216.661 86.976 216.661 86.992 216.661 87.024V90.528C216.661 90.56 216.661 90.576 216.661 90.576C216.661 90.576 216.645 90.576 216.613 90.576H213.109C213.077 90.576 213.061 90.576 213.061 90.576C213.061 90.576 213.061 90.56 213.061 90.528V87.024C213.061 86.992 213.061 86.976 213.061 86.976C213.061 86.976 213.077 86.976 213.109 86.976ZM217.909 86.976H221.413C221.445 86.976 221.461 86.976 221.461 86.976C221.461 86.976 221.461 86.992 221.461 87.024V90.528C221.461 90.56 221.461 90.576 221.461 90.576C221.461 90.576 221.445 90.576 221.413 90.576H217.909C217.877 90.576 217.861 90.576 217.861 90.576C217.861 90.576 217.861 90.56 217.861 90.528V87.024C217.861 86.992 217.861 86.976 217.861 86.976C217.861 86.976 217.877 86.976 217.909 86.976ZM222.709 86.976H226.213C226.245 86.976 226.261 86.976 226.261 86.976C226.261 86.976 226.261 86.992 226.261 87.024V90.528C226.261 90.56 226.261 90.576 226.261 90.576C226.261 90.576 226.245 90.576 226.213 90.576H222.709C222.677 90.576 222.661 90.576 222.661 90.576C222.661 90.576 222.661 90.56 222.661 90.528V87.024C222.661 86.992 222.661 86.976 222.661 86.976C222.661 86.976 222.677 86.976 222.709 86.976ZM213.109 91.776H216.613C216.645 91.776 216.661 91.776 216.661 91.776C216.661 91.776 216.661 91.792 216.661 91.824V95.328C216.661 95.36 216.661 95.376 216.661 95.376C216.661 95.376 216.645 95.376 216.613 95.376H213.109C213.077 95.376 213.061 95.376 213.061 95.376C213.061 95.376 213.061 95.36 213.061 95.328V91.824C213.061 91.792 213.061 91.776 213.061 91.776C213.061 91.776 213.077 91.776 213.109 91.776ZM213.109 96.576H216.613C216.645 96.576 216.661 96.576 216.661 96.576C216.661 96.576 216.661 96.592 216.661 96.624V100.128C216.661 100.16 216.661 100.176 216.661 100.176C216.661 100.176 216.645 100.176 216.613 100.176H213.109C213.077 100.176 213.061 100.176 213.061 100.176C213.061 100.176 213.061 100.16 213.061 100.128V96.624C213.061 96.592 213.061 96.576 213.061 96.576C213.061 96.576 213.077 96.576 213.109 96.576ZM213.109 101.376H216.613C216.645 101.376 216.661 101.376 216.661 101.376C216.661 101.376 216.661 101.392 216.661 101.424V104.928C216.661 104.96 216.661 104.976 216.661 104.976C216.661 104.976 216.645 104.976 216.613 104.976H213.109C213.077 104.976 213.061 104.976 213.061 104.976C213.061 104.976 213.061 104.96 213.061 104.928V101.424C213.061 101.392 213.061 101.376 213.061 101.376C213.061 101.376 213.077 101.376 213.109 101.376ZM213.109 106.176H216.613C216.645 106.176 216.661 106.176 216.661 106.176C216.661 106.176 216.661 106.192 216.661 106.224V109.728C216.661 109.76 216.661 109.776 216.661 109.776C216.661 109.776 216.645 109.776 216.613 109.776H213.109C213.077 109.776 213.061 109.776 213.061 109.776C213.061 109.776 213.061 109.76 213.061 109.728V106.224C213.061 106.192 213.061 106.176 213.061 106.176C213.061 106.176 213.077 106.176 213.109 106.176ZM213.109 110.976H216.613C216.645 110.976 216.661 110.976 216.661 110.976C216.661 110.976 216.661 110.992 216.661 111.024V114.528C216.661 114.56 216.661 114.576 216.661 114.576C216.661 114.576 216.645 114.576 216.613 114.576H213.109C213.077 114.576 213.061 114.576 213.061 114.576C213.061 114.576 213.061 114.56 213.061 114.528V111.024C213.061 110.992 213.061 110.976 213.061 110.976C213.061 110.976 213.077 110.976 213.109 110.976ZM213.109 115.776H216.613C216.645 115.776 216.661 115.776 216.661 115.776C216.661 115.776 216.661 115.792 216.661 115.824V119.328C216.661 119.36 216.661 119.376 216.661 119.376C216.661 119.376 216.645 119.376 216.613 119.376H213.109C213.077 119.376 213.061 119.376 213.061 119.376C213.061 119.376 213.061 119.36 213.061 119.328V115.824C213.061 115.792 213.061 115.776 213.061 115.776C213.061 115.776 213.077 115.776 213.109 115.776ZM269.731 86.976H273.235C273.267 86.976 273.283 86.976 273.283 86.976C273.283 86.976 273.283 86.992 273.283 87.024V90.528C273.283 90.56 273.283 90.576 273.283 90.576C273.283 90.576 273.267 90.576 273.235 90.576H269.731C269.699 90.576 269.683 90.576 269.683 90.576C269.683 90.576 269.683 90.56 269.683 90.528V87.024C269.683 86.992 269.683 86.976 269.683 86.976C269.683 86.976 269.699 86.976 269.731 86.976ZM274.531 86.976H278.035C278.067 86.976 278.083 86.976 278.083 86.976C278.083 86.976 278.083 86.992 278.083 87.024V90.528C278.083 90.56 278.083 90.576 278.083 90.576C278.083 90.576 278.067 90.576 278.035 90.576H274.531C274.499 90.576 274.483 90.576 274.483 90.576C274.483 90.576 274.483 90.56 274.483 90.528V87.024C274.483 86.992 274.483 86.976 274.483 86.976C274.483 86.976 274.499 86.976 274.531 86.976ZM279.331 86.976H282.835C282.867 86.976 282.883 86.976 282.883 86.976C282.883 86.976 282.883 86.992 282.883 87.024V90.528C282.883 90.56 282.883 90.576 282.883 90.576C282.883 90.576 282.867 90.576 282.835 90.576H279.331C279.299 90.576 279.283 90.576 279.283 90.576C279.283 90.576 279.283 90.56 279.283 90.528V87.024C279.283 86.992 279.283 86.976 279.283 86.976C279.283 86.976 279.299 86.976 279.331 86.976ZM274.531 91.776H278.035C278.067 91.776 278.083 91.776 278.083 91.776C278.083 91.776 278.083 91.792 278.083 91.824V95.328C278.083 95.36 278.083 95.376 278.083 95.376C278.083 95.376 278.067 95.376 278.035 95.376H274.531C274.499 95.376 274.483 95.376 274.483 95.376C274.483 95.376 274.483 95.36 274.483 95.328V91.824C274.483 91.792 274.483 91.776 274.483 91.776C274.483 91.776 274.499 91.776 274.531 91.776ZM274.531 96.576H278.035C278.067 96.576 278.083 96.576 278.083 96.576C278.083 96.576 278.083 96.592 278.083 96.624V100.128C278.083 100.16 278.083 100.176 278.083 100.176C278.083 100.176 278.067 100.176 278.035 100.176H274.531C274.499 100.176 274.483 100.176 274.483 100.176C274.483 100.176 274.483 100.16 274.483 100.128V96.624C274.483 96.592 274.483 96.576 274.483 96.576C274.483 96.576 274.499 96.576 274.531 96.576ZM274.531 101.376H278.035C278.067 101.376 278.083 101.376 278.083 101.376C278.083 101.376 278.083 101.392 278.083 101.424V104.928C278.083 104.96 278.083 104.976 278.083 104.976C278.083 104.976 278.067 104.976 278.035 104.976H274.531C274.499 104.976 274.483 104.976 274.483 104.976C274.483 104.976 274.483 104.96 274.483 104.928V101.424C274.483 101.392 274.483 101.376 274.483 101.376C274.483 101.376 274.499 101.376 274.531 101.376ZM274.531 106.176H278.035C278.067 106.176 278.083 106.176 278.083 106.176C278.083 106.176 278.083 106.192 278.083 106.224V109.728C278.083 109.76 278.083 109.776 278.083 109.776C278.083 109.776 278.067 109.776 278.035 109.776H274.531C274.499 109.776 274.483 109.776 274.483 109.776C274.483 109.776 274.483 109.76 274.483 109.728V106.224C274.483 106.192 274.483 106.176 274.483 106.176C274.483 106.176 274.499 106.176 274.531 106.176ZM274.531 110.976H278.035C278.067 110.976 278.083 110.976 278.083 110.976C278.083 110.976 278.083 110.992 278.083 111.024V114.528C278.083 114.56 278.083 114.576 278.083 114.576C278.083 114.576 278.067 114.576 278.035 114.576H274.531C274.499 114.576 274.483 114.576 274.483 114.576C274.483 114.576 274.483 114.56 274.483 114.528V111.024C274.483 110.992 274.483 110.976 274.483 110.976C274.483 110.976 274.499 110.976 274.531 110.976ZM269.731 115.776H273.235C273.267 115.776 273.283 115.776 273.283 115.776C273.283 115.776 273.283 115.792 273.283 115.824V119.328C273.283 119.36 273.283 119.376 273.283 119.376C273.283 119.376 273.267 119.376 273.235 119.376H269.731C269.699 119.376 269.683 119.376 269.683 119.376C269.683 119.376 269.683 119.36 269.683 119.328V115.824C269.683 115.792 269.683 115.776 269.683 115.776C269.683 115.776 269.699 115.776 269.731 115.776ZM274.531 115.776H278.035C278.067 115.776 278.083 115.776 278.083 115.776C278.083 115.776 278.083 115.792 278.083 115.824V119.328C278.083 119.36 278.083 119.376 278.083 119.376C278.083 119.376 278.067 119.376 278.035 119.376H274.531C274.499 119.376 274.483 119.376 274.483 119.376C274.483 119.376 274.483 119.36 274.483 119.328V115.824C274.483 115.792 274.483 115.776 274.483 115.776C274.483 115.776 274.499 115.776 274.531 115.776ZM279.331 115.776H282.835C282.867 115.776 282.883 115.776 282.883 115.776C282.883 115.776 282.883 115.792 282.883 115.824V119.328C282.883 119.36 282.883 119.376 282.883 119.376C282.883 119.376 282.867 119.376 282.835 119.376H279.331C279.299 119.376 279.283 119.376 279.283 119.376C279.283 119.376 279.283 119.36 279.283 119.328V115.824C279.283 115.792 279.283 115.776 279.283 115.776C279.283 115.776 279.299 115.776 279.331 115.776ZM335.952 86.976H339.456C339.488 86.976 339.504 86.976 339.504 86.976C339.504 86.976 339.504 86.992 339.504 87.024V90.528C339.504 90.56 339.504 90.576 339.504 90.576C339.504 90.576 339.488 90.576 339.456 90.576H335.952C335.92 90.576 335.904 90.576 335.904 90.576C335.904 90.576 335.904 90.56 335.904 90.528V87.024C335.904 86.992 335.904 86.976 335.904 86.976C335.904 86.976 335.92 86.976 335.952 86.976ZM331.152 91.776H334.656C334.688 91.776 334.704 91.776 334.704 91.776C334.704 91.776 334.704 91.792 334.704 91.824V95.328C334.704 95.36 334.704 95.376 334.704 95.376C334.704 95.376 334.688 95.376 334.656 95.376H331.152C331.12 95.376 331.104 95.376 331.104 95.376C331.104 95.376 331.104 95.36 331.104 95.328V91.824C331.104 91.792 331.104 91.776 331.104 91.776C331.104 91.776 331.12 91.776 331.152 91.776ZM340.752 91.776H344.256C344.288 91.776 344.304 91.776 344.304 91.776C344.304 91.776 344.304 91.792 344.304 91.824V95.328C344.304 95.36 344.304 95.376 344.304 95.376C344.304 95.376 344.288 95.376 344.256 95.376H340.752C340.72 95.376 340.704 95.376 340.704 95.376C340.704 95.376 340.704 95.36 340.704 95.328V91.824C340.704 91.792 340.704 91.776 340.704 91.776C340.704 91.776 340.72 91.776 340.752 91.776ZM326.352 96.576H329.856C329.888 96.576 329.904 96.576 329.904 96.576C329.904 96.576 329.904 96.592 329.904 96.624V100.128C329.904 100.16 329.904 100.176 329.904 100.176C329.904 100.176 329.888 100.176 329.856 100.176H326.352C326.32 100.176 326.304 100.176 326.304 100.176C326.304 100.176 326.304 100.16 326.304 100.128V96.624C326.304 96.592 326.304 96.576 326.304 96.576C326.304 96.576 326.32 96.576 326.352 96.576ZM345.552 96.576H349.056C349.088 96.576 349.104 96.576 349.104 96.576C349.104 96.576 349.104 96.592 349.104 96.624V100.128C349.104 100.16 349.104 100.176 349.104 100.176C349.104 100.176 349.088 100.176 349.056 100.176H345.552C345.52 100.176 345.504 100.176 345.504 100.176C345.504 100.176 345.504 100.16 345.504 100.128V96.624C345.504 96.592 345.504 96.576 345.504 96.576C345.504 96.576 345.52 96.576 345.552 96.576ZM326.352 101.376H329.856C329.888 101.376 329.904 101.376 329.904 101.376C329.904 101.376 329.904 101.392 329.904 101.424V104.928C329.904 104.96 329.904 104.976 329.904 104.976C329.904 104.976 329.888 104.976 329.856 104.976H326.352C326.32 104.976 326.304 104.976 326.304 104.976C326.304 104.976 326.304 104.96 326.304 104.928V101.424C326.304 101.392 326.304 101.376 326.304 101.376C326.304 101.376 326.32 101.376 326.352 101.376ZM345.552 101.376H349.056C349.088 101.376 349.104 101.376 349.104 101.376C349.104 101.376 349.104 101.392 349.104 101.424V104.928C349.104 104.96 349.104 104.976 349.104 104.976C349.104 104.976 349.088 104.976 349.056 104.976H345.552C345.52 104.976 345.504 104.976 345.504 104.976C345.504 104.976 345.504 104.96 345.504 104.928V101.424C345.504 101.392 345.504 101.376 345.504 101.376C345.504 101.376 345.52 101.376 345.552 101.376ZM326.352 106.176H329.856C329.888 106.176 329.904 106.176 329.904 106.176C329.904 106.176 329.904 106.192 329.904 106.224V109.728C329.904 109.76 329.904 109.776 329.904 109.776C329.904 109.776 329.888 109.776 329.856 109.776H326.352C326.32 109.776 326.304 109.776 326.304 109.776C326.304 109.776 326.304 109.76 326.304 109.728V106.224C326.304 106.192 326.304 106.176 326.304 106.176C326.304 106.176 326.32 106.176 326.352 106.176ZM331.152 106.176H334.656C334.688 106.176 334.704 106.176 334.704 106.176C334.704 106.176 334.704 106.192 334.704 106.224V109.728C334.704 109.76 334.704 109.776 334.704 109.776C334.704 109.776 334.688 109.776 334.656 109.776H331.152C331.12 109.776 331.104 109.776 331.104 109.776C331.104 109.776 331.104 109.76 331.104 109.728V106.224C331.104 106.192 331.104 106.176 331.104 106.176C331.104 106.176 331.12 106.176 331.152 106.176ZM335.952 106.176H339.456C339.488 106.176 339.504 106.176 339.504 106.176C339.504 106.176 339.504 106.192 339.504 106.224V109.728C339.504 109.76 339.504 109.776 339.504 109.776C339.504 109.776 339.488 109.776 339.456 109.776H335.952C335.92 109.776 335.904 109.776 335.904 109.776C335.904 109.776 335.904 109.76 335.904 109.728V106.224C335.904 106.192 335.904 106.176 335.904 106.176C335.904 106.176 335.92 106.176 335.952 106.176ZM340.752 106.176H344.256C344.288 106.176 344.304 106.176 344.304 106.176C344.304 106.176 344.304 106.192 344.304 106.224V109.728C344.304 109.76 344.304 109.776 344.304 109.776C344.304 109.776 344.288 109.776 344.256 109.776H340.752C340.72 109.776 340.704 109.776 340.704 109.776C340.704 109.776 340.704 109.76 340.704 109.728V106.224C340.704 106.192 340.704 106.176 340.704 106.176C340.704 106.176 340.72 106.176 340.752 106.176ZM345.552 106.176H349.056C349.088 106.176 349.104 106.176 349.104 106.176C349.104 106.176 349.104 106.192 349.104 106.224V109.728C349.104 109.76 349.104 109.776 349.104 109.776C349.104 109.776 349.088 109.776 349.056 109.776H345.552C345.52 109.776 345.504 109.776 345.504 109.776C345.504 109.776 345.504 109.76 345.504 109.728V106.224C345.504 106.192 345.504 106.176 345.504 106.176C345.504 106.176 345.52 106.176 345.552 106.176ZM326.352 110.976H329.856C329.888 110.976 329.904 110.976 329.904 110.976C329.904 110.976 329.904 110.992 329.904 111.024V114.528C329.904 114.56 329.904 114.576 329.904 114.576C329.904 114.576 329.888 114.576 329.856 114.576H326.352C326.32 114.576 326.304 114.576 326.304 114.576C326.304 114.576 326.304 114.56 326.304 114.528V111.024C326.304 110.992 326.304 110.976 326.304 110.976C326.304 110.976 326.32 110.976 326.352 110.976ZM345.552 110.976H349.056C349.088 110.976 349.104 110.976 349.104 110.976C349.104 110.976 349.104 110.992 349.104 111.024V114.528C349.104 114.56 349.104 114.576 349.104 114.576C349.104 114.576 349.088 114.576 349.056 114.576H345.552C345.52 114.576 345.504 114.576 345.504 114.576C345.504 114.576 345.504 114.56 345.504 114.528V111.024C345.504 110.992 345.504 110.976 345.504 110.976C345.504 110.976 345.52 110.976 345.552 110.976ZM326.352 115.776H329.856C329.888 115.776 329.904 115.776 329.904 115.776C329.904 115.776 329.904 115.792 329.904 115.824V119.328C329.904 119.36 329.904 119.376 329.904 119.376C329.904 119.376 329.888 119.376 329.856 119.376H326.352C326.32 119.376 326.304 119.376 326.304 119.376C326.304 119.376 326.304 119.36 326.304 119.328V115.824C326.304 115.792 326.304 115.776 326.304 115.776C326.304 115.776 326.32 115.776 326.352 115.776ZM345.552 115.776H349.056C349.088 115.776 349.104 115.776 349.104 115.776C349.104 115.776 349.104 115.792 349.104 115.824V119.328C349.104 119.36 349.104 119.376 349.104 119.376C349.104 119.376 349.088 119.376 349.056 119.376H345.552C345.52 119.376 345.504 119.376 345.504 119.376C345.504 119.376 345.504 119.36 345.504 119.328V115.824C345.504 115.792 345.504 115.776 345.504 115.776C345.504 115.776 345.52 115.776 345.552 115.776ZM392.573 86.976H396.077C396.109 86.976 396.125 86.976 396.125 86.976C396.125 86.976 396.125 86.992 396.125 87.024V90.528C396.125 90.56 396.125 90.576 396.125 90.576C396.125 90.576 396.109 90.576 396.077 90.576H392.573C392.541 90.576 392.525 90.576 392.525 90.576C392.525 90.576 392.525 90.56 392.525 90.528V87.024C392.525 86.992 392.525 86.976 392.525 86.976C392.525 86.976 392.541 86.976 392.573 86.976ZM397.373 86.976H400.877C400.909 86.976 400.925 86.976 400.925 86.976C400.925 86.976 400.925 86.992 400.925 87.024V90.528C400.925 90.56 400.925 90.576 400.925 90.576C400.925 90.576 400.909 90.576 400.877 90.576H397.373C397.341 90.576 397.325 90.576 397.325 90.576C397.325 90.576 397.325 90.56 397.325 90.528V87.024C397.325 86.992 397.325 86.976 397.325 86.976C397.325 86.976 397.341 86.976 397.373 86.976ZM402.173 86.976H405.677C405.709 86.976 405.725 86.976 405.725 86.976C405.725 86.976 405.725 86.992 405.725 87.024V90.528C405.725 90.56 405.725 90.576 405.725 90.576C405.725 90.576 405.709 90.576 405.677 90.576H402.173C402.141 90.576 402.125 90.576 402.125 90.576C402.125 90.576 402.125 90.56 402.125 90.528V87.024C402.125 86.992 402.125 86.976 402.125 86.976C402.125 86.976 402.141 86.976 402.173 86.976ZM387.773 91.776H391.277C391.309 91.776 391.325 91.776 391.325 91.776C391.325 91.776 391.325 91.792 391.325 91.824V95.328C391.325 95.36 391.325 95.376 391.325 95.376C391.325 95.376 391.309 95.376 391.277 95.376H387.773C387.741 95.376 387.725 95.376 387.725 95.376C387.725 95.376 387.725 95.36 387.725 95.328V91.824C387.725 91.792 387.725 91.776 387.725 91.776C387.725 91.776 387.741 91.776 387.773 91.776ZM406.973 91.776H410.477C410.509 91.776 410.525 91.776 410.525 91.776C410.525 91.776 410.525 91.792 410.525 91.824V95.328C410.525 95.36 410.525 95.376 410.525 95.376C410.525 95.376 410.509 95.376 410.477 95.376H406.973C406.941 95.376 406.925 95.376 406.925 95.376C406.925 95.376 406.925 95.36 406.925 95.328V91.824C406.925 91.792 406.925 91.776 406.925 91.776C406.925 91.776 406.941 91.776 406.973 91.776ZM387.773 96.576H391.277C391.309 96.576 391.325 96.576 391.325 96.576C391.325 96.576 391.325 96.592 391.325 96.624V100.128C391.325 100.16 391.325 100.176 391.325 100.176C391.325 100.176 391.309 100.176 391.277 100.176H387.773C387.741 100.176 387.725 100.176 387.725 100.176C387.725 100.176 387.725 100.16 387.725 100.128V96.624C387.725 96.592 387.725 96.576 387.725 96.576C387.725 96.576 387.741 96.576 387.773 96.576ZM392.573 101.376H396.077C396.109 101.376 396.125 101.376 396.125 101.376C396.125 101.376 396.125 101.392 396.125 101.424V104.928C396.125 104.96 396.125 104.976 396.125 104.976C396.125 104.976 396.109 104.976 396.077 104.976H392.573C392.541 104.976 392.525 104.976 392.525 104.976C392.525 104.976 392.525 104.96 392.525 104.928V101.424C392.525 101.392 392.525 101.376 392.525 101.376C392.525 101.376 392.541 101.376 392.573 101.376ZM397.373 101.376H400.877C400.909 101.376 400.925 101.376 400.925 101.376C400.925 101.376 400.925 101.392 400.925 101.424V104.928C400.925 104.96 400.925 104.976 400.925 104.976C400.925 104.976 400.909 104.976 400.877 104.976H397.373C397.341 104.976 397.325 104.976 397.325 104.976C397.325 104.976 397.325 104.96 397.325 104.928V101.424C397.325 101.392 397.325 101.376 397.325 101.376C397.325 101.376 397.341 101.376 397.373 101.376ZM402.173 101.376H405.677C405.709 101.376 405.725 101.376 405.725 101.376C405.725 101.376 405.725 101.392 405.725 101.424V104.928C405.725 104.96 405.725 104.976 405.725 104.976C405.725 104.976 405.709 104.976 405.677 104.976H402.173C402.141 104.976 402.125 104.976 402.125 104.976C402.125 104.976 402.125 104.96 402.125 104.928V101.424C402.125 101.392 402.125 101.376 402.125 101.376C402.125 101.376 402.141 101.376 402.173 101.376ZM406.973 106.176H410.477C410.509 106.176 410.525 106.176 410.525 106.176C410.525 106.176 410.525 106.192 410.525 106.224V109.728C410.525 109.76 410.525 109.776 410.525 109.776C410.525 109.776 410.509 109.776 410.477 109.776H406.973C406.941 109.776 406.925 109.776 406.925 109.776C406.925 109.776 406.925 109.76 406.925 109.728V106.224C406.925 106.192 406.925 106.176 406.925 106.176C406.925 106.176 406.941 106.176 406.973 106.176ZM387.773 110.976H391.277C391.309 110.976 391.325 110.976 391.325 110.976C391.325 110.976 391.325 110.992 391.325 111.024V114.528C391.325 114.56 391.325 114.576 391.325 114.576C391.325 114.576 391.309 114.576 391.277 114.576H387.773C387.741 114.576 387.725 114.576 387.725 114.576C387.725 114.576 387.725 114.56 387.725 114.528V111.024C387.725 110.992 387.725 110.976 387.725 110.976C387.725 110.976 387.741 110.976 387.773 110.976ZM406.973 110.976H410.477C410.509 110.976 410.525 110.976 410.525 110.976C410.525 110.976 410.525 110.992 410.525 111.024V114.528C410.525 114.56 410.525 114.576 410.525 114.576C410.525 114.576 410.509 114.576 410.477 114.576H406.973C406.941 114.576 406.925 114.576 406.925 114.576C406.925 114.576 406.925 114.56 406.925 114.528V111.024C406.925 110.992 406.925 110.976 406.925 110.976C406.925 110.976 406.941 110.976 406.973 110.976ZM392.573 115.776H396.077C396.109 115.776 396.125 115.776 396.125 115.776C396.125 115.776 396.125 115.792 396.125 115.824V119.328C396.125 119.36 396.125 119.376 396.125 119.376C396.125 119.376 396.109 119.376 396.077 119.376H392.573C392.541 119.376 392.525 119.376 392.525 119.376C392.525 119.376 392.525 119.36 392.525 119.328V115.824C392.525 115.792 392.525 115.776 392.525 115.776C392.525 115.776 392.541 115.776 392.573 115.776ZM397.373 115.776H400.877C400.909 115.776 400.925 115.776 400.925 115.776C400.925 115.776 400.925 115.792 400.925 115.824V119.328C400.925 119.36 400.925 119.376 400.925 119.376C400.925 119.376 400.909 119.376 400.877 119.376H397.373C397.341 119.376 397.325 119.376 397.325 119.376C397.325 119.376 397.325 119.36 397.325 119.328V115.824C397.325 115.792 397.325 115.776 397.325 115.776C397.325 115.776 397.341 115.776 397.373 115.776ZM402.173 115.776H405.677C405.709 115.776 405.725 115.776 405.725 115.776C405.725 115.776 405.725 115.792 405.725 115.824V119.328C405.725 119.36 405.725 119.376 405.725 119.376C405.725 119.376 405.709 119.376 405.677 119.376H402.173C402.141 119.376 402.125 119.376 402.125 119.376C402.125 119.376 402.125 119.36 402.125 119.328V115.824C402.125 115.792 402.125 115.776 402.125 115.776C402.125 115.776 402.141 115.776 402.173 115.776ZM449.194 86.976H452.698C452.73 86.976 452.746 86.976 452.746 86.976C452.746 86.976 452.746 86.992 452.746 87.024V90.528C452.746 90.56 452.746 90.576 452.746 90.576C452.746 90.576 452.73 90.576 452.698 90.576H449.194C449.162 90.576 449.146 90.576 449.146 90.576C449.146 90.576 449.146 90.56 449.146 90.528V87.024C449.146 86.992 449.146 86.976 449.146 86.976C449.146 86.976 449.162 86.976 449.194 86.976ZM453.994 86.976H457.498C457.53 86.976 457.546 86.976 457.546 86.976C457.546 86.976 457.546 86.992 457.546 87.024V90.528C457.546 90.56 457.546 90.576 457.546 90.576C457.546 90.576 457.53 90.576 457.498 90.576H453.994C453.962 90.576 453.946 90.576 453.946 90.576C453.946 90.576 453.946 90.56 453.946 90.528V87.024C453.946 86.992 453.946 86.976 453.946 86.976C453.946 86.976 453.962 86.976 453.994 86.976ZM458.794 86.976H462.298C462.33 86.976 462.346 86.976 462.346 86.976C462.346 86.976 462.346 86.992 462.346 87.024V90.528C462.346 90.56 462.346 90.576 462.346 90.576C462.346 90.576 462.33 90.576 462.298 90.576H458.794C458.762 90.576 458.746 90.576 458.746 90.576C458.746 90.576 458.746 90.56 458.746 90.528V87.024C458.746 86.992 458.746 86.976 458.746 86.976C458.746 86.976 458.762 86.976 458.794 86.976ZM463.594 86.976H467.098C467.13 86.976 467.146 86.976 467.146 86.976C467.146 86.976 467.146 86.992 467.146 87.024V90.528C467.146 90.56 467.146 90.576 467.146 90.576C467.146 90.576 467.13 90.576 467.098 90.576H463.594C463.562 90.576 463.546 90.576 463.546 90.576C463.546 90.576 463.546 90.56 463.546 90.528V87.024C463.546 86.992 463.546 86.976 463.546 86.976C463.546 86.976 463.562 86.976 463.594 86.976ZM449.194 91.776H452.698C452.73 91.776 452.746 91.776 452.746 91.776C452.746 91.776 452.746 91.792 452.746 91.824V95.328C452.746 95.36 452.746 95.376 452.746 95.376C452.746 95.376 452.73 95.376 452.698 95.376H449.194C449.162 95.376 449.146 95.376 449.146 95.376C449.146 95.376 449.146 95.36 449.146 95.328V91.824C449.146 91.792 449.146 91.776 449.146 91.776C449.146 91.776 449.162 91.776 449.194 91.776ZM468.394 91.776H471.898C471.93 91.776 471.946 91.776 471.946 91.776C471.946 91.776 471.946 91.792 471.946 91.824V95.328C471.946 95.36 471.946 95.376 471.946 95.376C471.946 95.376 471.93 95.376 471.898 95.376H468.394C468.362 95.376 468.346 95.376 468.346 95.376C468.346 95.376 468.346 95.36 468.346 95.328V91.824C468.346 91.792 468.346 91.776 468.346 91.776C468.346 91.776 468.362 91.776 468.394 91.776ZM449.194 96.576H452.698C452.73 96.576 452.746 96.576 452.746 96.576C452.746 96.576 452.746 96.592 452.746 96.624V100.128C452.746 100.16 452.746 100.176 452.746 100.176C452.746 100.176 452.73 100.176 452.698 100.176H449.194C449.162 100.176 449.146 100.176 449.146 100.176C449.146 100.176 449.146 100.16 449.146 100.128V96.624C449.146 96.592 449.146 96.576 449.146 96.576C449.146 96.576 449.162 96.576 449.194 96.576ZM468.394 96.576H471.898C471.93 96.576 471.946 96.576 471.946 96.576C471.946 96.576 471.946 96.592 471.946 96.624V100.128C471.946 100.16 471.946 100.176 471.946 100.176C471.946 100.176 471.93 100.176 471.898 100.176H468.394C468.362 100.176 468.346 100.176 468.346 100.176C468.346 100.176 468.346 100.16 468.346 100.128V96.624C468.346 96.592 468.346 96.576 468.346 96.576C468.346 96.576 468.362 96.576 468.394 96.576ZM449.194 101.376H452.698C452.73 101.376 452.746 101.376 452.746 101.376C452.746 101.376 452.746 101.392 452.746 101.424V104.928C452.746 104.96 452.746 104.976 452.746 104.976C452.746 104.976 452.73 104.976 452.698 104.976H449.194C449.162 104.976 449.146 104.976 449.146 104.976C449.146 104.976 449.146 104.96 449.146 104.928V101.424C449.146 101.392 449.146 101.376 449.146 101.376C449.146 101.376 449.162 101.376 449.194 101.376ZM453.994 101.376H457.498C457.53 101.376 457.546 101.376 457.546 101.376C457.546 101.376 457.546 101.392 457.546 101.424V104.928C457.546 104.96 457.546 104.976 457.546 104.976C457.546 104.976 457.53 104.976 457.498 104.976H453.994C453.962 104.976 453.946 104.976 453.946 104.976C453.946 104.976 453.946 104.96 453.946 104.928V101.424C453.946 101.392 453.946 101.376 453.946 101.376C453.946 101.376 453.962 101.376 453.994 101.376ZM458.794 101.376H462.298C462.33 101.376 462.346 101.376 462.346 101.376C462.346 101.376 462.346 101.392 462.346 101.424V104.928C462.346 104.96 462.346 104.976 462.346 104.976C462.346 104.976 462.33 104.976 462.298 104.976H458.794C458.762 104.976 458.746 104.976 458.746 104.976C458.746 104.976 458.746 104.96 458.746 104.928V101.424C458.746 101.392 458.746 101.376 458.746 101.376C458.746 101.376 458.762 101.376 458.794 101.376ZM463.594 101.376H467.098C467.13 101.376 467.146 101.376 467.146 101.376C467.146 101.376 467.146 101.392 467.146 101.424V104.928C467.146 104.96 467.146 104.976 467.146 104.976C467.146 104.976 467.13 104.976 467.098 104.976H463.594C463.562 104.976 463.546 104.976 463.546 104.976C463.546 104.976 463.546 104.96 463.546 104.928V101.424C463.546 101.392 463.546 101.376 463.546 101.376C463.546 101.376 463.562 101.376 463.594 101.376ZM449.194 106.176H452.698C452.73 106.176 452.746 106.176 452.746 106.176C452.746 106.176 452.746 106.192 452.746 106.224V109.728C452.746 109.76 452.746 109.776 452.746 109.776C452.746 109.776 452.73 109.776 452.698 109.776H449.194C449.162 109.776 449.146 109.776 449.146 109.776C449.146 109.776 449.146 109.76 449.146 109.728V106.224C449.146 106.192 449.146 106.176 449.146 106.176C449.146 106.176 449.162 106.176 449.194 106.176ZM449.194 110.976H452.698C452.73 110.976 452.746 110.976 452.746 110.976C452.746 110.976 452.746 110.992 452.746 111.024V114.528C452.746 114.56 452.746 114.576 452.746 114.576C452.746 114.576 452.73 114.576 452.698 114.576H449.194C449.162 114.576 449.146 114.576 449.146 114.576C449.146 114.576 449.146 114.56 449.146 114.528V111.024C449.146 110.992 449.146 110.976 449.146 110.976C449.146 110.976 449.162 110.976 449.194 110.976ZM449.194 115.776H452.698C452.73 115.776 452.746 115.776 452.746 115.776C452.746 115.776 452.746 115.792 452.746 115.824V119.328C452.746 119.36 452.746 119.376 452.746 119.376C452.746 119.376 452.73 119.376 452.698 119.376H449.194C449.162 119.376 449.146 119.376 449.146 119.376C449.146 119.376 449.146 119.36 449.146 119.328V115.824C449.146 115.792 449.146 115.776 449.146 115.776C449.146 115.776 449.162 115.776 449.194 115.776ZM520.216 86.976H523.72C523.752 86.976 523.768 86.976 523.768 86.976C523.768 86.976 523.768 86.992 523.768 87.024V90.528C523.768 90.56 523.768 90.576 523.768 90.576C523.768 90.576 523.752 90.576 523.72 90.576H520.216C520.184 90.576 520.168 90.576 520.168 90.576C520.168 90.576 520.168 90.56 520.168 90.528V87.024C520.168 86.992 520.168 86.976 520.168 86.976C520.168 86.976 520.184 86.976 520.216 86.976ZM515.416 91.776H518.92C518.952 91.776 518.968 91.776 518.968 91.776C518.968 91.776 518.968 91.792 518.968 91.824V95.328C518.968 95.36 518.968 95.376 518.968 95.376C518.968 95.376 518.952 95.376 518.92 95.376H515.416C515.384 95.376 515.368 95.376 515.368 95.376C515.368 95.376 515.368 95.36 515.368 95.328V91.824C515.368 91.792 515.368 91.776 515.368 91.776C515.368 91.776 515.384 91.776 515.416 91.776ZM525.016 91.776H528.52C528.552 91.776 528.568 91.776 528.568 91.776C528.568 91.776 528.568 91.792 528.568 91.824V95.328C528.568 95.36 528.568 95.376 528.568 95.376C528.568 95.376 528.552 95.376 528.52 95.376H525.016C524.984 95.376 524.968 95.376 524.968 95.376C524.968 95.376 524.968 95.36 524.968 95.328V91.824C524.968 91.792 524.968 91.776 524.968 91.776C524.968 91.776 524.984 91.776 525.016 91.776ZM510.616 96.576H514.12C514.152 96.576 514.168 96.576 514.168 96.576C514.168 96.576 514.168 96.592 514.168 96.624V100.128C514.168 100.16 514.168 100.176 514.168 100.176C514.168 100.176 514.152 100.176 514.12 100.176H510.616C510.584 100.176 510.568 100.176 510.568 100.176C510.568 100.176 510.568 100.16 510.568 100.128V96.624C510.568 96.592 510.568 96.576 510.568 96.576C510.568 96.576 510.584 96.576 510.616 96.576ZM529.816 96.576H533.32C533.352 96.576 533.368 96.576 533.368 96.576C533.368 96.576 533.368 96.592 533.368 96.624V100.128C533.368 100.16 533.368 100.176 533.368 100.176C533.368 100.176 533.352 100.176 533.32 100.176H529.816C529.784 100.176 529.768 100.176 529.768 100.176C529.768 100.176 529.768 100.16 529.768 100.128V96.624C529.768 96.592 529.768 96.576 529.768 96.576C529.768 96.576 529.784 96.576 529.816 96.576ZM510.616 101.376H514.12C514.152 101.376 514.168 101.376 514.168 101.376C514.168 101.376 514.168 101.392 514.168 101.424V104.928C514.168 104.96 514.168 104.976 514.168 104.976C514.168 104.976 514.152 104.976 514.12 104.976H510.616C510.584 104.976 510.568 104.976 510.568 104.976C510.568 104.976 510.568 104.96 510.568 104.928V101.424C510.568 101.392 510.568 101.376 510.568 101.376C510.568 101.376 510.584 101.376 510.616 101.376ZM529.816 101.376H533.32C533.352 101.376 533.368 101.376 533.368 101.376C533.368 101.376 533.368 101.392 533.368 101.424V104.928C533.368 104.96 533.368 104.976 533.368 104.976C533.368 104.976 533.352 104.976 533.32 104.976H529.816C529.784 104.976 529.768 104.976 529.768 104.976C529.768 104.976 529.768 104.96 529.768 104.928V101.424C529.768 101.392 529.768 101.376 529.768 101.376C529.768 101.376 529.784 101.376 529.816 101.376ZM510.616 106.176H514.12C514.152 106.176 514.168 106.176 514.168 106.176C514.168 106.176 514.168 106.192 514.168 106.224V109.728C514.168 109.76 514.168 109.776 514.168 109.776C514.168 109.776 514.152 109.776 514.12 109.776H510.616C510.584 109.776 510.568 109.776 510.568 109.776C510.568 109.776 510.568 109.76 510.568 109.728V106.224C510.568 106.192 510.568 106.176 510.568 106.176C510.568 106.176 510.584 106.176 510.616 106.176ZM515.416 106.176H518.92C518.952 106.176 518.968 106.176 518.968 106.176C518.968 106.176 518.968 106.192 518.968 106.224V109.728C518.968 109.76 518.968 109.776 518.968 109.776C518.968 109.776 518.952 109.776 518.92 109.776H515.416C515.384 109.776 515.368 109.776 515.368 109.776C515.368 109.776 515.368 109.76 515.368 109.728V106.224C515.368 106.192 515.368 106.176 515.368 106.176C515.368 106.176 515.384 106.176 515.416 106.176ZM520.216 106.176H523.72C523.752 106.176 523.768 106.176 523.768 106.176C523.768 106.176 523.768 106.192 523.768 106.224V109.728C523.768 109.76 523.768 109.776 523.768 109.776C523.768 109.776 523.752 109.776 523.72 109.776H520.216C520.184 109.776 520.168 109.776 520.168 109.776C520.168 109.776 520.168 109.76 520.168 109.728V106.224C520.168 106.192 520.168 106.176 520.168 106.176C520.168 106.176 520.184 106.176 520.216 106.176ZM525.016 106.176H528.52C528.552 106.176 528.568 106.176 528.568 106.176C528.568 106.176 528.568 106.192 528.568 106.224V109.728C528.568 109.76 528.568 109.776 528.568 109.776C528.568 109.776 528.552 109.776 528.52 109.776H525.016C524.984 109.776 524.968 109.776 524.968 109.776C524.968 109.776 524.968 109.76 524.968 109.728V106.224C524.968 106.192 524.968 106.176 524.968 106.176C524.968 106.176 524.984 106.176 525.016 106.176ZM529.816 106.176H533.32C533.352 106.176 533.368 106.176 533.368 106.176C533.368 106.176 533.368 106.192 533.368 106.224V109.728C533.368 109.76 533.368 109.776 533.368 109.776C533.368 109.776 533.352 109.776 533.32 109.776H529.816C529.784 109.776 529.768 109.776 529.768 109.776C529.768 109.776 529.768 109.76 529.768 109.728V106.224C529.768 106.192 529.768 106.176 529.768 106.176C529.768 106.176 529.784 106.176 529.816 106.176ZM510.616 110.976H514.12C514.152 110.976 514.168 110.976 514.168 110.976C514.168 110.976 514.168 110.992 514.168 111.024V114.528C514.168 114.56 514.168 114.576 514.168 114.576C514.168 114.576 514.152 114.576 514.12 114.576H510.616C510.584 114.576 510.568 114.576 510.568 114.576C510.568 114.576 510.568 114.56 510.568 114.528V111.024C510.568 110.992 510.568 110.976 510.568 110.976C510.568 110.976 510.584 110.976 510.616 110.976ZM529.816 110.976H533.32C533.352 110.976 533.368 110.976 533.368 110.976C533.368 110.976 533.368 110.992 533.368 111.024V114.528C533.368 114.56 533.368 114.576 533.368 114.576C533.368 114.576 533.352 114.576 533.32 114.576H529.816C529.784 114.576 529.768 114.576 529.768 114.576C529.768 114.576 529.768 114.56 529.768 114.528V111.024C529.768 110.992 529.768 110.976 529.768 110.976C529.768 110.976 529.784 110.976 529.816 110.976ZM510.616 115.776H514.12C514.152 115.776 514.168 115.776 514.168 115.776C514.168 115.776 514.168 115.792 514.168 115.824V119.328C514.168 119.36 514.168 119.376 514.168 119.376C514.168 119.376 514.152 119.376 514.12 119.376H510.616C510.584 119.376 510.568 119.376 510.568 119.376C510.568 119.376 510.568 119.36 510.568 119.328V115.824C510.568 115.792 510.568 115.776 510.568 115.776C510.568 115.776 510.584 115.776 510.616 115.776ZM529.816 115.776H533.32C533.352 115.776 533.368 115.776 533.368 115.776C533.368 115.776 533.368 115.792 533.368 115.824V119.328C533.368 119.36 533.368 119.376 533.368 119.376C533.368 119.376 533.352 119.376 533.32 119.376H529.816C529.784 119.376 529.768 119.376 529.768 119.376C529.768 119.376 529.768 119.36 529.768 119.328V115.824C529.768 115.792 529.768 115.776 529.768 115.776C529.768 115.776 529.784 115.776 529.816 115.776ZM576.837 86.976H580.341C580.373 86.976 580.389 86.976 580.389 86.976C580.389 86.976 580.389 86.992 580.389 87.024V90.528C580.389 90.56 580.389 90.576 580.389 90.576C580.389 90.576 580.373 90.576 580.341 90.576H576.837C576.805 90.576 576.789 90.576 576.789 90.576C576.789 90.576 576.789 90.56 576.789 90.528V87.024C576.789 86.992 576.789 86.976 576.789 86.976C576.789 86.976 576.805 86.976 576.837 86.976ZM581.637 86.976H585.141C585.173 86.976 585.189 86.976 585.189 86.976C585.189 86.976 585.189 86.992 585.189 87.024V90.528C585.189 90.56 585.189 90.576 585.189 90.576C585.189 90.576 585.173 90.576 585.141 90.576H581.637C581.605 90.576 581.589 90.576 581.589 90.576C581.589 90.576 581.589 90.56 581.589 90.528V87.024C581.589 86.992 581.589 86.976 581.589 86.976C581.589 86.976 581.605 86.976 581.637 86.976ZM586.437 86.976H589.941C589.973 86.976 589.989 86.976 589.989 86.976C589.989 86.976 589.989 86.992 589.989 87.024V90.528C589.989 90.56 589.989 90.576 589.989 90.576C589.989 90.576 589.973 90.576 589.941 90.576H586.437C586.405 90.576 586.389 90.576 586.389 90.576C586.389 90.576 586.389 90.56 586.389 90.528V87.024C586.389 86.992 586.389 86.976 586.389 86.976C586.389 86.976 586.405 86.976 586.437 86.976ZM572.037 91.776H575.541C575.573 91.776 575.589 91.776 575.589 91.776C575.589 91.776 575.589 91.792 575.589 91.824V95.328C575.589 95.36 575.589 95.376 575.589 95.376C575.589 95.376 575.573 95.376 575.541 95.376H572.037C572.005 95.376 571.989 95.376 571.989 95.376C571.989 95.376 571.989 95.36 571.989 95.328V91.824C571.989 91.792 571.989 91.776 571.989 91.776C571.989 91.776 572.005 91.776 572.037 91.776ZM591.237 91.776H594.741C594.773 91.776 594.789 91.776 594.789 91.776C594.789 91.776 594.789 91.792 594.789 91.824V95.328C594.789 95.36 594.789 95.376 594.789 95.376C594.789 95.376 594.773 95.376 594.741 95.376H591.237C591.205 95.376 591.189 95.376 591.189 95.376C591.189 95.376 591.189 95.36 591.189 95.328V91.824C591.189 91.792 591.189 91.776 591.189 91.776C591.189 91.776 591.205 91.776 591.237 91.776ZM572.037 96.576H575.541C575.573 96.576 575.589 96.576 575.589 96.576C575.589 96.576 575.589 96.592 575.589 96.624V100.128C575.589 100.16 575.589 100.176 575.589 100.176C575.589 100.176 575.573 100.176 575.541 100.176H572.037C572.005 100.176 571.989 100.176 571.989 100.176C571.989 100.176 571.989 100.16 571.989 100.128V96.624C571.989 96.592 571.989 96.576 571.989 96.576C571.989 96.576 572.005 96.576 572.037 96.576ZM576.837 101.376H580.341C580.373 101.376 580.389 101.376 580.389 101.376C580.389 101.376 580.389 101.392 580.389 101.424V104.928C580.389 104.96 580.389 104.976 580.389 104.976C580.389 104.976 580.373 104.976 580.341 104.976H576.837C576.805 104.976 576.789 104.976 576.789 104.976C576.789 104.976 576.789 104.96 576.789 104.928V101.424C576.789 101.392 576.789 101.376 576.789 101.376C576.789 101.376 576.805 101.376 576.837 101.376ZM581.637 101.376H585.141C585.173 101.376 585.189 101.376 585.189 101.376C585.189 101.376 585.189 101.392 585.189 101.424V104.928C585.189 104.96 585.189 104.976 585.189 104.976C585.189 104.976 585.173 104.976 585.141 104.976H581.637C581.605 104.976 581.589 104.976 581.589 104.976C581.589 104.976 581.589 104.96 581.589 104.928V101.424C581.589 101.392 581.589 101.376 581.589 101.376C581.589 101.376 581.605 101.376 581.637 101.376ZM586.437 101.376H589.941C589.973 101.376 589.989 101.376 589.989 101.376C589.989 101.376 589.989 101.392 589.989 101.424V104.928C589.989 104.96 589.989 104.976 589.989 104.976C589.989 104.976 589.973 104.976 589.941 104.976H586.437C586.405 104.976 586.389 104.976 586.389 104.976C586.389 104.976 586.389 104.96 586.389 104.928V101.424C586.389 101.392 586.389 101.376 586.389 101.376C586.389 101.376 586.405 101.376 586.437 101.376ZM591.237 106.176H594.741C594.773 106.176 594.789 106.176 594.789 106.176C594.789 106.176 594.789 106.192 594.789 106.224V109.728C594.789 109.76 594.789 109.776 594.789 109.776C594.789 109.776 594.773 109.776 594.741 109.776H591.237C591.205 109.776 591.189 109.776 591.189 109.776C591.189 109.776 591.189 109.76 591.189 109.728V106.224C591.189 106.192 591.189 106.176 591.189 106.176C591.189 106.176 591.205 106.176 591.237 106.176ZM572.037 110.976H575.541C575.573 110.976 575.589 110.976 575.589 110.976C575.589 110.976 575.589 110.992 575.589 111.024V114.528C575.589 114.56 575.589 114.576 575.589 114.576C575.589 114.576 575.573 114.576 575.541 114.576H572.037C572.005 114.576 571.989 114.576 571.989 114.576C571.989 114.576 571.989 114.56 571.989 114.528V111.024C571.989 110.992 571.989 110.976 571.989 110.976C571.989 110.976 572.005 110.976 572.037 110.976ZM591.237 110.976H594.741C594.773 110.976 594.789 110.976 594.789 110.976C594.789 110.976 594.789 110.992 594.789 111.024V114.528C594.789 114.56 594.789 114.576 594.789 114.576C594.789 114.576 594.773 114.576 594.741 114.576H591.237C591.205 114.576 591.189 114.576 591.189 114.576C591.189 114.576 591.189 114.56 591.189 114.528V111.024C591.189 110.992 591.189 110.976 591.189 110.976C591.189 110.976 591.205 110.976 591.237 110.976ZM576.837 115.776H580.341C580.373 115.776 580.389 115.776 580.389 115.776C580.389 115.776 580.389 115.792 580.389 115.824V119.328C580.389 119.36 580.389 119.376 580.389 119.376C580.389 119.376 580.373 119.376 580.341 119.376H576.837C576.805 119.376 576.789 119.376 576.789 119.376C576.789 119.376 576.789 119.36 576.789 119.328V115.824C576.789 115.792 576.789 115.776 576.789 115.776C576.789 115.776 576.805 115.776 576.837 115.776ZM581.637 115.776H585.141C585.173 115.776 585.189 115.776 585.189 115.776C585.189 115.776 585.189 115.792 585.189 115.824V119.328C585.189 119.36 585.189 119.376 585.189 119.376C585.189 119.376 585.173 119.376 585.141 119.376H581.637C581.605 119.376 581.589 119.376 581.589 119.376C581.589 119.376 581.589 119.36 581.589 119.328V115.824C581.589 115.792 581.589 115.776 581.589 115.776C581.589 115.776 581.605 115.776 581.637 115.776ZM586.437 115.776H589.941C589.973 115.776 589.989 115.776 589.989 115.776C589.989 115.776 589.989 115.792 589.989 115.824V119.328C589.989 119.36 589.989 119.376 589.989 119.376C589.989 119.376 589.973 119.376 589.941 119.376H586.437C586.405 119.376 586.389 119.376 586.389 119.376C586.389 119.376 586.389 119.36 586.389 119.328V115.824C586.389 115.792 586.389 115.776 586.389 115.776C586.389 115.776 586.405 115.776 586.437 115.776ZM638.258 86.976H641.762C641.794 86.976 641.81 86.976 641.81 86.976C641.81 86.976 641.81 86.992 641.81 87.024V90.528C641.81 90.56 641.81 90.576 641.81 90.576C641.81 90.576 641.794 90.576 641.762 90.576H638.258C638.226 90.576 638.21 90.576 638.21 90.576C638.21 90.576 638.21 90.56 638.21 90.528V87.024C638.21 86.992 638.21 86.976 638.21 86.976C638.21 86.976 638.226 86.976 638.258 86.976ZM643.058 86.976H646.562C646.594 86.976 646.61 86.976 646.61 86.976C646.61 86.976 646.61 86.992 646.61 87.024V90.528C646.61 90.56 646.61 90.576 646.61 90.576C646.61 90.576 646.594 90.576 646.562 90.576H643.058C643.026 90.576 643.01 90.576 643.01 90.576C643.01 90.576 643.01 90.56 643.01 90.528V87.024C643.01 86.992 643.01 86.976 643.01 86.976C643.01 86.976 643.026 86.976 643.058 86.976ZM647.858 86.976H651.362C651.394 86.976 651.41 86.976 651.41 86.976C651.41 86.976 651.41 86.992 651.41 87.024V90.528C651.41 90.56 651.41 90.576 651.41 90.576C651.41 90.576 651.394 90.576 651.362 90.576H647.858C647.826 90.576 647.81 90.576 647.81 90.576C647.81 90.576 647.81 90.56 647.81 90.528V87.024C647.81 86.992 647.81 86.976 647.81 86.976C647.81 86.976 647.826 86.976 647.858 86.976ZM643.058 91.776H646.562C646.594 91.776 646.61 91.776 646.61 91.776C646.61 91.776 646.61 91.792 646.61 91.824V95.328C646.61 95.36 646.61 95.376 646.61 95.376C646.61 95.376 646.594 95.376 646.562 95.376H643.058C643.026 95.376 643.01 95.376 643.01 95.376C643.01 95.376 643.01 95.36 643.01 95.328V91.824C643.01 91.792 643.01 91.776 643.01 91.776C643.01 91.776 643.026 91.776 643.058 91.776ZM643.058 96.576H646.562C646.594 96.576 646.61 96.576 646.61 96.576C646.61 96.576 646.61 96.592 646.61 96.624V100.128C646.61 100.16 646.61 100.176 646.61 100.176C646.61 100.176 646.594 100.176 646.562 100.176H643.058C643.026 100.176 643.01 100.176 643.01 100.176C643.01 100.176 643.01 100.16 643.01 100.128V96.624C643.01 96.592 643.01 96.576 643.01 96.576C643.01 96.576 643.026 96.576 643.058 96.576ZM643.058 101.376H646.562C646.594 101.376 646.61 101.376 646.61 101.376C646.61 101.376 646.61 101.392 646.61 101.424V104.928C646.61 104.96 646.61 104.976 646.61 104.976C646.61 104.976 646.594 104.976 646.562 104.976H643.058C643.026 104.976 643.01 104.976 643.01 104.976C643.01 104.976 643.01 104.96 643.01 104.928V101.424C643.01 101.392 643.01 101.376 643.01 101.376C643.01 101.376 643.026 101.376 643.058 101.376ZM643.058 106.176H646.562C646.594 106.176 646.61 106.176 646.61 106.176C646.61 106.176 646.61 106.192 646.61 106.224V109.728C646.61 109.76 646.61 109.776 646.61 109.776C646.61 109.776 646.594 109.776 646.562 109.776H643.058C643.026 109.776 643.01 109.776 643.01 109.776C643.01 109.776 643.01 109.76 643.01 109.728V106.224C643.01 106.192 643.01 106.176 643.01 106.176C643.01 106.176 643.026 106.176 643.058 106.176ZM643.058 110.976H646.562C646.594 110.976 646.61 110.976 646.61 110.976C646.61 110.976 646.61 110.992 646.61 111.024V114.528C646.61 114.56 646.61 114.576 646.61 114.576C646.61 114.576 646.594 114.576 646.562 114.576H643.058C643.026 114.576 643.01 114.576 643.01 114.576C643.01 114.576 643.01 114.56 643.01 114.528V111.024C643.01 110.992 643.01 110.976 643.01 110.976C643.01 110.976 643.026 110.976 643.058 110.976ZM638.258 115.776H641.762C641.794 115.776 641.81 115.776 641.81 115.776C641.81 115.776 641.81 115.792 641.81 115.824V119.328C641.81 119.36 641.81 119.376 641.81 119.376C641.81 119.376 641.794 119.376 641.762 119.376H638.258C638.226 119.376 638.21 119.376 638.21 119.376C638.21 119.376 638.21 119.36 638.21 119.328V115.824C638.21 115.792 638.21 115.776 638.21 115.776C638.21 115.776 638.226 115.776 638.258 115.776ZM643.058 115.776H646.562C646.594 115.776 646.61 115.776 646.61 115.776C646.61 115.776 646.61 115.792 646.61 115.824V119.328C646.61 119.36 646.61 119.376 646.61 119.376C646.61 119.376 646.594 119.376 646.562 119.376H643.058C643.026 119.376 643.01 119.376 643.01 119.376C643.01 119.376 643.01 119.36 643.01 119.328V115.824C643.01 115.792 643.01 115.776 643.01 115.776C643.01 115.776 643.026 115.776 643.058 115.776ZM647.858 115.776H651.362C651.394 115.776 651.41 115.776 651.41 115.776C651.41 115.776 651.41 115.792 651.41 115.824V119.328C651.41 119.36 651.41 119.376 651.41 119.376C651.41 119.376 651.394 119.376 651.362 119.376H647.858C647.826 119.376 647.81 119.376 647.81 119.376C647.81 119.376 647.81 119.36 647.81 119.328V115.824C647.81 115.792 647.81 115.776 647.81 115.776C647.81 115.776 647.826 115.776 647.858 115.776ZM704.479 86.976H707.983C708.015 86.976 708.031 86.976 708.031 86.976C708.031 86.976 708.031 86.992 708.031 87.024V90.528C708.031 90.56 708.031 90.576 708.031 90.576C708.031 90.576 708.015 90.576 707.983 90.576H704.479C704.447 90.576 704.431 90.576 704.431 90.576C704.431 90.576 704.431 90.56 704.431 90.528V87.024C704.431 86.992 704.431 86.976 704.431 86.976C704.431 86.976 704.447 86.976 704.479 86.976ZM699.679 91.776H703.183C703.215 91.776 703.231 91.776 703.231 91.776C703.231 91.776 703.231 91.792 703.231 91.824V95.328C703.231 95.36 703.231 95.376 703.231 95.376C703.231 95.376 703.215 95.376 703.183 95.376H699.679C699.647 95.376 699.631 95.376 699.631 95.376C699.631 95.376 699.631 95.36 699.631 95.328V91.824C699.631 91.792 699.631 91.776 699.631 91.776C699.631 91.776 699.647 91.776 699.679 91.776ZM709.279 91.776H712.783C712.815 91.776 712.831 91.776 712.831 91.776C712.831 91.776 712.831 91.792 712.831 91.824V95.328C712.831 95.36 712.831 95.376 712.831 95.376C712.831 95.376 712.815 95.376 712.783 95.376H709.279C709.247 95.376 709.231 95.376 709.231 95.376C709.231 95.376 709.231 95.36 709.231 95.328V91.824C709.231 91.792 709.231 91.776 709.231 91.776C709.231 91.776 709.247 91.776 709.279 91.776ZM694.879 96.576H698.383C698.415 96.576 698.431 96.576 698.431 96.576C698.431 96.576 698.431 96.592 698.431 96.624V100.128C698.431 100.16 698.431 100.176 698.431 100.176C698.431 100.176 698.415 100.176 698.383 100.176H694.879C694.847 100.176 694.831 100.176 694.831 100.176C694.831 100.176 694.831 100.16 694.831 100.128V96.624C694.831 96.592 694.831 96.576 694.831 96.576C694.831 96.576 694.847 96.576 694.879 96.576ZM714.079 96.576H717.583C717.615 96.576 717.631 96.576 717.631 96.576C717.631 96.576 717.631 96.592 717.631 96.624V100.128C717.631 100.16 717.631 100.176 717.631 100.176C717.631 100.176 717.615 100.176 717.583 100.176H714.079C714.047 100.176 714.031 100.176 714.031 100.176C714.031 100.176 714.031 100.16 714.031 100.128V96.624C714.031 96.592 714.031 96.576 714.031 96.576C714.031 96.576 714.047 96.576 714.079 96.576ZM694.879 101.376H698.383C698.415 101.376 698.431 101.376 698.431 101.376C698.431 101.376 698.431 101.392 698.431 101.424V104.928C698.431 104.96 698.431 104.976 698.431 104.976C698.431 104.976 698.415 104.976 698.383 104.976H694.879C694.847 104.976 694.831 104.976 694.831 104.976C694.831 104.976 694.831 104.96 694.831 104.928V101.424C694.831 101.392 694.831 101.376 694.831 101.376C694.831 101.376 694.847 101.376 694.879 101.376ZM714.079 101.376H717.583C717.615 101.376 717.631 101.376 717.631 101.376C717.631 101.376 717.631 101.392 717.631 101.424V104.928C717.631 104.96 717.631 104.976 717.631 104.976C717.631 104.976 717.615 104.976 717.583 104.976H714.079C714.047 104.976 714.031 104.976 714.031 104.976C714.031 104.976 714.031 104.96 714.031 104.928V101.424C714.031 101.392 714.031 101.376 714.031 101.376C714.031 101.376 714.047 101.376 714.079 101.376ZM694.879 106.176H698.383C698.415 106.176 698.431 106.176 698.431 106.176C698.431 106.176 698.431 106.192 698.431 106.224V109.728C698.431 109.76 698.431 109.776 698.431 109.776C698.431 109.776 698.415 109.776 698.383 109.776H694.879C694.847 109.776 694.831 109.776 694.831 109.776C694.831 109.776 694.831 109.76 694.831 109.728V106.224C694.831 106.192 694.831 106.176 694.831 106.176C694.831 106.176 694.847 106.176 694.879 106.176ZM699.679 106.176H703.183C703.215 106.176 703.231 106.176 703.231 106.176C703.231 106.176 703.231 106.192 703.231 106.224V109.728C703.231 109.76 703.231 109.776 703.231 109.776C703.231 109.776 703.215 109.776 703.183 109.776H699.679C699.647 109.776 699.631 109.776 699.631 109.776C699.631 109.776 699.631 109.76 699.631 109.728V106.224C699.631 106.192 699.631 106.176 699.631 106.176C699.631 106.176 699.647 106.176 699.679 106.176ZM704.479 106.176H707.983C708.015 106.176 708.031 106.176 708.031 106.176C708.031 106.176 708.031 106.192 708.031 106.224V109.728C708.031 109.76 708.031 109.776 708.031 109.776C708.031 109.776 708.015 109.776 707.983 109.776H704.479C704.447 109.776 704.431 109.776 704.431 109.776C704.431 109.776 704.431 109.76 704.431 109.728V106.224C704.431 106.192 704.431 106.176 704.431 106.176C704.431 106.176 704.447 106.176 704.479 106.176ZM709.279 106.176H712.783C712.815 106.176 712.831 106.176 712.831 106.176C712.831 106.176 712.831 106.192 712.831 106.224V109.728C712.831 109.76 712.831 109.776 712.831 109.776C712.831 109.776 712.815 109.776 712.783 109.776H709.279C709.247 109.776 709.231 109.776 709.231 109.776C709.231 109.776 709.231 109.76 709.231 109.728V106.224C709.231 106.192 709.231 106.176 709.231 106.176C709.231 106.176 709.247 106.176 709.279 106.176ZM714.079 106.176H717.583C717.615 106.176 717.631 106.176 717.631 106.176C717.631 106.176 717.631 106.192 717.631 106.224V109.728C717.631 109.76 717.631 109.776 717.631 109.776C717.631 109.776 717.615 109.776 717.583 109.776H714.079C714.047 109.776 714.031 109.776 714.031 109.776C714.031 109.776 714.031 109.76 714.031 109.728V106.224C714.031 106.192 714.031 106.176 714.031 106.176C714.031 106.176 714.047 106.176 714.079 106.176ZM694.879 110.976H698.383C698.415 110.976 698.431 110.976 698.431 110.976C698.431 110.976 698.431 110.992 698.431 111.024V114.528C698.431 114.56 698.431 114.576 698.431 114.576C698.431 114.576 698.415 114.576 698.383 114.576H694.879C694.847 114.576 694.831 114.576 694.831 114.576C694.831 114.576 694.831 114.56 694.831 114.528V111.024C694.831 110.992 694.831 110.976 694.831 110.976C694.831 110.976 694.847 110.976 694.879 110.976ZM714.079 110.976H717.583C717.615 110.976 717.631 110.976 717.631 110.976C717.631 110.976 717.631 110.992 717.631 111.024V114.528C717.631 114.56 717.631 114.576 717.631 114.576C717.631 114.576 717.615 114.576 717.583 114.576H714.079C714.047 114.576 714.031 114.576 714.031 114.576C714.031 114.576 714.031 114.56 714.031 114.528V111.024C714.031 110.992 714.031 110.976 714.031 110.976C714.031 110.976 714.047 110.976 714.079 110.976ZM694.879 115.776H698.383C698.415 115.776 698.431 115.776 698.431 115.776C698.431 115.776 698.431 115.792 698.431 115.824V119.328C698.431 119.36 698.431 119.376 698.431 119.376C698.431 119.376 698.415 119.376 698.383 119.376H694.879C694.847 119.376 694.831 119.376 694.831 119.376C694.831 119.376 694.831 119.36 694.831 119.328V115.824C694.831 115.792 694.831 115.776 694.831 115.776C694.831 115.776 694.847 115.776 694.879 115.776ZM714.079 115.776H717.583C717.615 115.776 717.631 115.776 717.631 115.776C717.631 115.776 717.631 115.792 717.631 115.824V119.328C717.631 119.36 717.631 119.376 717.631 119.376C717.631 119.376 717.615 119.376 717.583 119.376H714.079C714.047 119.376 714.031 119.376 714.031 119.376C714.031 119.376 714.031 119.36 714.031 119.328V115.824C714.031 115.792 714.031 115.776 714.031 115.776C714.031 115.776 714.047 115.776 714.079 115.776ZM756.301 86.976H759.805C759.837 86.976 759.853 86.976 759.853 86.976C759.853 86.976 759.853 86.992 759.853 87.024V90.528C759.853 90.56 759.853 90.576 759.853 90.576C759.853 90.576 759.837 90.576 759.805 90.576H756.301C756.269 90.576 756.253 90.576 756.253 90.576C756.253 90.576 756.253 90.56 756.253 90.528V87.024C756.253 86.992 756.253 86.976 756.253 86.976C756.253 86.976 756.269 86.976 756.301 86.976ZM775.501 86.976H779.005C779.037 86.976 779.053 86.976 779.053 86.976C779.053 86.976 779.053 86.992 779.053 87.024V90.528C779.053 90.56 779.053 90.576 779.053 90.576C779.053 90.576 779.037 90.576 779.005 90.576H775.501C775.469 90.576 775.453 90.576 775.453 90.576C775.453 90.576 775.453 90.56 775.453 90.528V87.024C775.453 86.992 775.453 86.976 775.453 86.976C775.453 86.976 775.469 86.976 775.501 86.976ZM756.301 91.776H759.805C759.837 91.776 759.853 91.776 759.853 91.776C759.853 91.776 759.853 91.792 759.853 91.824V95.328C759.853 95.36 759.853 95.376 759.853 95.376C759.853 95.376 759.837 95.376 759.805 95.376H756.301C756.269 95.376 756.253 95.376 756.253 95.376C756.253 95.376 756.253 95.36 756.253 95.328V91.824C756.253 91.792 756.253 91.776 756.253 91.776C756.253 91.776 756.269 91.776 756.301 91.776ZM775.501 91.776H779.005C779.037 91.776 779.053 91.776 779.053 91.776C779.053 91.776 779.053 91.792 779.053 91.824V95.328C779.053 95.36 779.053 95.376 779.053 95.376C779.053 95.376 779.037 95.376 779.005 95.376H775.501C775.469 95.376 775.453 95.376 775.453 95.376C775.453 95.376 775.453 95.36 775.453 95.328V91.824C775.453 91.792 775.453 91.776 775.453 91.776C775.453 91.776 775.469 91.776 775.501 91.776ZM756.301 96.576H759.805C759.837 96.576 759.853 96.576 759.853 96.576C759.853 96.576 759.853 96.592 759.853 96.624V100.128C759.853 100.16 759.853 100.176 759.853 100.176C759.853 100.176 759.837 100.176 759.805 100.176H756.301C756.269 100.176 756.253 100.176 756.253 100.176C756.253 100.176 756.253 100.16 756.253 100.128V96.624C756.253 96.592 756.253 96.576 756.253 96.576C756.253 96.576 756.269 96.576 756.301 96.576ZM761.101 96.576H764.605C764.637 96.576 764.653 96.576 764.653 96.576C764.653 96.576 764.653 96.592 764.653 96.624V100.128C764.653 100.16 764.653 100.176 764.653 100.176C764.653 100.176 764.637 100.176 764.605 100.176H761.101C761.069 100.176 761.053 100.176 761.053 100.176C761.053 100.176 761.053 100.16 761.053 100.128V96.624C761.053 96.592 761.053 96.576 761.053 96.576C761.053 96.576 761.069 96.576 761.101 96.576ZM775.501 96.576H779.005C779.037 96.576 779.053 96.576 779.053 96.576C779.053 96.576 779.053 96.592 779.053 96.624V100.128C779.053 100.16 779.053 100.176 779.053 100.176C779.053 100.176 779.037 100.176 779.005 100.176H775.501C775.469 100.176 775.453 100.176 775.453 100.176C775.453 100.176 775.453 100.16 775.453 100.128V96.624C775.453 96.592 775.453 96.576 775.453 96.576C775.453 96.576 775.469 96.576 775.501 96.576ZM756.301 101.376H759.805C759.837 101.376 759.853 101.376 759.853 101.376C759.853 101.376 759.853 101.392 759.853 101.424V104.928C759.853 104.96 759.853 104.976 759.853 104.976C759.853 104.976 759.837 104.976 759.805 104.976H756.301C756.269 104.976 756.253 104.976 756.253 104.976C756.253 104.976 756.253 104.96 756.253 104.928V101.424C756.253 101.392 756.253 101.376 756.253 101.376C756.253 101.376 756.269 101.376 756.301 101.376ZM765.901 101.376H769.405C769.437 101.376 769.453 101.376 769.453 101.376C769.453 101.376 769.453 101.392 769.453 101.424V104.928C769.453 104.96 769.453 104.976 769.453 104.976C769.453 104.976 769.437 104.976 769.405 104.976H765.901C765.869 104.976 765.853 104.976 765.853 104.976C765.853 104.976 765.853 104.96 765.853 104.928V101.424C765.853 101.392 765.853 101.376 765.853 101.376C765.853 101.376 765.869 101.376 765.901 101.376ZM775.501 101.376H779.005C779.037 101.376 779.053 101.376 779.053 101.376C779.053 101.376 779.053 101.392 779.053 101.424V104.928C779.053 104.96 779.053 104.976 779.053 104.976C779.053 104.976 779.037 104.976 779.005 104.976H775.501C775.469 104.976 775.453 104.976 775.453 104.976C775.453 104.976 775.453 104.96 775.453 104.928V101.424C775.453 101.392 775.453 101.376 775.453 101.376C775.453 101.376 775.469 101.376 775.501 101.376ZM756.301 106.176H759.805C759.837 106.176 759.853 106.176 759.853 106.176C759.853 106.176 759.853 106.192 759.853 106.224V109.728C759.853 109.76 759.853 109.776 759.853 109.776C759.853 109.776 759.837 109.776 759.805 109.776H756.301C756.269 109.776 756.253 109.776 756.253 109.776C756.253 109.776 756.253 109.76 756.253 109.728V106.224C756.253 106.192 756.253 106.176 756.253 106.176C756.253 106.176 756.269 106.176 756.301 106.176ZM770.701 106.176H774.205C774.237 106.176 774.253 106.176 774.253 106.176C774.253 106.176 774.253 106.192 774.253 106.224V109.728C774.253 109.76 774.253 109.776 774.253 109.776C774.253 109.776 774.237 109.776 774.205 109.776H770.701C770.669 109.776 770.653 109.776 770.653 109.776C770.653 109.776 770.653 109.76 770.653 109.728V106.224C770.653 106.192 770.653 106.176 770.653 106.176C770.653 106.176 770.669 106.176 770.701 106.176ZM775.501 106.176H779.005C779.037 106.176 779.053 106.176 779.053 106.176C779.053 106.176 779.053 106.192 779.053 106.224V109.728C779.053 109.76 779.053 109.776 779.053 109.776C779.053 109.776 779.037 109.776 779.005 109.776H775.501C775.469 109.776 775.453 109.776 775.453 109.776C775.453 109.776 775.453 109.76 775.453 109.728V106.224C775.453 106.192 775.453 106.176 775.453 106.176C775.453 106.176 775.469 106.176 775.501 106.176ZM756.301 110.976H759.805C759.837 110.976 759.853 110.976 759.853 110.976C759.853 110.976 759.853 110.992 759.853 111.024V114.528C759.853 114.56 759.853 114.576 759.853 114.576C759.853 114.576 759.837 114.576 759.805 114.576H756.301C756.269 114.576 756.253 114.576 756.253 114.576C756.253 114.576 756.253 114.56 756.253 114.528V111.024C756.253 110.992 756.253 110.976 756.253 110.976C756.253 110.976 756.269 110.976 756.301 110.976ZM775.501 110.976H779.005C779.037 110.976 779.053 110.976 779.053 110.976C779.053 110.976 779.053 110.992 779.053 111.024V114.528C779.053 114.56 779.053 114.576 779.053 114.576C779.053 114.576 779.037 114.576 779.005 114.576H775.501C775.469 114.576 775.453 114.576 775.453 114.576C775.453 114.576 775.453 114.56 775.453 114.528V111.024C775.453 110.992 775.453 110.976 775.453 110.976C775.453 110.976 775.469 110.976 775.501 110.976ZM756.301 115.776H759.805C759.837 115.776 759.853 115.776 759.853 115.776C759.853 115.776 759.853 115.792 759.853 115.824V119.328C759.853 119.36 759.853 119.376 759.853 119.376C759.853 119.376 759.837 119.376 759.805 119.376H756.301C756.269 119.376 756.253 119.376 756.253 119.376C756.253 119.376 756.253 119.36 756.253 119.328V115.824C756.253 115.792 756.253 115.776 756.253 115.776C756.253 115.776 756.269 115.776 756.301 115.776ZM775.501 115.776H779.005C779.037 115.776 779.053 115.776 779.053 115.776C779.053 115.776 779.053 115.792 779.053 115.824V119.328C779.053 119.36 779.053 119.376 779.053 119.376C779.053 119.376 779.037 119.376 779.005 119.376H775.501C775.469 119.376 775.453 119.376 775.453 119.376C775.453 119.376 775.453 119.36 775.453 119.328V115.824C775.453 115.792 775.453 115.776 775.453 115.776C775.453 115.776 775.469 115.776 775.501 115.776ZM822.522 86.976H826.026C826.058 86.976 826.074 86.976 826.074 86.976C826.074 86.976 826.074 86.992 826.074 87.024V90.528C826.074 90.56 826.074 90.576 826.074 90.576C826.074 90.576 826.058 90.576 826.026 90.576H822.522C822.49 90.576 822.474 90.576 822.474 90.576C822.474 90.576 822.474 90.56 822.474 90.528V87.024C822.474 86.992 822.474 86.976 822.474 86.976C822.474 86.976 822.49 86.976 822.522 86.976ZM827.322 86.976H830.826C830.858 86.976 830.874 86.976 830.874 86.976C830.874 86.976 830.874 86.992 830.874 87.024V90.528C830.874 90.56 830.874 90.576 830.874 90.576C830.874 90.576 830.858 90.576 830.826 90.576H827.322C827.29 90.576 827.274 90.576 827.274 90.576C827.274 90.576 827.274 90.56 827.274 90.528V87.024C827.274 86.992 827.274 86.976 827.274 86.976C827.274 86.976 827.29 86.976 827.322 86.976ZM832.122 86.976H835.626C835.658 86.976 835.674 86.976 835.674 86.976C835.674 86.976 835.674 86.992 835.674 87.024V90.528C835.674 90.56 835.674 90.576 835.674 90.576C835.674 90.576 835.658 90.576 835.626 90.576H832.122C832.09 90.576 832.074 90.576 832.074 90.576C832.074 90.576 832.074 90.56 832.074 90.528V87.024C832.074 86.992 832.074 86.976 832.074 86.976C832.074 86.976 832.09 86.976 832.122 86.976ZM817.722 91.776H821.226C821.258 91.776 821.274 91.776 821.274 91.776C821.274 91.776 821.274 91.792 821.274 91.824V95.328C821.274 95.36 821.274 95.376 821.274 95.376C821.274 95.376 821.258 95.376 821.226 95.376H817.722C817.69 95.376 817.674 95.376 817.674 95.376C817.674 95.376 817.674 95.36 817.674 95.328V91.824C817.674 91.792 817.674 91.776 817.674 91.776C817.674 91.776 817.69 91.776 817.722 91.776ZM836.922 91.776H840.426C840.458 91.776 840.474 91.776 840.474 91.776C840.474 91.776 840.474 91.792 840.474 91.824V95.328C840.474 95.36 840.474 95.376 840.474 95.376C840.474 95.376 840.458 95.376 840.426 95.376H836.922C836.89 95.376 836.874 95.376 836.874 95.376C836.874 95.376 836.874 95.36 836.874 95.328V91.824C836.874 91.792 836.874 91.776 836.874 91.776C836.874 91.776 836.89 91.776 836.922 91.776ZM817.722 96.576H821.226C821.258 96.576 821.274 96.576 821.274 96.576C821.274 96.576 821.274 96.592 821.274 96.624V100.128C821.274 100.16 821.274 100.176 821.274 100.176C821.274 100.176 821.258 100.176 821.226 100.176H817.722C817.69 100.176 817.674 100.176 817.674 100.176C817.674 100.176 817.674 100.16 817.674 100.128V96.624C817.674 96.592 817.674 96.576 817.674 96.576C817.674 96.576 817.69 96.576 817.722 96.576ZM836.922 96.576H840.426C840.458 96.576 840.474 96.576 840.474 96.576C840.474 96.576 840.474 96.592 840.474 96.624V100.128C840.474 100.16 840.474 100.176 840.474 100.176C840.474 100.176 840.458 100.176 840.426 100.176H836.922C836.89 100.176 836.874 100.176 836.874 100.176C836.874 100.176 836.874 100.16 836.874 100.128V96.624C836.874 96.592 836.874 96.576 836.874 96.576C836.874 96.576 836.89 96.576 836.922 96.576ZM817.722 101.376H821.226C821.258 101.376 821.274 101.376 821.274 101.376C821.274 101.376 821.274 101.392 821.274 101.424V104.928C821.274 104.96 821.274 104.976 821.274 104.976C821.274 104.976 821.258 104.976 821.226 104.976H817.722C817.69 104.976 817.674 104.976 817.674 104.976C817.674 104.976 817.674 104.96 817.674 104.928V101.424C817.674 101.392 817.674 101.376 817.674 101.376C817.674 101.376 817.69 101.376 817.722 101.376ZM836.922 101.376H840.426C840.458 101.376 840.474 101.376 840.474 101.376C840.474 101.376 840.474 101.392 840.474 101.424V104.928C840.474 104.96 840.474 104.976 840.474 104.976C840.474 104.976 840.458 104.976 840.426 104.976H836.922C836.89 104.976 836.874 104.976 836.874 104.976C836.874 104.976 836.874 104.96 836.874 104.928V101.424C836.874 101.392 836.874 101.376 836.874 101.376C836.874 101.376 836.89 101.376 836.922 101.376ZM817.722 106.176H821.226C821.258 106.176 821.274 106.176 821.274 106.176C821.274 106.176 821.274 106.192 821.274 106.224V109.728C821.274 109.76 821.274 109.776 821.274 109.776C821.274 109.776 821.258 109.776 821.226 109.776H817.722C817.69 109.776 817.674 109.776 817.674 109.776C817.674 109.776 817.674 109.76 817.674 109.728V106.224C817.674 106.192 817.674 106.176 817.674 106.176C817.674 106.176 817.69 106.176 817.722 106.176ZM836.922 106.176H840.426C840.458 106.176 840.474 106.176 840.474 106.176C840.474 106.176 840.474 106.192 840.474 106.224V109.728C840.474 109.76 840.474 109.776 840.474 109.776C840.474 109.776 840.458 109.776 840.426 109.776H836.922C836.89 109.776 836.874 109.776 836.874 109.776C836.874 109.776 836.874 109.76 836.874 109.728V106.224C836.874 106.192 836.874 106.176 836.874 106.176C836.874 106.176 836.89 106.176 836.922 106.176ZM817.722 110.976H821.226C821.258 110.976 821.274 110.976 821.274 110.976C821.274 110.976 821.274 110.992 821.274 111.024V114.528C821.274 114.56 821.274 114.576 821.274 114.576C821.274 114.576 821.258 114.576 821.226 114.576H817.722C817.69 114.576 817.674 114.576 817.674 114.576C817.674 114.576 817.674 114.56 817.674 114.528V111.024C817.674 110.992 817.674 110.976 817.674 110.976C817.674 110.976 817.69 110.976 817.722 110.976ZM836.922 110.976H840.426C840.458 110.976 840.474 110.976 840.474 110.976C840.474 110.976 840.474 110.992 840.474 111.024V114.528C840.474 114.56 840.474 114.576 840.474 114.576C840.474 114.576 840.458 114.576 840.426 114.576H836.922C836.89 114.576 836.874 114.576 836.874 114.576C836.874 114.576 836.874 114.56 836.874 114.528V111.024C836.874 110.992 836.874 110.976 836.874 110.976C836.874 110.976 836.89 110.976 836.922 110.976ZM822.522 115.776H826.026C826.058 115.776 826.074 115.776 826.074 115.776C826.074 115.776 826.074 115.792 826.074 115.824V119.328C826.074 119.36 826.074 119.376 826.074 119.376C826.074 119.376 826.058 119.376 826.026 119.376H822.522C822.49 119.376 822.474 119.376 822.474 119.376C822.474 119.376 822.474 119.36 822.474 119.328V115.824C822.474 115.792 822.474 115.776 822.474 115.776C822.474 115.776 822.49 115.776 822.522 115.776ZM827.322 115.776H830.826C830.858 115.776 830.874 115.776 830.874 115.776C830.874 115.776 830.874 115.792 830.874 115.824V119.328C830.874 119.36 830.874 119.376 830.874 119.376C830.874 119.376 830.858 119.376 830.826 119.376H827.322C827.29 119.376 827.274 119.376 827.274 119.376C827.274 119.376 827.274 119.36 827.274 119.328V115.824C827.274 115.792 827.274 115.776 827.274 115.776C827.274 115.776 827.29 115.776 827.322 115.776ZM832.122 115.776H835.626C835.658 115.776 835.674 115.776 835.674 115.776C835.674 115.776 835.674 115.792 835.674 115.824V119.328C835.674 119.36 835.674 119.376 835.674 119.376C835.674 119.376 835.658 119.376 835.626 119.376H832.122C832.09 119.376 832.074 119.376 832.074 119.376C832.074 119.376 832.074 119.36 832.074 119.328V115.824C832.074 115.792 832.074 115.776 832.074 115.776C832.074 115.776 832.09 115.776 832.122 115.776Z" fill="white"/>
</svg>
