<svg width="26" height="26" viewBox="0 0 26 26" fill="none" xmlns="http://www.w3.org/2000/svg">
<circle cx="11.6608" cy="14.2873" r="10.6608" stroke="white" stroke-width="2" stroke-linecap="round" stroke-dasharray="2 6"/>
<path d="M9.87492 14.6591C9.4844 15.0496 9.4844 15.6828 9.87492 16.0733C10.2654 16.4638 10.8986 16.4638 11.2891 16.0733L10.582 15.3662L9.87492 14.6591ZM25.9482 0.999999C25.9482 0.447715 25.5005 -2.75733e-07 24.9482 -5.28614e-07L15.9482 2.72176e-07C15.396 -6.49984e-08 14.9482 0.447715 14.9482 1C14.9482 1.55228 15.396 2 15.9482 2L23.9482 2L23.9482 10C23.9482 10.5523 24.396 11 24.9482 11C25.5005 11 25.9482 10.5523 25.9482 10L25.9482 0.999999ZM11.6882 15.6743C12.0787 15.2837 12.0787 14.6506 11.6882 14.26C11.2977 13.8695 10.6645 13.8695 10.274 14.26L10.9811 14.9671L11.6882 15.6743ZM14.2646 10.2694C13.8741 10.66 13.8741 11.2931 14.2646 11.6836C14.6551 12.0742 15.2883 12.0742 15.6788 11.6836L14.9717 10.9765L14.2646 10.2694ZM16.4769 10.8855C16.8675 10.495 16.8675 9.86183 16.4769 9.47131C16.0864 9.08078 15.4532 9.08078 15.0627 9.47131L15.7698 10.1784L16.4769 10.8855ZM19.0533 5.48069C18.6628 5.87122 18.6628 6.50438 19.0533 6.8949C19.4439 7.28543 20.077 7.28543 20.4676 6.8949L19.7604 6.1878L19.0533 5.48069ZM21.2657 6.09678C21.6562 5.70626 21.6562 5.07309 21.2657 4.68257C20.8751 4.29204 20.242 4.29204 19.8515 4.68257L20.5586 5.38968L21.2657 6.09678ZM23.8421 0.691954C23.4515 1.08248 23.4515 1.71564 23.8421 2.10617C24.2326 2.49669 24.8658 2.49669 25.2563 2.10617L24.5492 1.39906L23.8421 0.691954ZM10.582 15.3662L11.2891 16.0733L11.6882 15.6743L10.9811 14.9671L10.274 14.26L9.87492 14.6591L10.582 15.3662ZM14.9717 10.9765L15.6788 11.6836L16.4769 10.8855L15.7698 10.1784L15.0627 9.47131L14.2646 10.2694L14.9717 10.9765ZM19.7604 6.1878L20.4676 6.8949L21.2657 6.09678L20.5586 5.38968L19.8515 4.68257L19.0533 5.48069L19.7604 6.1878ZM24.5492 1.39906L25.2563 2.10617L25.6553 1.70711L24.9482 1L24.2411 0.292893L23.8421 0.691954L24.5492 1.39906ZM9.87492 14.6591C9.4844 15.0496 9.4844 15.6828 9.87492 16.0733C10.2654 16.4638 10.8986 16.4638 11.2891 16.0733L10.582 15.3662L9.87492 14.6591ZM25.9482 0.999999C25.9482 0.447715 25.5005 -2.75733e-07 24.9482 -5.28614e-07L15.9482 2.72176e-07C15.396 -6.49984e-08 14.9482 0.447715 14.9482 1C14.9482 1.55228 15.396 2 15.9482 2L23.9482 2L23.9482 10C23.9482 10.5523 24.396 11 24.9482 11C25.5005 11 25.9482 10.5523 25.9482 10L25.9482 0.999999ZM11.6882 15.6743C12.0787 15.2837 12.0787 14.6506 11.6882 14.26C11.2977 13.8695 10.6645 13.8695 10.274 14.26L10.9811 14.9671L11.6882 15.6743ZM14.2646 10.2694C13.8741 10.66 13.8741 11.2931 14.2646 11.6836C14.6551 12.0742 15.2883 12.0742 15.6788 11.6836L14.9717 10.9765L14.2646 10.2694ZM16.4769 10.8855C16.8675 10.495 16.8675 9.86183 16.4769 9.47131C16.0864 9.08078 15.4532 9.08078 15.0627 9.47131L15.7698 10.1784L16.4769 10.8855ZM19.0533 5.48069C18.6628 5.87122 18.6628 6.50438 19.0533 6.8949C19.4439 7.28543 20.077 7.28543 20.4676 6.8949L19.7604 6.1878L19.0533 5.48069ZM21.2657 6.09678C21.6562 5.70626 21.6562 5.07309 21.2657 4.68257C20.8751 4.29204 20.242 4.29204 19.8515 4.68257L20.5586 5.38968L21.2657 6.09678ZM23.8421 0.691954C23.4515 1.08248 23.4515 1.71564 23.8421 2.10617C24.2326 2.49669 24.8658 2.49669 25.2563 2.10617L24.5492 1.39906L23.8421 0.691954ZM10.582 15.3662L11.2891 16.0733L11.6882 15.6743L10.9811 14.9671L10.274 14.26L9.87492 14.6591L10.582 15.3662ZM14.9717 10.9765L15.6788 11.6836L16.4769 10.8855L15.7698 10.1784L15.0627 9.47131L14.2646 10.2694L14.9717 10.9765ZM19.7604 6.1878L20.4676 6.8949L21.2657 6.09678L20.5586 5.38968L19.8515 4.68257L19.0533 5.48069L19.7604 6.1878ZM24.5492 1.39906L25.2563 2.10617L25.6553 1.70711L24.9482 1L24.2411 0.292893L23.8421 0.691954L24.5492 1.39906Z" fill="white"/>
</svg>
