<svg width="492" height="132" viewBox="0 0 492 132" fill="none" xmlns="http://www.w3.org/2000/svg">
<path d="M0 77V1.48H3.84V77H0ZM7.68 77V1.48H19.2V77H7.68ZM23.04 77V1.48H34.56V77H23.04ZM38.4 77V1.48H42.24V77H38.4ZM53.76 77V1.48H57.6V77H53.76ZM61.5 77V1.48H73.02V77H61.5ZM76.86 77V1.48H80.7V77H76.86ZM84.54 77V1.48H88.38V77H84.54ZM92.22 77V1.48H103.74V77H92.22ZM115.26 77V1.48H119.1V77H115.26ZM123 77V1.48H134.52V77H123ZM138.36 77V1.48H142.2V77H138.36ZM146.04 77V1.48H157.56V77H146.04ZM161.4 77V1.48H165.24V77H161.4ZM176.76 77V1.48H180.6V77H176.76ZM184.5 77V1.48H188.34V77H184.5ZM192.18 77V1.48H196.02V77H192.18ZM199.86 77V1.48H211.38V77H199.86ZM222.9 77V1.48H234.42V77H222.9ZM238.26 77V1.48H242.1V77H238.26ZM246 77V1.48H257.52V77H246ZM261.36 77V1.48H265.2V77H261.36ZM269.04 77V1.48H280.56V77H269.04ZM292.08 77V1.48H295.92V77H292.08ZM299.76 77V1.48H303.6V77H299.76ZM307.5 77V1.48H319.02V77H307.5ZM322.86 77V1.48H334.38V77H322.86ZM338.22 77V1.48H342.06V77H338.22ZM353.58 77V1.48H357.42V77H353.58ZM361.26 77V1.48H365.1V77H361.26ZM369 77V1.48H372.84V77H369ZM376.68 77V1.48H380.52V77H376.68ZM384.36 77V1.48H395.88V77H384.36ZM399.72 77V1.48H411.24V77H399.72ZM422.76 77V1.48H426.6V77H422.76ZM430.5 77V1.48H434.34V77H430.5ZM438.18 77V1.48H449.7V77H438.18ZM453.54 77V1.48H457.38V77H453.54ZM461.22 77V1.48H472.74V77H461.22ZM484.26 77V1.48H488.1V77H484.26Z" fill="white"/>
<path d="M19.2452 86.976H22.7492C22.7812 86.976 22.7972 86.976 22.7972 86.976C22.7972 86.976 22.7972 86.992 22.7972 87.024V90.528C22.7972 90.56 22.7972 90.576 22.7972 90.576C22.7972 90.576 22.7812 90.576 22.7492 90.576H19.2452C19.2132 90.576 19.1972 90.576 19.1972 90.576C19.1972 90.576 19.1972 90.56 19.1972 90.528V87.024C19.1972 86.992 19.1972 86.976 19.1972 86.976C19.1972 86.976 19.2132 86.976 19.2452 86.976ZM24.0452 86.976H27.5492C27.5812 86.976 27.5972 86.976 27.5972 86.976C27.5972 86.976 27.5972 86.992 27.5972 87.024V90.528C27.5972 90.56 27.5972 90.576 27.5972 90.576C27.5972 90.576 27.5812 90.576 27.5492 90.576H24.0452C24.0132 90.576 23.9972 90.576 23.9972 90.576C23.9972 90.576 23.9972 90.56 23.9972 90.528V87.024C23.9972 86.992 23.9972 86.976 23.9972 86.976C23.9972 86.976 24.0132 86.976 24.0452 86.976ZM28.8452 86.976H32.3492C32.3812 86.976 32.3972 86.976 32.3972 86.976C32.3972 86.976 32.3972 86.992 32.3972 87.024V90.528C32.3972 90.56 32.3972 90.576 32.3972 90.576C32.3972 90.576 32.3812 90.576 32.3492 90.576H28.8452C28.8132 90.576 28.7972 90.576 28.7972 90.576C28.7972 90.576 28.7972 90.56 28.7972 90.528V87.024C28.7972 86.992 28.7972 86.976 28.7972 86.976C28.7972 86.976 28.8132 86.976 28.8452 86.976ZM33.6452 86.976H37.1492C37.1812 86.976 37.1972 86.976 37.1972 86.976C37.1972 86.976 37.1972 86.992 37.1972 87.024V90.528C37.1972 90.56 37.1972 90.576 37.1972 90.576C37.1972 90.576 37.1812 90.576 37.1492 90.576H33.6452C33.6132 90.576 33.5972 90.576 33.5972 90.576C33.5972 90.576 33.5972 90.56 33.5972 90.528V87.024C33.5972 86.992 33.5972 86.976 33.5972 86.976C33.5972 86.976 33.6132 86.976 33.6452 86.976ZM19.2452 91.776H22.7492C22.7812 91.776 22.7972 91.776 22.7972 91.776C22.7972 91.776 22.7972 91.792 22.7972 91.824V95.328C22.7972 95.36 22.7972 95.376 22.7972 95.376C22.7972 95.376 22.7812 95.376 22.7492 95.376H19.2452C19.2132 95.376 19.1972 95.376 19.1972 95.376C19.1972 95.376 19.1972 95.36 19.1972 95.328V91.824C19.1972 91.792 19.1972 91.776 19.1972 91.776C19.1972 91.776 19.2132 91.776 19.2452 91.776ZM38.4452 91.776H41.9492C41.9812 91.776 41.9972 91.776 41.9972 91.776C41.9972 91.776 41.9972 91.792 41.9972 91.824V95.328C41.9972 95.36 41.9972 95.376 41.9972 95.376C41.9972 95.376 41.9812 95.376 41.9492 95.376H38.4452C38.4132 95.376 38.3972 95.376 38.3972 95.376C38.3972 95.376 38.3972 95.36 38.3972 95.328V91.824C38.3972 91.792 38.3972 91.776 38.3972 91.776C38.3972 91.776 38.4132 91.776 38.4452 91.776ZM19.2452 96.576H22.7492C22.7812 96.576 22.7972 96.576 22.7972 96.576C22.7972 96.576 22.7972 96.592 22.7972 96.624V100.128C22.7972 100.16 22.7972 100.176 22.7972 100.176C22.7972 100.176 22.7812 100.176 22.7492 100.176H19.2452C19.2132 100.176 19.1972 100.176 19.1972 100.176C19.1972 100.176 19.1972 100.16 19.1972 100.128V96.624C19.1972 96.592 19.1972 96.576 19.1972 96.576C19.1972 96.576 19.2132 96.576 19.2452 96.576ZM38.4452 96.576H41.9492C41.9812 96.576 41.9972 96.576 41.9972 96.576C41.9972 96.576 41.9972 96.592 41.9972 96.624V100.128C41.9972 100.16 41.9972 100.176 41.9972 100.176C41.9972 100.176 41.9812 100.176 41.9492 100.176H38.4452C38.4132 100.176 38.3972 100.176 38.3972 100.176C38.3972 100.176 38.3972 100.16 38.3972 100.128V96.624C38.3972 96.592 38.3972 96.576 38.3972 96.576C38.3972 96.576 38.4132 96.576 38.4452 96.576ZM19.2452 101.376H22.7492C22.7812 101.376 22.7972 101.376 22.7972 101.376C22.7972 101.376 22.7972 101.392 22.7972 101.424V104.928C22.7972 104.96 22.7972 104.976 22.7972 104.976C22.7972 104.976 22.7812 104.976 22.7492 104.976H19.2452C19.2132 104.976 19.1972 104.976 19.1972 104.976C19.1972 104.976 19.1972 104.96 19.1972 104.928V101.424C19.1972 101.392 19.1972 101.376 19.1972 101.376C19.1972 101.376 19.2132 101.376 19.2452 101.376ZM24.0452 101.376H27.5492C27.5812 101.376 27.5972 101.376 27.5972 101.376C27.5972 101.376 27.5972 101.392 27.5972 101.424V104.928C27.5972 104.96 27.5972 104.976 27.5972 104.976C27.5972 104.976 27.5812 104.976 27.5492 104.976H24.0452C24.0132 104.976 23.9972 104.976 23.9972 104.976C23.9972 104.976 23.9972 104.96 23.9972 104.928V101.424C23.9972 101.392 23.9972 101.376 23.9972 101.376C23.9972 101.376 24.0132 101.376 24.0452 101.376ZM28.8452 101.376H32.3492C32.3812 101.376 32.3972 101.376 32.3972 101.376C32.3972 101.376 32.3972 101.392 32.3972 101.424V104.928C32.3972 104.96 32.3972 104.976 32.3972 104.976C32.3972 104.976 32.3812 104.976 32.3492 104.976H28.8452C28.8132 104.976 28.7972 104.976 28.7972 104.976C28.7972 104.976 28.7972 104.96 28.7972 104.928V101.424C28.7972 101.392 28.7972 101.376 28.7972 101.376C28.7972 101.376 28.8132 101.376 28.8452 101.376ZM33.6452 101.376H37.1492C37.1812 101.376 37.1972 101.376 37.1972 101.376C37.1972 101.376 37.1972 101.392 37.1972 101.424V104.928C37.1972 104.96 37.1972 104.976 37.1972 104.976C37.1972 104.976 37.1812 104.976 37.1492 104.976H33.6452C33.6132 104.976 33.5972 104.976 33.5972 104.976C33.5972 104.976 33.5972 104.96 33.5972 104.928V101.424C33.5972 101.392 33.5972 101.376 33.5972 101.376C33.5972 101.376 33.6132 101.376 33.6452 101.376ZM19.2452 106.176H22.7492C22.7812 106.176 22.7972 106.176 22.7972 106.176C22.7972 106.176 22.7972 106.192 22.7972 106.224V109.728C22.7972 109.76 22.7972 109.776 22.7972 109.776C22.7972 109.776 22.7812 109.776 22.7492 109.776H19.2452C19.2132 109.776 19.1972 109.776 19.1972 109.776C19.1972 109.776 19.1972 109.76 19.1972 109.728V106.224C19.1972 106.192 19.1972 106.176 19.1972 106.176C19.1972 106.176 19.2132 106.176 19.2452 106.176ZM19.2452 110.976H22.7492C22.7812 110.976 22.7972 110.976 22.7972 110.976C22.7972 110.976 22.7972 110.992 22.7972 111.024V114.528C22.7972 114.56 22.7972 114.576 22.7972 114.576C22.7972 114.576 22.7812 114.576 22.7492 114.576H19.2452C19.2132 114.576 19.1972 114.576 19.1972 114.576C19.1972 114.576 19.1972 114.56 19.1972 114.528V111.024C19.1972 110.992 19.1972 110.976 19.1972 110.976C19.1972 110.976 19.2132 110.976 19.2452 110.976ZM19.2452 115.776H22.7492C22.7812 115.776 22.7972 115.776 22.7972 115.776C22.7972 115.776 22.7972 115.792 22.7972 115.824V119.328C22.7972 119.36 22.7972 119.376 22.7972 119.376C22.7972 119.376 22.7812 119.376 22.7492 119.376H19.2452C19.2132 119.376 19.1972 119.376 19.1972 119.376C19.1972 119.376 19.1972 119.36 19.1972 119.328V115.824C19.1972 115.792 19.1972 115.776 19.1972 115.776C19.1972 115.776 19.2132 115.776 19.2452 115.776ZM80.6665 86.976H84.1705C84.2025 86.976 84.2185 86.976 84.2185 86.976C84.2185 86.976 84.2185 86.992 84.2185 87.024V90.528C84.2185 90.56 84.2185 90.576 84.2185 90.576C84.2185 90.576 84.2025 90.576 84.1705 90.576H80.6665C80.6345 90.576 80.6185 90.576 80.6185 90.576C80.6185 90.576 80.6185 90.56 80.6185 90.528V87.024C80.6185 86.992 80.6185 86.976 80.6185 86.976C80.6185 86.976 80.6345 86.976 80.6665 86.976ZM85.4665 86.976H88.9705C89.0025 86.976 89.0185 86.976 89.0185 86.976C89.0185 86.976 89.0185 86.992 89.0185 87.024V90.528C89.0185 90.56 89.0185 90.576 89.0185 90.576C89.0185 90.576 89.0025 90.576 88.9705 90.576H85.4665C85.4345 90.576 85.4185 90.576 85.4185 90.576C85.4185 90.576 85.4185 90.56 85.4185 90.528V87.024C85.4185 86.992 85.4185 86.976 85.4185 86.976C85.4185 86.976 85.4345 86.976 85.4665 86.976ZM90.2665 86.976H93.7705C93.8025 86.976 93.8185 86.976 93.8185 86.976C93.8185 86.976 93.8185 86.992 93.8185 87.024V90.528C93.8185 90.56 93.8185 90.576 93.8185 90.576C93.8185 90.576 93.8025 90.576 93.7705 90.576H90.2665C90.2345 90.576 90.2185 90.576 90.2185 90.576C90.2185 90.576 90.2185 90.56 90.2185 90.528V87.024C90.2185 86.992 90.2185 86.976 90.2185 86.976C90.2185 86.976 90.2345 86.976 90.2665 86.976ZM95.0665 86.976H98.5705C98.6025 86.976 98.6185 86.976 98.6185 86.976C98.6185 86.976 98.6185 86.992 98.6185 87.024V90.528C98.6185 90.56 98.6185 90.576 98.6185 90.576C98.6185 90.576 98.6025 90.576 98.5705 90.576H95.0665C95.0345 90.576 95.0185 90.576 95.0185 90.576C95.0185 90.576 95.0185 90.56 95.0185 90.528V87.024C95.0185 86.992 95.0185 86.976 95.0185 86.976C95.0185 86.976 95.0345 86.976 95.0665 86.976ZM80.6665 91.776H84.1705C84.2025 91.776 84.2185 91.776 84.2185 91.776C84.2185 91.776 84.2185 91.792 84.2185 91.824V95.328C84.2185 95.36 84.2185 95.376 84.2185 95.376C84.2185 95.376 84.2025 95.376 84.1705 95.376H80.6665C80.6345 95.376 80.6185 95.376 80.6185 95.376C80.6185 95.376 80.6185 95.36 80.6185 95.328V91.824C80.6185 91.792 80.6185 91.776 80.6185 91.776C80.6185 91.776 80.6345 91.776 80.6665 91.776ZM99.8665 91.776H103.37C103.402 91.776 103.418 91.776 103.418 91.776C103.418 91.776 103.418 91.792 103.418 91.824V95.328C103.418 95.36 103.418 95.376 103.418 95.376C103.418 95.376 103.402 95.376 103.37 95.376H99.8665C99.8345 95.376 99.8185 95.376 99.8185 95.376C99.8185 95.376 99.8185 95.36 99.8185 95.328V91.824C99.8185 91.792 99.8185 91.776 99.8185 91.776C99.8185 91.776 99.8345 91.776 99.8665 91.776ZM80.6665 96.576H84.1705C84.2025 96.576 84.2185 96.576 84.2185 96.576C84.2185 96.576 84.2185 96.592 84.2185 96.624V100.128C84.2185 100.16 84.2185 100.176 84.2185 100.176C84.2185 100.176 84.2025 100.176 84.1705 100.176H80.6665C80.6345 100.176 80.6185 100.176 80.6185 100.176C80.6185 100.176 80.6185 100.16 80.6185 100.128V96.624C80.6185 96.592 80.6185 96.576 80.6185 96.576C80.6185 96.576 80.6345 96.576 80.6665 96.576ZM99.8665 96.576H103.37C103.402 96.576 103.418 96.576 103.418 96.576C103.418 96.576 103.418 96.592 103.418 96.624V100.128C103.418 100.16 103.418 100.176 103.418 100.176C103.418 100.176 103.402 100.176 103.37 100.176H99.8665C99.8345 100.176 99.8185 100.176 99.8185 100.176C99.8185 100.176 99.8185 100.16 99.8185 100.128V96.624C99.8185 96.592 99.8185 96.576 99.8185 96.576C99.8185 96.576 99.8345 96.576 99.8665 96.576ZM80.6665 101.376H84.1705C84.2025 101.376 84.2185 101.376 84.2185 101.376C84.2185 101.376 84.2185 101.392 84.2185 101.424V104.928C84.2185 104.96 84.2185 104.976 84.2185 104.976C84.2185 104.976 84.2025 104.976 84.1705 104.976H80.6665C80.6345 104.976 80.6185 104.976 80.6185 104.976C80.6185 104.976 80.6185 104.96 80.6185 104.928V101.424C80.6185 101.392 80.6185 101.376 80.6185 101.376C80.6185 101.376 80.6345 101.376 80.6665 101.376ZM85.4665 101.376H88.9705C89.0025 101.376 89.0185 101.376 89.0185 101.376C89.0185 101.376 89.0185 101.392 89.0185 101.424V104.928C89.0185 104.96 89.0185 104.976 89.0185 104.976C89.0185 104.976 89.0025 104.976 88.9705 104.976H85.4665C85.4345 104.976 85.4185 104.976 85.4185 104.976C85.4185 104.976 85.4185 104.96 85.4185 104.928V101.424C85.4185 101.392 85.4185 101.376 85.4185 101.376C85.4185 101.376 85.4345 101.376 85.4665 101.376ZM90.2665 101.376H93.7705C93.8025 101.376 93.8185 101.376 93.8185 101.376C93.8185 101.376 93.8185 101.392 93.8185 101.424V104.928C93.8185 104.96 93.8185 104.976 93.8185 104.976C93.8185 104.976 93.8025 104.976 93.7705 104.976H90.2665C90.2345 104.976 90.2185 104.976 90.2185 104.976C90.2185 104.976 90.2185 104.96 90.2185 104.928V101.424C90.2185 101.392 90.2185 101.376 90.2185 101.376C90.2185 101.376 90.2345 101.376 90.2665 101.376ZM95.0665 101.376H98.5705C98.6025 101.376 98.6185 101.376 98.6185 101.376C98.6185 101.376 98.6185 101.392 98.6185 101.424V104.928C98.6185 104.96 98.6185 104.976 98.6185 104.976C98.6185 104.976 98.6025 104.976 98.5705 104.976H95.0665C95.0345 104.976 95.0185 104.976 95.0185 104.976C95.0185 104.976 95.0185 104.96 95.0185 104.928V101.424C95.0185 101.392 95.0185 101.376 95.0185 101.376C95.0185 101.376 95.0345 101.376 95.0665 101.376ZM80.6665 106.176H84.1705C84.2025 106.176 84.2185 106.176 84.2185 106.176C84.2185 106.176 84.2185 106.192 84.2185 106.224V109.728C84.2185 109.76 84.2185 109.776 84.2185 109.776C84.2185 109.776 84.2025 109.776 84.1705 109.776H80.6665C80.6345 109.776 80.6185 109.776 80.6185 109.776C80.6185 109.776 80.6185 109.76 80.6185 109.728V106.224C80.6185 106.192 80.6185 106.176 80.6185 106.176C80.6185 106.176 80.6345 106.176 80.6665 106.176ZM90.2665 106.176H93.7705C93.8025 106.176 93.8185 106.176 93.8185 106.176C93.8185 106.176 93.8185 106.192 93.8185 106.224V109.728C93.8185 109.76 93.8185 109.776 93.8185 109.776C93.8185 109.776 93.8025 109.776 93.7705 109.776H90.2665C90.2345 109.776 90.2185 109.776 90.2185 109.776C90.2185 109.776 90.2185 109.76 90.2185 109.728V106.224C90.2185 106.192 90.2185 106.176 90.2185 106.176C90.2185 106.176 90.2345 106.176 90.2665 106.176ZM80.6665 110.976H84.1705C84.2025 110.976 84.2185 110.976 84.2185 110.976C84.2185 110.976 84.2185 110.992 84.2185 111.024V114.528C84.2185 114.56 84.2185 114.576 84.2185 114.576C84.2185 114.576 84.2025 114.576 84.1705 114.576H80.6665C80.6345 114.576 80.6185 114.576 80.6185 114.576C80.6185 114.576 80.6185 114.56 80.6185 114.528V111.024C80.6185 110.992 80.6185 110.976 80.6185 110.976C80.6185 110.976 80.6345 110.976 80.6665 110.976ZM95.0665 110.976H98.5705C98.6025 110.976 98.6185 110.976 98.6185 110.976C98.6185 110.976 98.6185 110.992 98.6185 111.024V114.528C98.6185 114.56 98.6185 114.576 98.6185 114.576C98.6185 114.576 98.6025 114.576 98.5705 114.576H95.0665C95.0345 114.576 95.0185 114.576 95.0185 114.576C95.0185 114.576 95.0185 114.56 95.0185 114.528V111.024C95.0185 110.992 95.0185 110.976 95.0185 110.976C95.0185 110.976 95.0345 110.976 95.0665 110.976ZM80.6665 115.776H84.1705C84.2025 115.776 84.2185 115.776 84.2185 115.776C84.2185 115.776 84.2185 115.792 84.2185 115.824V119.328C84.2185 119.36 84.2185 119.376 84.2185 119.376C84.2185 119.376 84.2025 119.376 84.1705 119.376H80.6665C80.6345 119.376 80.6185 119.376 80.6185 119.376C80.6185 119.376 80.6185 119.36 80.6185 119.328V115.824C80.6185 115.792 80.6185 115.776 80.6185 115.776C80.6185 115.776 80.6345 115.776 80.6665 115.776ZM99.8665 115.776H103.37C103.402 115.776 103.418 115.776 103.418 115.776C103.418 115.776 103.418 115.792 103.418 115.824V119.328C103.418 119.36 103.418 119.376 103.418 119.376C103.418 119.376 103.402 119.376 103.37 119.376H99.8665C99.8345 119.376 99.8185 119.376 99.8185 119.376C99.8185 119.376 99.8185 119.36 99.8185 119.328V115.824C99.8185 115.792 99.8185 115.776 99.8185 115.776C99.8185 115.776 99.8345 115.776 99.8665 115.776ZM146.888 86.976H150.392C150.424 86.976 150.44 86.976 150.44 86.976C150.44 86.976 150.44 86.992 150.44 87.024V90.528C150.44 90.56 150.44 90.576 150.44 90.576C150.44 90.576 150.424 90.576 150.392 90.576H146.888C146.856 90.576 146.84 90.576 146.84 90.576C146.84 90.576 146.84 90.56 146.84 90.528V87.024C146.84 86.992 146.84 86.976 146.84 86.976C146.84 86.976 146.856 86.976 146.888 86.976ZM151.688 86.976H155.192C155.224 86.976 155.24 86.976 155.24 86.976C155.24 86.976 155.24 86.992 155.24 87.024V90.528C155.24 90.56 155.24 90.576 155.24 90.576C155.24 90.576 155.224 90.576 155.192 90.576H151.688C151.656 90.576 151.64 90.576 151.64 90.576C151.64 90.576 151.64 90.56 151.64 90.528V87.024C151.64 86.992 151.64 86.976 151.64 86.976C151.64 86.976 151.656 86.976 151.688 86.976ZM156.488 86.976H159.992C160.024 86.976 160.04 86.976 160.04 86.976C160.04 86.976 160.04 86.992 160.04 87.024V90.528C160.04 90.56 160.04 90.576 160.04 90.576C160.04 90.576 160.024 90.576 159.992 90.576H156.488C156.456 90.576 156.44 90.576 156.44 90.576C156.44 90.576 156.44 90.56 156.44 90.528V87.024C156.44 86.992 156.44 86.976 156.44 86.976C156.44 86.976 156.456 86.976 156.488 86.976ZM142.088 91.776H145.592C145.624 91.776 145.64 91.776 145.64 91.776C145.64 91.776 145.64 91.792 145.64 91.824V95.328C145.64 95.36 145.64 95.376 145.64 95.376C145.64 95.376 145.624 95.376 145.592 95.376H142.088C142.056 95.376 142.04 95.376 142.04 95.376C142.04 95.376 142.04 95.36 142.04 95.328V91.824C142.04 91.792 142.04 91.776 142.04 91.776C142.04 91.776 142.056 91.776 142.088 91.776ZM161.288 91.776H164.792C164.824 91.776 164.84 91.776 164.84 91.776C164.84 91.776 164.84 91.792 164.84 91.824V95.328C164.84 95.36 164.84 95.376 164.84 95.376C164.84 95.376 164.824 95.376 164.792 95.376H161.288C161.256 95.376 161.24 95.376 161.24 95.376C161.24 95.376 161.24 95.36 161.24 95.328V91.824C161.24 91.792 161.24 91.776 161.24 91.776C161.24 91.776 161.256 91.776 161.288 91.776ZM142.088 96.576H145.592C145.624 96.576 145.64 96.576 145.64 96.576C145.64 96.576 145.64 96.592 145.64 96.624V100.128C145.64 100.16 145.64 100.176 145.64 100.176C145.64 100.176 145.624 100.176 145.592 100.176H142.088C142.056 100.176 142.04 100.176 142.04 100.176C142.04 100.176 142.04 100.16 142.04 100.128V96.624C142.04 96.592 142.04 96.576 142.04 96.576C142.04 96.576 142.056 96.576 142.088 96.576ZM161.288 96.576H164.792C164.824 96.576 164.84 96.576 164.84 96.576C164.84 96.576 164.84 96.592 164.84 96.624V100.128C164.84 100.16 164.84 100.176 164.84 100.176C164.84 100.176 164.824 100.176 164.792 100.176H161.288C161.256 100.176 161.24 100.176 161.24 100.176C161.24 100.176 161.24 100.16 161.24 100.128V96.624C161.24 96.592 161.24 96.576 161.24 96.576C161.24 96.576 161.256 96.576 161.288 96.576ZM142.088 101.376H145.592C145.624 101.376 145.64 101.376 145.64 101.376C145.64 101.376 145.64 101.392 145.64 101.424V104.928C145.64 104.96 145.64 104.976 145.64 104.976C145.64 104.976 145.624 104.976 145.592 104.976H142.088C142.056 104.976 142.04 104.976 142.04 104.976C142.04 104.976 142.04 104.96 142.04 104.928V101.424C142.04 101.392 142.04 101.376 142.04 101.376C142.04 101.376 142.056 101.376 142.088 101.376ZM161.288 101.376H164.792C164.824 101.376 164.84 101.376 164.84 101.376C164.84 101.376 164.84 101.392 164.84 101.424V104.928C164.84 104.96 164.84 104.976 164.84 104.976C164.84 104.976 164.824 104.976 164.792 104.976H161.288C161.256 104.976 161.24 104.976 161.24 104.976C161.24 104.976 161.24 104.96 161.24 104.928V101.424C161.24 101.392 161.24 101.376 161.24 101.376C161.24 101.376 161.256 101.376 161.288 101.376ZM142.088 106.176H145.592C145.624 106.176 145.64 106.176 145.64 106.176C145.64 106.176 145.64 106.192 145.64 106.224V109.728C145.64 109.76 145.64 109.776 145.64 109.776C145.64 109.776 145.624 109.776 145.592 109.776H142.088C142.056 109.776 142.04 109.776 142.04 109.776C142.04 109.776 142.04 109.76 142.04 109.728V106.224C142.04 106.192 142.04 106.176 142.04 106.176C142.04 106.176 142.056 106.176 142.088 106.176ZM161.288 106.176H164.792C164.824 106.176 164.84 106.176 164.84 106.176C164.84 106.176 164.84 106.192 164.84 106.224V109.728C164.84 109.76 164.84 109.776 164.84 109.776C164.84 109.776 164.824 109.776 164.792 109.776H161.288C161.256 109.776 161.24 109.776 161.24 109.776C161.24 109.776 161.24 109.76 161.24 109.728V106.224C161.24 106.192 161.24 106.176 161.24 106.176C161.24 106.176 161.256 106.176 161.288 106.176ZM142.088 110.976H145.592C145.624 110.976 145.64 110.976 145.64 110.976C145.64 110.976 145.64 110.992 145.64 111.024V114.528C145.64 114.56 145.64 114.576 145.64 114.576C145.64 114.576 145.624 114.576 145.592 114.576H142.088C142.056 114.576 142.04 114.576 142.04 114.576C142.04 114.576 142.04 114.56 142.04 114.528V111.024C142.04 110.992 142.04 110.976 142.04 110.976C142.04 110.976 142.056 110.976 142.088 110.976ZM161.288 110.976H164.792C164.824 110.976 164.84 110.976 164.84 110.976C164.84 110.976 164.84 110.992 164.84 111.024V114.528C164.84 114.56 164.84 114.576 164.84 114.576C164.84 114.576 164.824 114.576 164.792 114.576H161.288C161.256 114.576 161.24 114.576 161.24 114.576C161.24 114.576 161.24 114.56 161.24 114.528V111.024C161.24 110.992 161.24 110.976 161.24 110.976C161.24 110.976 161.256 110.976 161.288 110.976ZM146.888 115.776H150.392C150.424 115.776 150.44 115.776 150.44 115.776C150.44 115.776 150.44 115.792 150.44 115.824V119.328C150.44 119.36 150.44 119.376 150.44 119.376C150.44 119.376 150.424 119.376 150.392 119.376H146.888C146.856 119.376 146.84 119.376 146.84 119.376C146.84 119.376 146.84 119.36 146.84 119.328V115.824C146.84 115.792 146.84 115.776 146.84 115.776C146.84 115.776 146.856 115.776 146.888 115.776ZM151.688 115.776H155.192C155.224 115.776 155.24 115.776 155.24 115.776C155.24 115.776 155.24 115.792 155.24 115.824V119.328C155.24 119.36 155.24 119.376 155.24 119.376C155.24 119.376 155.224 119.376 155.192 119.376H151.688C151.656 119.376 151.64 119.376 151.64 119.376C151.64 119.376 151.64 119.36 151.64 119.328V115.824C151.64 115.792 151.64 115.776 151.64 115.776C151.64 115.776 151.656 115.776 151.688 115.776ZM156.488 115.776H159.992C160.024 115.776 160.04 115.776 160.04 115.776C160.04 115.776 160.04 115.792 160.04 115.824V119.328C160.04 119.36 160.04 119.376 160.04 119.376C160.04 119.376 160.024 119.376 159.992 119.376H156.488C156.456 119.376 156.44 119.376 156.44 119.376C156.44 119.376 156.44 119.36 156.44 119.328V115.824C156.44 115.792 156.44 115.776 156.44 115.776C156.44 115.776 156.456 115.776 156.488 115.776ZM213.109 86.976H216.613C216.645 86.976 216.661 86.976 216.661 86.976C216.661 86.976 216.661 86.992 216.661 87.024V90.528C216.661 90.56 216.661 90.576 216.661 90.576C216.661 90.576 216.645 90.576 216.613 90.576H213.109C213.077 90.576 213.061 90.576 213.061 90.576C213.061 90.576 213.061 90.56 213.061 90.528V87.024C213.061 86.992 213.061 86.976 213.061 86.976C213.061 86.976 213.077 86.976 213.109 86.976ZM217.909 86.976H221.413C221.445 86.976 221.461 86.976 221.461 86.976C221.461 86.976 221.461 86.992 221.461 87.024V90.528C221.461 90.56 221.461 90.576 221.461 90.576C221.461 90.576 221.445 90.576 221.413 90.576H217.909C217.877 90.576 217.861 90.576 217.861 90.576C217.861 90.576 217.861 90.56 217.861 90.528V87.024C217.861 86.992 217.861 86.976 217.861 86.976C217.861 86.976 217.877 86.976 217.909 86.976ZM222.709 86.976H226.213C226.245 86.976 226.261 86.976 226.261 86.976C226.261 86.976 226.261 86.992 226.261 87.024V90.528C226.261 90.56 226.261 90.576 226.261 90.576C226.261 90.576 226.245 90.576 226.213 90.576H222.709C222.677 90.576 222.661 90.576 222.661 90.576C222.661 90.576 222.661 90.56 222.661 90.528V87.024C222.661 86.992 222.661 86.976 222.661 86.976C222.661 86.976 222.677 86.976 222.709 86.976ZM217.909 91.776H221.413C221.445 91.776 221.461 91.776 221.461 91.776C221.461 91.776 221.461 91.792 221.461 91.824V95.328C221.461 95.36 221.461 95.376 221.461 95.376C221.461 95.376 221.445 95.376 221.413 95.376H217.909C217.877 95.376 217.861 95.376 217.861 95.376C217.861 95.376 217.861 95.36 217.861 95.328V91.824C217.861 91.792 217.861 91.776 217.861 91.776C217.861 91.776 217.877 91.776 217.909 91.776ZM217.909 96.576H221.413C221.445 96.576 221.461 96.576 221.461 96.576C221.461 96.576 221.461 96.592 221.461 96.624V100.128C221.461 100.16 221.461 100.176 221.461 100.176C221.461 100.176 221.445 100.176 221.413 100.176H217.909C217.877 100.176 217.861 100.176 217.861 100.176C217.861 100.176 217.861 100.16 217.861 100.128V96.624C217.861 96.592 217.861 96.576 217.861 96.576C217.861 96.576 217.877 96.576 217.909 96.576ZM217.909 101.376H221.413C221.445 101.376 221.461 101.376 221.461 101.376C221.461 101.376 221.461 101.392 221.461 101.424V104.928C221.461 104.96 221.461 104.976 221.461 104.976C221.461 104.976 221.445 104.976 221.413 104.976H217.909C217.877 104.976 217.861 104.976 217.861 104.976C217.861 104.976 217.861 104.96 217.861 104.928V101.424C217.861 101.392 217.861 101.376 217.861 101.376C217.861 101.376 217.877 101.376 217.909 101.376ZM217.909 106.176H221.413C221.445 106.176 221.461 106.176 221.461 106.176C221.461 106.176 221.461 106.192 221.461 106.224V109.728C221.461 109.76 221.461 109.776 221.461 109.776C221.461 109.776 221.445 109.776 221.413 109.776H217.909C217.877 109.776 217.861 109.776 217.861 109.776C217.861 109.776 217.861 109.76 217.861 109.728V106.224C217.861 106.192 217.861 106.176 217.861 106.176C217.861 106.176 217.877 106.176 217.909 106.176ZM203.509 110.976H207.013C207.045 110.976 207.061 110.976 207.061 110.976C207.061 110.976 207.061 110.992 207.061 111.024V114.528C207.061 114.56 207.061 114.576 207.061 114.576C207.061 114.576 207.045 114.576 207.013 114.576H203.509C203.477 114.576 203.461 114.576 203.461 114.576C203.461 114.576 203.461 114.56 203.461 114.528V111.024C203.461 110.992 203.461 110.976 203.461 110.976C203.461 110.976 203.477 110.976 203.509 110.976ZM217.909 110.976H221.413C221.445 110.976 221.461 110.976 221.461 110.976C221.461 110.976 221.461 110.992 221.461 111.024V114.528C221.461 114.56 221.461 114.576 221.461 114.576C221.461 114.576 221.445 114.576 221.413 114.576H217.909C217.877 114.576 217.861 114.576 217.861 114.576C217.861 114.576 217.861 114.56 217.861 114.528V111.024C217.861 110.992 217.861 110.976 217.861 110.976C217.861 110.976 217.877 110.976 217.909 110.976ZM208.309 115.776H211.813C211.845 115.776 211.861 115.776 211.861 115.776C211.861 115.776 211.861 115.792 211.861 115.824V119.328C211.861 119.36 211.861 119.376 211.861 119.376C211.861 119.376 211.845 119.376 211.813 119.376H208.309C208.277 119.376 208.261 119.376 208.261 119.376C208.261 119.376 208.261 119.36 208.261 119.328V115.824C208.261 115.792 208.261 115.776 208.261 115.776C208.261 115.776 208.277 115.776 208.309 115.776ZM213.109 115.776H216.613C216.645 115.776 216.661 115.776 216.661 115.776C216.661 115.776 216.661 115.792 216.661 115.824V119.328C216.661 119.36 216.661 119.376 216.661 119.376C216.661 119.376 216.645 119.376 216.613 119.376H213.109C213.077 119.376 213.061 119.376 213.061 119.376C213.061 119.376 213.061 119.36 213.061 119.328V115.824C213.061 115.792 213.061 115.776 213.061 115.776C213.061 115.776 213.077 115.776 213.109 115.776ZM264.93 86.976H268.434C268.466 86.976 268.482 86.976 268.482 86.976C268.482 86.976 268.482 86.992 268.482 87.024V90.528C268.482 90.56 268.482 90.576 268.482 90.576C268.482 90.576 268.466 90.576 268.434 90.576H264.93C264.898 90.576 264.882 90.576 264.882 90.576C264.882 90.576 264.882 90.56 264.882 90.528V87.024C264.882 86.992 264.882 86.976 264.882 86.976C264.882 86.976 264.898 86.976 264.93 86.976ZM269.73 86.976H273.234C273.266 86.976 273.282 86.976 273.282 86.976C273.282 86.976 273.282 86.992 273.282 87.024V90.528C273.282 90.56 273.282 90.576 273.282 90.576C273.282 90.576 273.266 90.576 273.234 90.576H269.73C269.698 90.576 269.682 90.576 269.682 90.576C269.682 90.576 269.682 90.56 269.682 90.528V87.024C269.682 86.992 269.682 86.976 269.682 86.976C269.682 86.976 269.698 86.976 269.73 86.976ZM274.53 86.976H278.034C278.066 86.976 278.082 86.976 278.082 86.976C278.082 86.976 278.082 86.992 278.082 87.024V90.528C278.082 90.56 278.082 90.576 278.082 90.576C278.082 90.576 278.066 90.576 278.034 90.576H274.53C274.498 90.576 274.482 90.576 274.482 90.576C274.482 90.576 274.482 90.56 274.482 90.528V87.024C274.482 86.992 274.482 86.976 274.482 86.976C274.482 86.976 274.498 86.976 274.53 86.976ZM279.33 86.976H282.834C282.866 86.976 282.882 86.976 282.882 86.976C282.882 86.976 282.882 86.992 282.882 87.024V90.528C282.882 90.56 282.882 90.576 282.882 90.576C282.882 90.576 282.866 90.576 282.834 90.576H279.33C279.298 90.576 279.282 90.576 279.282 90.576C279.282 90.576 279.282 90.56 279.282 90.528V87.024C279.282 86.992 279.282 86.976 279.282 86.976C279.282 86.976 279.298 86.976 279.33 86.976ZM284.13 86.976H287.634C287.666 86.976 287.682 86.976 287.682 86.976C287.682 86.976 287.682 86.992 287.682 87.024V90.528C287.682 90.56 287.682 90.576 287.682 90.576C287.682 90.576 287.666 90.576 287.634 90.576H284.13C284.098 90.576 284.082 90.576 284.082 90.576C284.082 90.576 284.082 90.56 284.082 90.528V87.024C284.082 86.992 284.082 86.976 284.082 86.976C284.082 86.976 284.098 86.976 284.13 86.976ZM264.93 91.776H268.434C268.466 91.776 268.482 91.776 268.482 91.776C268.482 91.776 268.482 91.792 268.482 91.824V95.328C268.482 95.36 268.482 95.376 268.482 95.376C268.482 95.376 268.466 95.376 268.434 95.376H264.93C264.898 95.376 264.882 95.376 264.882 95.376C264.882 95.376 264.882 95.36 264.882 95.328V91.824C264.882 91.792 264.882 91.776 264.882 91.776C264.882 91.776 264.898 91.776 264.93 91.776ZM264.93 96.576H268.434C268.466 96.576 268.482 96.576 268.482 96.576C268.482 96.576 268.482 96.592 268.482 96.624V100.128C268.482 100.16 268.482 100.176 268.482 100.176C268.482 100.176 268.466 100.176 268.434 100.176H264.93C264.898 100.176 264.882 100.176 264.882 100.176C264.882 100.176 264.882 100.16 264.882 100.128V96.624C264.882 96.592 264.882 96.576 264.882 96.576C264.882 96.576 264.898 96.576 264.93 96.576ZM264.93 101.376H268.434C268.466 101.376 268.482 101.376 268.482 101.376C268.482 101.376 268.482 101.392 268.482 101.424V104.928C268.482 104.96 268.482 104.976 268.482 104.976C268.482 104.976 268.466 104.976 268.434 104.976H264.93C264.898 104.976 264.882 104.976 264.882 104.976C264.882 104.976 264.882 104.96 264.882 104.928V101.424C264.882 101.392 264.882 101.376 264.882 101.376C264.882 101.376 264.898 101.376 264.93 101.376ZM269.73 101.376H273.234C273.266 101.376 273.282 101.376 273.282 101.376C273.282 101.376 273.282 101.392 273.282 101.424V104.928C273.282 104.96 273.282 104.976 273.282 104.976C273.282 104.976 273.266 104.976 273.234 104.976H269.73C269.698 104.976 269.682 104.976 269.682 104.976C269.682 104.976 269.682 104.96 269.682 104.928V101.424C269.682 101.392 269.682 101.376 269.682 101.376C269.682 101.376 269.698 101.376 269.73 101.376ZM274.53 101.376H278.034C278.066 101.376 278.082 101.376 278.082 101.376C278.082 101.376 278.082 101.392 278.082 101.424V104.928C278.082 104.96 278.082 104.976 278.082 104.976C278.082 104.976 278.066 104.976 278.034 104.976H274.53C274.498 104.976 274.482 104.976 274.482 104.976C274.482 104.976 274.482 104.96 274.482 104.928V101.424C274.482 101.392 274.482 101.376 274.482 101.376C274.482 101.376 274.498 101.376 274.53 101.376ZM279.33 101.376H282.834C282.866 101.376 282.882 101.376 282.882 101.376C282.882 101.376 282.882 101.392 282.882 101.424V104.928C282.882 104.96 282.882 104.976 282.882 104.976C282.882 104.976 282.866 104.976 282.834 104.976H279.33C279.298 104.976 279.282 104.976 279.282 104.976C279.282 104.976 279.282 104.96 279.282 104.928V101.424C279.282 101.392 279.282 101.376 279.282 101.376C279.282 101.376 279.298 101.376 279.33 101.376ZM264.93 106.176H268.434C268.466 106.176 268.482 106.176 268.482 106.176C268.482 106.176 268.482 106.192 268.482 106.224V109.728C268.482 109.76 268.482 109.776 268.482 109.776C268.482 109.776 268.466 109.776 268.434 109.776H264.93C264.898 109.776 264.882 109.776 264.882 109.776C264.882 109.776 264.882 109.76 264.882 109.728V106.224C264.882 106.192 264.882 106.176 264.882 106.176C264.882 106.176 264.898 106.176 264.93 106.176ZM264.93 110.976H268.434C268.466 110.976 268.482 110.976 268.482 110.976C268.482 110.976 268.482 110.992 268.482 111.024V114.528C268.482 114.56 268.482 114.576 268.482 114.576C268.482 114.576 268.466 114.576 268.434 114.576H264.93C264.898 114.576 264.882 114.576 264.882 114.576C264.882 114.576 264.882 114.56 264.882 114.528V111.024C264.882 110.992 264.882 110.976 264.882 110.976C264.882 110.976 264.898 110.976 264.93 110.976ZM264.93 115.776H268.434C268.466 115.776 268.482 115.776 268.482 115.776C268.482 115.776 268.482 115.792 268.482 115.824V119.328C268.482 119.36 268.482 119.376 268.482 119.376C268.482 119.376 268.466 119.376 268.434 119.376H264.93C264.898 119.376 264.882 119.376 264.882 119.376C264.882 119.376 264.882 119.36 264.882 119.328V115.824C264.882 115.792 264.882 115.776 264.882 115.776C264.882 115.776 264.898 115.776 264.93 115.776ZM269.73 115.776H273.234C273.266 115.776 273.282 115.776 273.282 115.776C273.282 115.776 273.282 115.792 273.282 115.824V119.328C273.282 119.36 273.282 119.376 273.282 119.376C273.282 119.376 273.266 119.376 273.234 119.376H269.73C269.698 119.376 269.682 119.376 269.682 119.376C269.682 119.376 269.682 119.36 269.682 119.328V115.824C269.682 115.792 269.682 115.776 269.682 115.776C269.682 115.776 269.698 115.776 269.73 115.776ZM274.53 115.776H278.034C278.066 115.776 278.082 115.776 278.082 115.776C278.082 115.776 278.082 115.792 278.082 115.824V119.328C278.082 119.36 278.082 119.376 278.082 119.376C278.082 119.376 278.066 119.376 278.034 119.376H274.53C274.498 119.376 274.482 119.376 274.482 119.376C274.482 119.376 274.482 119.36 274.482 119.328V115.824C274.482 115.792 274.482 115.776 274.482 115.776C274.482 115.776 274.498 115.776 274.53 115.776ZM279.33 115.776H282.834C282.866 115.776 282.882 115.776 282.882 115.776C282.882 115.776 282.882 115.792 282.882 115.824V119.328C282.882 119.36 282.882 119.376 282.882 119.376C282.882 119.376 282.866 119.376 282.834 119.376H279.33C279.298 119.376 279.282 119.376 279.282 119.376C279.282 119.376 279.282 119.36 279.282 119.328V115.824C279.282 115.792 279.282 115.776 279.282 115.776C279.282 115.776 279.298 115.776 279.33 115.776ZM284.13 115.776H287.634C287.666 115.776 287.682 115.776 287.682 115.776C287.682 115.776 287.682 115.792 287.682 115.824V119.328C287.682 119.36 287.682 119.376 287.682 119.376C287.682 119.376 287.666 119.376 287.634 119.376H284.13C284.098 119.376 284.082 119.376 284.082 119.376C284.082 119.376 284.082 119.36 284.082 119.328V115.824C284.082 115.792 284.082 115.776 284.082 115.776C284.082 115.776 284.098 115.776 284.13 115.776ZM331.152 86.976H334.656C334.688 86.976 334.704 86.976 334.704 86.976C334.704 86.976 334.704 86.992 334.704 87.024V90.528C334.704 90.56 334.704 90.576 334.704 90.576C334.704 90.576 334.688 90.576 334.656 90.576H331.152C331.12 90.576 331.104 90.576 331.104 90.576C331.104 90.576 331.104 90.56 331.104 90.528V87.024C331.104 86.992 331.104 86.976 331.104 86.976C331.104 86.976 331.12 86.976 331.152 86.976ZM335.952 86.976H339.456C339.488 86.976 339.504 86.976 339.504 86.976C339.504 86.976 339.504 86.992 339.504 87.024V90.528C339.504 90.56 339.504 90.576 339.504 90.576C339.504 90.576 339.488 90.576 339.456 90.576H335.952C335.92 90.576 335.904 90.576 335.904 90.576C335.904 90.576 335.904 90.56 335.904 90.528V87.024C335.904 86.992 335.904 86.976 335.904 86.976C335.904 86.976 335.92 86.976 335.952 86.976ZM340.752 86.976H344.256C344.288 86.976 344.304 86.976 344.304 86.976C344.304 86.976 344.304 86.992 344.304 87.024V90.528C344.304 90.56 344.304 90.576 344.304 90.576C344.304 90.576 344.288 90.576 344.256 90.576H340.752C340.72 90.576 340.704 90.576 340.704 90.576C340.704 90.576 340.704 90.56 340.704 90.528V87.024C340.704 86.992 340.704 86.976 340.704 86.976C340.704 86.976 340.72 86.976 340.752 86.976ZM326.352 91.776H329.856C329.888 91.776 329.904 91.776 329.904 91.776C329.904 91.776 329.904 91.792 329.904 91.824V95.328C329.904 95.36 329.904 95.376 329.904 95.376C329.904 95.376 329.888 95.376 329.856 95.376H326.352C326.32 95.376 326.304 95.376 326.304 95.376C326.304 95.376 326.304 95.36 326.304 95.328V91.824C326.304 91.792 326.304 91.776 326.304 91.776C326.304 91.776 326.32 91.776 326.352 91.776ZM345.552 91.776H349.056C349.088 91.776 349.104 91.776 349.104 91.776C349.104 91.776 349.104 91.792 349.104 91.824V95.328C349.104 95.36 349.104 95.376 349.104 95.376C349.104 95.376 349.088 95.376 349.056 95.376H345.552C345.52 95.376 345.504 95.376 345.504 95.376C345.504 95.376 345.504 95.36 345.504 95.328V91.824C345.504 91.792 345.504 91.776 345.504 91.776C345.504 91.776 345.52 91.776 345.552 91.776ZM326.352 96.576H329.856C329.888 96.576 329.904 96.576 329.904 96.576C329.904 96.576 329.904 96.592 329.904 96.624V100.128C329.904 100.16 329.904 100.176 329.904 100.176C329.904 100.176 329.888 100.176 329.856 100.176H326.352C326.32 100.176 326.304 100.176 326.304 100.176C326.304 100.176 326.304 100.16 326.304 100.128V96.624C326.304 96.592 326.304 96.576 326.304 96.576C326.304 96.576 326.32 96.576 326.352 96.576ZM326.352 101.376H329.856C329.888 101.376 329.904 101.376 329.904 101.376C329.904 101.376 329.904 101.392 329.904 101.424V104.928C329.904 104.96 329.904 104.976 329.904 104.976C329.904 104.976 329.888 104.976 329.856 104.976H326.352C326.32 104.976 326.304 104.976 326.304 104.976C326.304 104.976 326.304 104.96 326.304 104.928V101.424C326.304 101.392 326.304 101.376 326.304 101.376C326.304 101.376 326.32 101.376 326.352 101.376ZM326.352 106.176H329.856C329.888 106.176 329.904 106.176 329.904 106.176C329.904 106.176 329.904 106.192 329.904 106.224V109.728C329.904 109.76 329.904 109.776 329.904 109.776C329.904 109.776 329.888 109.776 329.856 109.776H326.352C326.32 109.776 326.304 109.776 326.304 109.776C326.304 109.776 326.304 109.76 326.304 109.728V106.224C326.304 106.192 326.304 106.176 326.304 106.176C326.304 106.176 326.32 106.176 326.352 106.176ZM326.352 110.976H329.856C329.888 110.976 329.904 110.976 329.904 110.976C329.904 110.976 329.904 110.992 329.904 111.024V114.528C329.904 114.56 329.904 114.576 329.904 114.576C329.904 114.576 329.888 114.576 329.856 114.576H326.352C326.32 114.576 326.304 114.576 326.304 114.576C326.304 114.576 326.304 114.56 326.304 114.528V111.024C326.304 110.992 326.304 110.976 326.304 110.976C326.304 110.976 326.32 110.976 326.352 110.976ZM345.552 110.976H349.056C349.088 110.976 349.104 110.976 349.104 110.976C349.104 110.976 349.104 110.992 349.104 111.024V114.528C349.104 114.56 349.104 114.576 349.104 114.576C349.104 114.576 349.088 114.576 349.056 114.576H345.552C345.52 114.576 345.504 114.576 345.504 114.576C345.504 114.576 345.504 114.56 345.504 114.528V111.024C345.504 110.992 345.504 110.976 345.504 110.976C345.504 110.976 345.52 110.976 345.552 110.976ZM331.152 115.776H334.656C334.688 115.776 334.704 115.776 334.704 115.776C334.704 115.776 334.704 115.792 334.704 115.824V119.328C334.704 119.36 334.704 119.376 334.704 119.376C334.704 119.376 334.688 119.376 334.656 119.376H331.152C331.12 119.376 331.104 119.376 331.104 119.376C331.104 119.376 331.104 119.36 331.104 119.328V115.824C331.104 115.792 331.104 115.776 331.104 115.776C331.104 115.776 331.12 115.776 331.152 115.776ZM335.952 115.776H339.456C339.488 115.776 339.504 115.776 339.504 115.776C339.504 115.776 339.504 115.792 339.504 115.824V119.328C339.504 119.36 339.504 119.376 339.504 119.376C339.504 119.376 339.488 119.376 339.456 119.376H335.952C335.92 119.376 335.904 119.376 335.904 119.376C335.904 119.376 335.904 119.36 335.904 119.328V115.824C335.904 115.792 335.904 115.776 335.904 115.776C335.904 115.776 335.92 115.776 335.952 115.776ZM340.752 115.776H344.256C344.288 115.776 344.304 115.776 344.304 115.776C344.304 115.776 344.304 115.792 344.304 115.824V119.328C344.304 119.36 344.304 119.376 344.304 119.376C344.304 119.376 344.288 119.376 344.256 119.376H340.752C340.72 119.376 340.704 119.376 340.704 119.376C340.704 119.376 340.704 119.36 340.704 119.328V115.824C340.704 115.792 340.704 115.776 340.704 115.776C340.704 115.776 340.72 115.776 340.752 115.776ZM387.773 86.976H391.277C391.309 86.976 391.325 86.976 391.325 86.976C391.325 86.976 391.325 86.992 391.325 87.024V90.528C391.325 90.56 391.325 90.576 391.325 90.576C391.325 90.576 391.309 90.576 391.277 90.576H387.773C387.741 90.576 387.725 90.576 387.725 90.576C387.725 90.576 387.725 90.56 387.725 90.528V87.024C387.725 86.992 387.725 86.976 387.725 86.976C387.725 86.976 387.741 86.976 387.773 86.976ZM392.573 86.976H396.077C396.109 86.976 396.125 86.976 396.125 86.976C396.125 86.976 396.125 86.992 396.125 87.024V90.528C396.125 90.56 396.125 90.576 396.125 90.576C396.125 90.576 396.109 90.576 396.077 90.576H392.573C392.541 90.576 392.525 90.576 392.525 90.576C392.525 90.576 392.525 90.56 392.525 90.528V87.024C392.525 86.992 392.525 86.976 392.525 86.976C392.525 86.976 392.541 86.976 392.573 86.976ZM397.373 86.976H400.877C400.909 86.976 400.925 86.976 400.925 86.976C400.925 86.976 400.925 86.992 400.925 87.024V90.528C400.925 90.56 400.925 90.576 400.925 90.576C400.925 90.576 400.909 90.576 400.877 90.576H397.373C397.341 90.576 397.325 90.576 397.325 90.576C397.325 90.576 397.325 90.56 397.325 90.528V87.024C397.325 86.992 397.325 86.976 397.325 86.976C397.325 86.976 397.341 86.976 397.373 86.976ZM402.173 86.976H405.677C405.709 86.976 405.725 86.976 405.725 86.976C405.725 86.976 405.725 86.992 405.725 87.024V90.528C405.725 90.56 405.725 90.576 405.725 90.576C405.725 90.576 405.709 90.576 405.677 90.576H402.173C402.141 90.576 402.125 90.576 402.125 90.576C402.125 90.576 402.125 90.56 402.125 90.528V87.024C402.125 86.992 402.125 86.976 402.125 86.976C402.125 86.976 402.141 86.976 402.173 86.976ZM406.973 86.976H410.477C410.509 86.976 410.525 86.976 410.525 86.976C410.525 86.976 410.525 86.992 410.525 87.024V90.528C410.525 90.56 410.525 90.576 410.525 90.576C410.525 90.576 410.509 90.576 410.477 90.576H406.973C406.941 90.576 406.925 90.576 406.925 90.576C406.925 90.576 406.925 90.56 406.925 90.528V87.024C406.925 86.992 406.925 86.976 406.925 86.976C406.925 86.976 406.941 86.976 406.973 86.976ZM397.373 91.776H400.877C400.909 91.776 400.925 91.776 400.925 91.776C400.925 91.776 400.925 91.792 400.925 91.824V95.328C400.925 95.36 400.925 95.376 400.925 95.376C400.925 95.376 400.909 95.376 400.877 95.376H397.373C397.341 95.376 397.325 95.376 397.325 95.376C397.325 95.376 397.325 95.36 397.325 95.328V91.824C397.325 91.792 397.325 91.776 397.325 91.776C397.325 91.776 397.341 91.776 397.373 91.776ZM397.373 96.576H400.877C400.909 96.576 400.925 96.576 400.925 96.576C400.925 96.576 400.925 96.592 400.925 96.624V100.128C400.925 100.16 400.925 100.176 400.925 100.176C400.925 100.176 400.909 100.176 400.877 100.176H397.373C397.341 100.176 397.325 100.176 397.325 100.176C397.325 100.176 397.325 100.16 397.325 100.128V96.624C397.325 96.592 397.325 96.576 397.325 96.576C397.325 96.576 397.341 96.576 397.373 96.576ZM397.373 101.376H400.877C400.909 101.376 400.925 101.376 400.925 101.376C400.925 101.376 400.925 101.392 400.925 101.424V104.928C400.925 104.96 400.925 104.976 400.925 104.976C400.925 104.976 400.909 104.976 400.877 104.976H397.373C397.341 104.976 397.325 104.976 397.325 104.976C397.325 104.976 397.325 104.96 397.325 104.928V101.424C397.325 101.392 397.325 101.376 397.325 101.376C397.325 101.376 397.341 101.376 397.373 101.376ZM397.373 106.176H400.877C400.909 106.176 400.925 106.176 400.925 106.176C400.925 106.176 400.925 106.192 400.925 106.224V109.728C400.925 109.76 400.925 109.776 400.925 109.776C400.925 109.776 400.909 109.776 400.877 109.776H397.373C397.341 109.776 397.325 109.776 397.325 109.776C397.325 109.776 397.325 109.76 397.325 109.728V106.224C397.325 106.192 397.325 106.176 397.325 106.176C397.325 106.176 397.341 106.176 397.373 106.176ZM397.373 110.976H400.877C400.909 110.976 400.925 110.976 400.925 110.976C400.925 110.976 400.925 110.992 400.925 111.024V114.528C400.925 114.56 400.925 114.576 400.925 114.576C400.925 114.576 400.909 114.576 400.877 114.576H397.373C397.341 114.576 397.325 114.576 397.325 114.576C397.325 114.576 397.325 114.56 397.325 114.528V111.024C397.325 110.992 397.325 110.976 397.325 110.976C397.325 110.976 397.341 110.976 397.373 110.976ZM397.373 115.776H400.877C400.909 115.776 400.925 115.776 400.925 115.776C400.925 115.776 400.925 115.792 400.925 115.824V119.328C400.925 119.36 400.925 119.376 400.925 119.376C400.925 119.376 400.909 119.376 400.877 119.376H397.373C397.341 119.376 397.325 119.376 397.325 119.376C397.325 119.376 397.325 119.36 397.325 119.328V115.824C397.325 115.792 397.325 115.776 397.325 115.776C397.325 115.776 397.341 115.776 397.373 115.776ZM453.994 86.976H457.498C457.53 86.976 457.546 86.976 457.546 86.976C457.546 86.976 457.546 86.992 457.546 87.024V90.528C457.546 90.56 457.546 90.576 457.546 90.576C457.546 90.576 457.53 90.576 457.498 90.576H453.994C453.962 90.576 453.946 90.576 453.946 90.576C453.946 90.576 453.946 90.56 453.946 90.528V87.024C453.946 86.992 453.946 86.976 453.946 86.976C453.946 86.976 453.962 86.976 453.994 86.976ZM458.794 86.976H462.298C462.33 86.976 462.346 86.976 462.346 86.976C462.346 86.976 462.346 86.992 462.346 87.024V90.528C462.346 90.56 462.346 90.576 462.346 90.576C462.346 90.576 462.33 90.576 462.298 90.576H458.794C458.762 90.576 458.746 90.576 458.746 90.576C458.746 90.576 458.746 90.56 458.746 90.528V87.024C458.746 86.992 458.746 86.976 458.746 86.976C458.746 86.976 458.762 86.976 458.794 86.976ZM463.594 86.976H467.098C467.13 86.976 467.146 86.976 467.146 86.976C467.146 86.976 467.146 86.992 467.146 87.024V90.528C467.146 90.56 467.146 90.576 467.146 90.576C467.146 90.576 467.13 90.576 467.098 90.576H463.594C463.562 90.576 463.546 90.576 463.546 90.576C463.546 90.576 463.546 90.56 463.546 90.528V87.024C463.546 86.992 463.546 86.976 463.546 86.976C463.546 86.976 463.562 86.976 463.594 86.976ZM449.194 91.776H452.698C452.73 91.776 452.746 91.776 452.746 91.776C452.746 91.776 452.746 91.792 452.746 91.824V95.328C452.746 95.36 452.746 95.376 452.746 95.376C452.746 95.376 452.73 95.376 452.698 95.376H449.194C449.162 95.376 449.146 95.376 449.146 95.376C449.146 95.376 449.146 95.36 449.146 95.328V91.824C449.146 91.792 449.146 91.776 449.146 91.776C449.146 91.776 449.162 91.776 449.194 91.776ZM468.394 91.776H471.898C471.93 91.776 471.946 91.776 471.946 91.776C471.946 91.776 471.946 91.792 471.946 91.824V95.328C471.946 95.36 471.946 95.376 471.946 95.376C471.946 95.376 471.93 95.376 471.898 95.376H468.394C468.362 95.376 468.346 95.376 468.346 95.376C468.346 95.376 468.346 95.36 468.346 95.328V91.824C468.346 91.792 468.346 91.776 468.346 91.776C468.346 91.776 468.362 91.776 468.394 91.776ZM449.194 96.576H452.698C452.73 96.576 452.746 96.576 452.746 96.576C452.746 96.576 452.746 96.592 452.746 96.624V100.128C452.746 100.16 452.746 100.176 452.746 100.176C452.746 100.176 452.73 100.176 452.698 100.176H449.194C449.162 100.176 449.146 100.176 449.146 100.176C449.146 100.176 449.146 100.16 449.146 100.128V96.624C449.146 96.592 449.146 96.576 449.146 96.576C449.146 96.576 449.162 96.576 449.194 96.576ZM453.994 101.376H457.498C457.53 101.376 457.546 101.376 457.546 101.376C457.546 101.376 457.546 101.392 457.546 101.424V104.928C457.546 104.96 457.546 104.976 457.546 104.976C457.546 104.976 457.53 104.976 457.498 104.976H453.994C453.962 104.976 453.946 104.976 453.946 104.976C453.946 104.976 453.946 104.96 453.946 104.928V101.424C453.946 101.392 453.946 101.376 453.946 101.376C453.946 101.376 453.962 101.376 453.994 101.376ZM458.794 101.376H462.298C462.33 101.376 462.346 101.376 462.346 101.376C462.346 101.376 462.346 101.392 462.346 101.424V104.928C462.346 104.96 462.346 104.976 462.346 104.976C462.346 104.976 462.33 104.976 462.298 104.976H458.794C458.762 104.976 458.746 104.976 458.746 104.976C458.746 104.976 458.746 104.96 458.746 104.928V101.424C458.746 101.392 458.746 101.376 458.746 101.376C458.746 101.376 458.762 101.376 458.794 101.376ZM463.594 101.376H467.098C467.13 101.376 467.146 101.376 467.146 101.376C467.146 101.376 467.146 101.392 467.146 101.424V104.928C467.146 104.96 467.146 104.976 467.146 104.976C467.146 104.976 467.13 104.976 467.098 104.976H463.594C463.562 104.976 463.546 104.976 463.546 104.976C463.546 104.976 463.546 104.96 463.546 104.928V101.424C463.546 101.392 463.546 101.376 463.546 101.376C463.546 101.376 463.562 101.376 463.594 101.376ZM468.394 106.176H471.898C471.93 106.176 471.946 106.176 471.946 106.176C471.946 106.176 471.946 106.192 471.946 106.224V109.728C471.946 109.76 471.946 109.776 471.946 109.776C471.946 109.776 471.93 109.776 471.898 109.776H468.394C468.362 109.776 468.346 109.776 468.346 109.776C468.346 109.776 468.346 109.76 468.346 109.728V106.224C468.346 106.192 468.346 106.176 468.346 106.176C468.346 106.176 468.362 106.176 468.394 106.176ZM449.194 110.976H452.698C452.73 110.976 452.746 110.976 452.746 110.976C452.746 110.976 452.746 110.992 452.746 111.024V114.528C452.746 114.56 452.746 114.576 452.746 114.576C452.746 114.576 452.73 114.576 452.698 114.576H449.194C449.162 114.576 449.146 114.576 449.146 114.576C449.146 114.576 449.146 114.56 449.146 114.528V111.024C449.146 110.992 449.146 110.976 449.146 110.976C449.146 110.976 449.162 110.976 449.194 110.976ZM468.394 110.976H471.898C471.93 110.976 471.946 110.976 471.946 110.976C471.946 110.976 471.946 110.992 471.946 111.024V114.528C471.946 114.56 471.946 114.576 471.946 114.576C471.946 114.576 471.93 114.576 471.898 114.576H468.394C468.362 114.576 468.346 114.576 468.346 114.576C468.346 114.576 468.346 114.56 468.346 114.528V111.024C468.346 110.992 468.346 110.976 468.346 110.976C468.346 110.976 468.362 110.976 468.394 110.976ZM453.994 115.776H457.498C457.53 115.776 457.546 115.776 457.546 115.776C457.546 115.776 457.546 115.792 457.546 115.824V119.328C457.546 119.36 457.546 119.376 457.546 119.376C457.546 119.376 457.53 119.376 457.498 119.376H453.994C453.962 119.376 453.946 119.376 453.946 119.376C453.946 119.376 453.946 119.36 453.946 119.328V115.824C453.946 115.792 453.946 115.776 453.946 115.776C453.946 115.776 453.962 115.776 453.994 115.776ZM458.794 115.776H462.298C462.33 115.776 462.346 115.776 462.346 115.776C462.346 115.776 462.346 115.792 462.346 115.824V119.328C462.346 119.36 462.346 119.376 462.346 119.376C462.346 119.376 462.33 119.376 462.298 119.376H458.794C458.762 119.376 458.746 119.376 458.746 119.376C458.746 119.376 458.746 119.36 458.746 119.328V115.824C458.746 115.792 458.746 115.776 458.746 115.776C458.746 115.776 458.762 115.776 458.794 115.776ZM463.594 115.776H467.098C467.13 115.776 467.146 115.776 467.146 115.776C467.146 115.776 467.146 115.792 467.146 115.824V119.328C467.146 119.36 467.146 119.376 467.146 119.376C467.146 119.376 467.13 119.376 467.098 119.376H463.594C463.562 119.376 463.546 119.376 463.546 119.376C463.546 119.376 463.546 119.36 463.546 119.328V115.824C463.546 115.792 463.546 115.776 463.546 115.776C463.546 115.776 463.562 115.776 463.594 115.776Z" fill="white"/>
</svg>
